<?xml version="1.0" encoding="UTF-8"?><svg id="Layer_1" xmlns="http://www.w3.org/2000/svg" viewBox="0 0 832.55 888.51"><defs><style>.cls-1{stroke-width:0px;}</style></defs><path class="cls-1" d="m185.81,521.96c0-10.96,0-21.92,0-32.88,0-5.3,1.83-9.67,7.03-11.71,16.1-6.31,23.2-19.39,25.72-35.26,2.26-14.21-.07-28.02-9.28-39.48-3.87-4.81-9.37-8.76-14.88-11.7-5.83-3.1-8.68-6.97-8.63-13.45.1-13.57-.07-27.14.06-40.7.17-18.4,10.92-31.79,28.84-35.79,2.99-.67,4.31-2.03,5.2-4.78,4.13-12.9,8.41-25.75,12.69-38.6,6.82-20.51,24.98-29.46,45.55-22.34,60.7,21.02,121.37,42.12,182.08,63.09,3.04,1.05,6.4,1.68,9.62,1.69,55.83.1,111.67.51,167.5-.15,20.38-.24,39.45,14.52,38.67,38.99-.4,12.69-.19,25.4-.02,38.09.09,6.92-2.68,11.25-9.23,14.04-14.79,6.31-21.17,19.1-23.56,33.96-2.23,13.83.22,27.04,8.34,38.81,4.04,5.85,9.17,10.46,15.96,12.91,5.84,2.11,8.44,6.33,8.44,12.38,0,21.57.22,43.14-.08,64.71-.25,17.94-11.51,31.17-29.27,34.87-3.05.64-4.21,2.06-5.1,4.85-3.94,12.41-8.13,24.74-12.25,37.1-6.91,20.77-24.66,29.71-45.32,22.67-60.64-20.64-121.25-41.37-181.91-61.97-3.21-1.09-6.75-1.73-10.13-1.73-55.66-.11-111.32-.07-166.98-.08-24.41,0-39.02-14.55-39.06-38.85-.02-9.57,0-19.14,0-28.7Zm100.22,45.42c0-4.13-.1-7.42.02-10.71.27-7.28,4.6-12,10.97-12.12,6.62-.12,11.14,4.67,11.4,12.21.12,3.4.02,6.81.02,10.62,2.67,0,4.55,0,6.43,0,107.14,0,214.28,0,321.43,0,1.39,0,2.79.05,4.17-.05,7.99-.6,12.84-5.43,12.91-13.49.15-18.96.11-37.92-.02-56.88,0-1.44-.9-3.5-2.05-4.22-19.89-12.52-29.5-31.14-30.83-53.92-1.54-26.39,7.21-48.46,29.98-63.75,1.51-1.01,2.81-3.5,2.86-5.34.27-10.26.15-20.52.13-30.79-.02-12.33-4.34-16.69-16.57-16.69-107.49,0-214.98,0-322.47,0-1.85,0-3.7,0-5.97,0,0,3.63.1,6.57-.02,9.5-.29,7.46-4.95,12.41-11.42,12.26-6.3-.14-10.68-4.96-10.96-12.2-.12-3.06-.02-6.12-.02-9.47-22.49,0-44.2-.2-65.9.12-7.03.1-11.66,5.56-11.78,12.82-.2,11.65-.15,23.31,0,34.96.02,1.45.87,3.51,2.01,4.23,19.96,12.71,29.68,31.45,30.9,54.46,1.39,26.21-7.47,48.06-29.92,63.34-1.59,1.08-2.93,3.78-2.95,5.74-.22,18.09-.18,36.18-.11,54.27.04,10.17,4.89,14.99,15.06,15.07,11.13.08,22.26.02,33.39.02,9.53,0,19.06,0,29.3,0Zm-44.02-267.59h153.16c-2.78-1.15-4.15-1.8-5.59-2.3-21.46-7.46-42.92-14.89-64.38-22.34-18.35-6.36-36.69-12.76-55.06-19.06-7.17-2.46-12.81-.91-15.01,5.03-4.68,12.64-8.71,25.53-13.13,38.67Zm225.54,289.95c3.22,1.26,5.06,2.07,6.96,2.72,15.93,5.46,31.88,10.88,47.82,16.32,23.01,7.85,46,15.74,69.02,23.54,8.63,2.92,13.64.44,16.56-8.17,3.34-9.87,6.55-19.78,9.79-29.68.47-1.44.79-2.92,1.27-4.72h-151.42Z"/><path class="cls-1" d="m539.46,393.95c-.83,1.37-1.98,4.4-4.06,6.49-34.73,34.91-69.55,69.72-104.41,104.48-5.33,5.32-12.07,5.35-16.65.52-4.47-4.72-4.24-11,1.01-16.26,34.77-34.86,69.61-69.65,104.41-104.49,3.84-3.85,8.19-5.18,13.27-2.84,4.39,2.02,6.5,5.57,6.44,12.1Z"/><path class="cls-1" d="m422.57,427.78c-19.92.06-36.33-16.15-36.38-35.95-.05-19.68,16.5-36.21,36.25-36.2,19.81.01,36.11,16.46,35.99,36.32-.12,19.78-16.12,35.76-35.85,35.82Zm13.56-36.19c-.08-7.79-6.32-13.83-14.07-13.63-7.64.2-13.38,6.09-13.4,13.75-.02,7.84,6.03,13.94,13.79,13.91,7.76-.04,13.77-6.2,13.69-14.03Z"/><path class="cls-1" d="m528.53,461.81c19.95.05,36.06,16.28,35.96,36.25-.09,19.57-16.37,35.85-35.93,35.93-19.76.08-36.18-16.33-36.19-36.17,0-19.98,16.14-36.06,36.16-36.01Zm-.2,49.77c7.77.05,13.99-6.11,13.96-13.83-.03-7.48-6.04-13.58-13.53-13.74-7.73-.17-14.09,5.9-14.22,13.58-.13,7.69,6.03,13.94,13.79,13.99Z"/><path class="cls-1" d="m286.05,383.53c0-3.81-.17-7.63.03-11.43.37-6.89,4.77-11.34,11-11.42,6.28-.07,11,4.26,11.26,11.1.31,7.96.31,15.94,0,23.9-.26,6.86-4.94,11.21-11.21,11.16-6.23-.05-10.67-4.49-11.05-11.37-.22-3.97-.04-7.97-.04-11.95Z"/><path class="cls-1" d="m286.05,444c0-3.81-.17-7.63.04-11.43.38-6.92,4.75-11.32,11.02-11.38,6.3-.06,10.98,4.26,11.24,11.12.3,7.96.31,15.94,0,23.9-.27,6.85-4.98,11.22-11.23,11.15-6.21-.06-10.65-4.53-11.02-11.41-.21-3.97-.04-7.97-.04-11.95Z"/><path class="cls-1" d="m286.03,504.49c0-3.64-.12-7.28.02-10.91.29-7.28,4.6-11.84,11.05-11.9,6.47-.06,11.07,4.45,11.29,11.63.23,7.62.23,15.25,0,22.86-.22,7.18-4.85,11.76-11.28,11.69-6.37-.06-10.77-4.73-11.05-11.94-.15-3.81-.03-7.62-.03-11.43Z"/></svg>