<?xml version="1.0" encoding="UTF-8"?>
<svg width="24px" height="24px" viewBox="0 0 24 24" version="1.1" xmlns="http://www.w3.org/2000/svg" xmlns:xlink="http://www.w3.org/1999/xlink">
    <title>A35D3448-19EA-4734-B0DE-AD87F9CC0003</title>
    <g id="Style-guide" stroke="none" stroke-width="1" fill="none" fill-rule="evenodd">
        <g id="Atlantis-Style-Guide" transform="translate(-530.000000, -1462.000000)" fill="#543AA3" fill-rule="nonzero">
            <g id="5402428_day_light_mode_sun_climate_icon" transform="translate(530.000000, 1462.000000)">
                <circle id="Oval" cx="12" cy="12" r="6"></circle>
                <path d="M22.6666667,13 L21.3333333,13 C20.5969537,13 20,12.5522847 20,12 C20,11.4477153 20.5969537,11 21.3333333,11 L22.6666667,11 C23.4030463,11 24,11.4477153 24,12 C24,12.5522847 23.4030463,13 22.6666667,13 Z" id="Path"></path>
                <path d="M2.66666667,13 L1.33333333,13 C0.596953667,13 0,12.5522847 0,12 C0,11.4477153 0.596953667,11 1.33333333,11 L2.66666667,11 C3.40304633,11 4,11.4477153 4,12 C4,12.5522847 3.40304633,13 2.66666667,13 Z" id="Path"></path>
                <path d="M19.0333325,5.99890809 C18.7633643,5.98668529 18.5076341,5.87432761 18.3160369,5.68375694 C17.8946544,5.25989229 17.8946544,4.57533499 18.3160369,4.15147034 L19.0876731,3.3798934 C19.3532788,3.06976711 19.7703194,2.93468052 20.1673323,3.03017328 C20.5643452,3.12566605 20.8743243,3.4356213 20.9698244,3.8326037 C21.0653245,4.2295861 20.9302275,4.64659465 20.6200774,4.91218 L19.8484412,5.68375694 C19.6328074,5.89822323 19.3371667,6.01252884 19.0333325,5.99890809 L19.0333325,5.99890809 Z" id="Path"></path>
                <path d="M4.13243745,20.998631 C3.83167061,21.0004031 3.5425867,20.8800752 3.32904371,20.6642275 C2.89031876,20.2144693 2.89031876,19.4880929 3.32904371,19.0383347 L4.13243745,18.2772784 C4.58138776,17.8854765 5.25061915,17.9118189 5.66857519,18.3377441 C6.08653122,18.7636693 6.11238072,19.4456609 5.72790952,19.9031713 L4.92451578,20.7218833 C4.70492889,20.9139535 4.42147597,21.0129904 4.13243745,20.998631 L4.13243745,20.998631 Z" id="Path"></path>
                <path d="M12,4 C11.4477153,4 11,3.40304633 11,2.66666667 L11,1.33333333 C11,0.596953667 11.4477153,0 12,0 C12.5522847,0 13,0.596953667 13,1.33333333 L13,2.66666667 C13,3.40304633 12.5522847,4 12,4 Z" id="Path"></path>
                <path d="M12,24 C11.4477153,24 11,23.4030463 11,22.6666667 L11,21.3333333 C11,20.5969537 11.4477153,20 12,20 C12.5522847,20 13,20.5969537 13,21.3333333 L13,22.6666667 C13,23.4030463 12.5522847,24 12,24 Z" id="Path"></path>
                <path d="M4.86756255,6 C4.57071436,5.99873077 4.28624567,5.88084495 4.07548422,5.67173825 L3.27209048,4.8681093 C2.88761928,4.41902755 2.91346878,3.74960024 3.33142481,3.33152184 C3.74938085,2.91344345 4.41861224,2.88758638 4.86756255,3.27217013 L5.67095629,4.07579908 C6.10968124,4.51727145 6.10968124,5.23026587 5.67095629,5.67173825 C5.4574133,5.88360938 5.16832939,6.00172047 4.86756255,6 Z" id="Path"></path>
                <path d="M19.7927276,20.9979609 C19.4762628,20.9966288 19.1729955,20.8710349 18.9483063,20.6482555 L18.1521376,19.7920803 C17.8902178,19.3213658 17.9723437,18.7340945 18.3533516,18.3532241 C18.7343596,17.9723536 19.3218431,17.8902575 19.7927276,18.1520827 L20.6492121,19.0082579 C21.1169293,19.4785965 21.1169293,20.2382109 20.6492121,20.7085495 C20.4120433,20.9123618 20.1049586,21.0161276 19.7927276,20.9979609 Z" id="Path"></path>
            </g>
        </g>
    </g>
</svg>