<svg width="600" height="393" viewBox="0 0 600 393" fill="none" xmlns="http://www.w3.org/2000/svg">
<path d="M0 390.169H7.06958V353.768H34.8851V347.138H7.06958V324.379H35.7182V317.749H0V390.169Z" fill="black"/>
<path d="M89.7177 337.535C89.7177 321.405 76.0761 317.749 60.7683 317.749H49.7416V390.169H56.7996V357.991H60.6642L84.9275 390.169H94.612L69.0991 357.332C82.1159 356.372 89.7177 348.585 89.7177 337.546V337.535ZM56.522 351.755V324.379H60.7683C71.4942 324.379 81.8035 325.525 81.8035 338.113C81.8035 350.019 70.9735 351.743 60.8725 351.743H56.5104L56.522 351.755Z" fill="black"/>
<path d="M145.291 360.977C145.291 366.831 145.58 373.264 141.542 378.066C137.99 382.301 132.043 384.789 126.651 384.789C121.259 384.789 114.745 382.197 111.389 377.592C107.93 372.79 108.034 366.542 108.034 360.977V317.749H100.825V363.175C100.825 371.54 101.682 378.066 107.93 384.025C112.836 388.827 119.836 391.419 126.651 391.419C133.952 391.419 141.16 388.538 146.159 383.157C151.817 377.303 152.488 371.147 152.488 363.175V317.749H145.279V360.977H145.291Z" fill="black"/>
<path d="M175.12 317.749H167.599V390.169H175.12V317.749Z" fill="black"/>
<path d="M184.399 324.379H207.957V390.169H215.015V324.379H238.133V317.749H184.399V324.379Z" fill="black"/>
<path d="M341.168 317.749L333.612 317.587H333.45V390.169L361.659 390.343L361.821 383.551L341.006 383.389L341.168 317.749Z" fill="black"/>
<path d="M396.718 316.338C378.575 316.338 363.835 333.254 363.835 354.046C363.835 374.838 378.575 391.581 396.718 391.581C414.86 391.581 429.601 374.745 429.601 354.046C429.601 333.346 414.849 316.338 396.718 316.338ZM396.718 384.627C382.197 384.627 370.395 370.869 370.395 353.953C370.395 337.037 382.208 323.291 396.718 323.291C411.227 323.291 423.018 337.049 423.018 353.953C423.018 370.858 411.216 384.627 396.718 384.627Z" fill="black"/>
<path d="M468.467 316.338C450.324 316.338 435.583 333.254 435.583 354.046C435.583 374.838 450.324 391.581 468.467 391.581C486.609 391.581 501.339 374.745 501.339 354.046C501.339 333.346 486.598 316.338 468.467 316.338ZM468.467 384.627C453.946 384.627 442.144 370.869 442.144 353.953C442.144 337.037 453.946 323.291 468.467 323.291C482.988 323.291 494.778 337.049 494.778 353.953C494.778 370.858 482.965 384.627 468.467 384.627Z" fill="black"/>
<path d="M564.606 314.776L562.488 320.387C556.842 334.966 542.541 372.94 541.523 375.636L539.799 371.031C534.592 356.672 518.717 314.776 518.717 314.776L517.56 321.718C514.286 340.427 505.99 390.157 505.99 390.157H506.163V390.181H506.927L512.562 390.342C512.724 390.204 520.869 340.543 520.869 340.543L521.008 339.536C521.008 339.826 541.453 392.541 541.453 392.541C541.453 392.541 541.499 392.471 541.557 392.356L541.615 392.472L543.131 388.584C548.014 376.481 562.002 340.566 562.002 340.566L562.303 339.71C562.338 339.941 570.611 390.204 570.611 390.204L577.171 390.342C577.171 390.342 577.171 390.25 577.171 390.181L577.102 389.741C576.118 382.833 564.606 314.787 564.606 314.787M506.186 390.019H506.163C506.163 390.019 506.221 389.787 506.29 389.44L506.186 390.019ZM520.869 320.515L518.833 315.076L520.869 320.515ZM541.465 392.414C541.465 392.286 540.956 390.852 540.088 388.538L541.523 392.263C541.488 392.367 541.465 392.425 541.465 392.425V392.414ZM541.615 375.868L541.557 375.741C541.8 375.208 542.448 373.554 543.386 371.159L541.604 375.868H541.615ZM576.998 390.204C576.998 390.204 576.639 390.204 576.107 390.181H576.998V390.204Z" fill="black"/>
<path d="M286.046 333.705C286.046 324.229 278.294 316.5 268.76 316.5C259.226 316.5 251.462 324.229 251.462 333.705C251.462 343.181 259.214 350.841 268.76 350.841C278.306 350.841 286.046 343.158 286.046 333.705ZM257.699 333.67C257.699 327.492 262.662 322.47 268.771 322.47C274.881 322.47 279.833 327.492 279.833 333.67C279.833 339.849 274.869 344.859 268.771 344.859C262.674 344.859 257.699 339.849 257.699 333.67Z" fill="black"/>
<path d="M305.982 335.198V333.589V330.824V329.216H304.374H295.65V322.991H304.698H306.294V321.382V318.629V317.02H304.698H291.01H289.401V318.629V348.7V350.309H291.01H294.041H295.65V348.7V335.198H304.374H305.982Z" fill="black"/>
<path d="M243.501 356.996H241.905V358.616V361.347V362.967H243.501H249.31V388.665V390.285H250.918H253.961H255.558V388.665V362.967H261.459H263.067V361.347V358.616V356.996H261.459H243.501Z" fill="black"/>
<path d="M287.18 356.996H285.56V358.616V369.354H272.671V358.616V356.996H271.074H268.077H266.457V358.616V388.665V390.285H268.077H271.074H272.671V388.665V375.324H285.56V388.665V390.285H287.18H290.177H291.785V388.665V358.616V356.996H290.177H287.18Z" fill="black"/>
<path d="M297.408 356.996H295.812V358.616V388.665V390.285H297.408H313.005H314.625V388.665V385.934V384.314H313.005H302.06V375.174H312.658H314.267V373.565V370.811V369.192H312.658H302.06V362.967H313.005H314.625V361.347V358.616V356.996H313.005H297.408Z" fill="black"/>
<path d="M591.218 372.501C586.439 372.501 582.39 376.18 582.39 381.167C582.39 386.154 586.439 389.88 591.218 389.88C595.997 389.88 600 386.2 600 381.167C600 376.134 595.95 372.501 591.218 372.501ZM591.218 388.433C587.249 388.433 584.137 385.356 584.137 381.167C584.137 376.979 587.249 373.947 591.218 373.947C595.187 373.947 598.253 377.048 598.253 381.167C598.253 385.286 595.152 388.433 591.218 388.433Z" fill="black"/>
<path d="M595.222 379.027C595.222 377.048 594.053 376.18 591.681 376.18H587.863V386.2H589.379V381.861H591.137L593.775 386.2H595.476L592.618 381.792C594.099 381.607 595.222 380.82 595.222 379.038V379.027ZM589.379 380.565V377.465H591.45C592.514 377.465 593.636 377.696 593.636 378.934C593.636 380.473 592.491 380.565 591.207 380.565H589.379Z" fill="black"/>
<path d="M212.435 56.2327C211.879 49.7648 195.889 40.9249 197.381 43.9448C198.885 46.9647 204.127 53.9533 198.851 54.6938C193.586 55.4459 185.302 46.3746 185.302 41.8505C185.302 37.3265 186.042 46.3746 182.27 47.8788C178.498 49.3829 173.974 48.6193 171.718 40.3117C169.462 32.004 153.633 31.9809 148.334 34.9892C143.046 38.0091 149.838 38.0091 153.61 43.2968C157.37 48.5961 137.77 39.5017 129.462 46.282C121.166 53.0624 171.706 52.3913 157.336 70.4644C142.977 88.5491 143.798 50.0772 121.918 45.5068C100.039 40.9365 97.7708 44.7084 87.9475 50.7251C78.1357 56.7533 107.745 51.9516 100.189 60.2361C92.6335 68.5205 86.4317 65.813 82.6597 62.7931C78.8993 59.7732 80.3803 65.8015 84.1408 70.3371C87.9243 74.8728 87.1607 77.8811 78.8646 75.6017C70.557 73.3223 57.76 62.7469 53.9765 65.0031C50.2045 67.2594 59.1832 71.4132 64.5056 82.3704C66.6693 86.8251 63.7535 83.1225 59.2179 84.6267C54.6823 86.1193 63.7535 87.6466 67.5024 93.6864C71.2628 99.7378 67.5024 97.4584 64.4709 100.478C61.451 103.487 79.825 111.088 89.7409 106.368C107.49 97.8981 144.03 105.454 157.243 123.075C168.744 138.372 214.656 81.8613 212.435 56.198V56.2327Z" fill="#2FB457"/>
<path d="M125.586 105.141C120.541 104.054 98.5575 99.2402 82.5671 109.596C67.4676 119.384 75.7752 117.128 78.0199 120.9C80.2877 124.672 72.7206 135.236 61.3931 142.757C51.6391 149.236 41.7579 148.01 36.4933 145.731C31.2056 143.463 34.2255 144.967 39.4901 151.77C44.7662 158.574 37.9975 156.179 34.2139 155.531C29.6783 154.779 36.4586 160.818 40.2306 166.106C44.0026 171.394 42.4869 170.642 37.9512 172.898C33.4271 175.154 42.2439 178.741 47.7514 176.682C59.8426 172.181 47.7283 183.647 53.7797 184.237C61.2195 184.966 40.1843 191.758 40.1843 191.758C40.1843 191.758 47.7283 189.513 47.7283 197.809C47.7283 208.952 31.8536 212.122 31.8536 212.122C31.8536 212.122 43.9332 212.145 40.8901 222.697C37.8471 233.25 51.8705 219.539 58.2575 220.464C63.5452 221.216 62.0179 228.772 58.9864 234.037C55.9549 239.313 81.0629 214.76 77.1058 231.803C74.8264 241.615 113.229 218.416 98.222 236.362C84.9853 252.179 124.232 241.685 130.689 225.093C135.537 212.573 178.394 116.515 125.598 105.118L125.586 105.141Z" fill="#2FB457"/>
<path d="M472.701 87.5887C477.665 83.4696 489.687 87.2416 494.593 81.5952C498.099 77.5687 497.462 80.0563 496.097 86.1309C495.333 89.521 495.715 90.2731 503.641 90.2962C508.165 90.2962 502.183 93.4897 502.877 95.5724C503.629 97.8402 507.772 98.222 510.815 95.9658C514.621 93.1079 510.791 98.2336 511.544 100.49C512.307 102.758 515.697 100.883 519.863 98.627C524.051 96.3476 521.807 101.739 525.879 105.419C529.64 108.821 535.668 111.1 542.09 108.08C545.503 106.472 541.326 117.88 525.474 121.641C509.623 125.39 496.791 123.862 489.247 121.583C481.715 119.315 467.784 117.07 466.615 124.568C465.852 129.462 469.624 132.876 474.159 133.628C478.672 134.391 486.239 130.631 489.999 126.871C493.783 123.099 508.882 120.866 517.919 127.669C526.979 134.472 524.711 131.453 529.235 132.205C533.771 132.968 524.711 133.709 523.184 136.717C521.668 139.725 523.184 136.717 526.944 140.489C530.716 144.273 526.944 148.045 531.468 150.312C535.98 152.592 542.772 153.355 548.801 162.415C554.817 171.486 545.781 163.919 537.473 165.412C529.165 166.916 529.918 169.172 532.185 170.688C534.442 172.204 540.481 174.472 541.233 179.007C541.962 183.543 539.718 177.503 537.45 179.748C535.182 182.016 528.402 182.004 531.399 187.292C534.43 192.579 529.142 184.272 525.382 183.508C521.598 182.745 367.687 174.958 472.713 87.5887H472.701Z" fill="#2FB457"/>
<path d="M145.985 34.6073C144.504 35.452 143.937 36.4008 143.891 38.1826C143.891 38.2058 143.891 38.2289 143.891 38.2636C143.891 40.138 145.499 41.1562 147.049 42.1397C147.755 42.591 148.554 43.1001 149.329 43.7249C148.924 43.6671 149.051 42.9497 148.669 42.8918C142.838 42.024 133.477 41.3645 128.109 45.7382C127.854 45.9464 127.785 46.1431 127.588 46.3514C126.037 45.5762 124.383 44.9977 122.566 44.5348C103.22 39.5364 98.9278 42.7414 90.1457 47.6357C90.1457 47.6357 84.6845 50.7598 84.6266 53.7681C84.6266 53.9764 84.6497 54.1846 84.696 54.4045C85.263 56.9268 88.2597 57.2624 92.7954 57.7484C94.7161 57.9566 98.4418 58.3963 99.622 59.079C99.5294 59.2294 99.4137 59.3914 99.1823 59.6459C92.7491 66.7039 88.0283 64.3204 85.0316 61.9137C82.3241 59.7385 80.7042 60.8492 80.1373 61.4393C79.5472 62.041 79.3042 62.8394 79.3042 63.7187C79.3042 66.7502 82.1042 70.8924 83.4001 72.4545C84.3605 73.6115 84.696 74.2826 84.858 74.7223C84.2563 74.7801 83.0299 74.757 80.5191 74.0628C77.314 73.1834 73.2065 70.8462 69.2263 68.5783C62.7468 64.8874 57.6326 61.9832 54.4045 63.9154C53.0391 64.7369 52.6226 65.7899 52.53 66.5419C52.5069 66.6924 52.4953 66.8543 52.4953 67.0048C52.4953 68.8213 53.9648 70.3486 55.9318 72.3966C58.269 74.8264 61.393 78.1587 63.4873 83.0183C62.3997 82.6712 61.2195 82.5555 59.9814 82.9605C59.3682 83.1687 57.4822 83.782 57.2624 85.6448C57.2508 85.7605 57.2392 85.8762 57.2392 85.992C57.2392 87.716 58.8012 88.6647 60.7451 89.8449C62.7121 91.0483 65.4196 92.6913 66.9237 95.1095C67.4328 95.9194 67.7105 96.4633 67.8841 96.8219C66.9469 97.1806 65.57 97.7244 64.2625 99.0203C63.6146 99.6683 63.2906 100.467 63.2906 101.311C63.2906 102.04 63.5336 102.792 64.0311 103.487C67.0047 107.687 82.2431 112.801 91.5458 108.369C107.455 100.779 142.375 107.282 154.964 124.07C156.479 126.095 160.078 129.092 167.032 126.431C185.255 119.454 215.639 77.1752 213.811 56.0128L213.719 56.1053C216.392 52.1482 202.033 42.915 198.457 41.7695C196.733 41.2141 195.565 42.0819 195.044 42.6836C194.87 42.8803 194.454 43.4472 194.454 44.2803C194.454 44.6621 194.546 45.1134 194.789 45.5993L195.287 46.5828C197.231 50.3317 197.439 51.8011 197.439 52.6226C197.439 52.8309 197.312 53.0739 197.254 53.1664C197.254 53.1664 197.254 53.3747 196.884 53.3516C195.322 53.259 193.875 52.3565 191.735 50.5052C188.657 47.8324 186.771 44.7084 186.771 43.1579L186.459 42.186C186.459 42.186 186.459 42.1166 186.459 42.0935C186.459 41.7001 186.331 41.1215 186.308 41.029C186.031 39.9413 185.093 39.5364 183.983 39.6752C182.189 39.9066 181.819 41.3067 181.807 42.591C181.692 44.153 180.708 46.3167 180.153 46.9068C179.1 48.0291 177.746 47.5547 176.716 47.0341C175.177 46.2588 173.905 44.1877 173.048 41.0174C172.215 37.9512 170.028 35.3363 166.453 33.8553C160.101 31.2056 150.035 32.2817 145.95 34.5958L145.985 34.6073ZM164.833 36.8867C167.171 37.8587 169.057 39.1546 169.531 40.9017C170.769 45.472 172.597 49.6143 175.548 50.6672C181.911 52.935 183.716 47.8093 184.33 47.0225C185.568 48.8622 188.426 51.8474 190.011 53.2127C191.92 54.8673 195.703 56.5797 197.416 56.5797C201.824 56.5797 201.535 52.611 201.535 51.7317C201.535 50.3895 199.73 47.1382 199.198 45.7266C202.576 48.2143 209.958 53.8838 210.178 56.4062C210.224 56.9731 210.248 57.5517 210.248 58.1418C210.248 78.3554 182.652 116.307 166.129 122.624C161.675 124.325 159.951 122.925 159.048 121.722C144.828 102.758 108.011 96.8567 89.1969 104.944C82.0695 108.011 69.9436 103.88 66.9353 101.45C67.3518 101.207 76.5504 98.4187 69.5618 91.8235C68.613 90.921 62.7815 86.5473 61.9021 85.6911C62.0641 85.6217 70.4065 88.9193 66.5998 81.5257C63.5567 75.6248 60.2128 71.2627 57.621 68.5668C57.1814 68.1155 56.7186 67.618 56.302 67.1667C58.5583 67.7337 62.8509 70.1404 65.6857 71.7602C69.9899 74.2132 74.4214 76.7356 78.2397 77.7885C81.5257 78.691 86.1076 79.5588 87.9589 76.6777C88.3639 76.0413 88.5722 75.3471 88.5722 74.5719C88.5722 72.952 87.6696 71.0544 85.8531 68.8792C85.0894 67.9535 84.5225 67.0626 84.0481 66.218C89.9606 69.3536 96.174 67.9535 101.832 61.7517C103.058 60.4096 103.845 59.4261 103.845 58.1765C103.845 57.7136 103.741 56.8574 103.429 56.4987C101.126 53.826 97.5856 53.9648 92.564 53.421C91.8697 53.34 89.0118 53.1202 88.2135 53.016C89.1044 52.4491 92.7607 50.5052 92.7607 50.5052C101.52 46.5018 101.52 43.1695 121.421 47.7052C123.654 48.2143 125.91 48.9201 127.692 50.1002C127.866 50.2622 128.514 50.6788 128.722 50.8292C133.986 54.6243 136.983 60.4443 139.899 65.8246C143.197 71.8991 145.615 76.4694 150.046 76.8513C152.962 77.1058 155.322 75.6595 158.574 71.5635C161.096 68.3932 162.149 64.5171 162.149 64.4592C162.149 63.6262 162.103 62.77 161.756 62.0063C158.574 55.0987 149.005 53.1317 139.748 50.6903C136.867 49.9267 133.292 48.4225 131.533 47.601C135.618 44.9861 142.792 45.4026 147.686 46.1316C152.164 46.8027 155.299 48.0523 155.901 45.8076C156.954 41.8621 149.433 39.1083 147.79 38.0669C147.79 38.0669 149.873 37.0834 149.826 37.0487C153.506 35.8454 159.893 34.8272 164.799 36.8752L164.833 36.8867ZM150.451 73.0098C148.45 72.8363 146.043 68.3932 143.706 64.089C142.063 61.0459 140.153 57.5748 137.793 54.3119C138.117 54.3929 138.36 54.4739 138.696 54.5549C145.603 56.383 156.051 59.1368 157.486 63.4526C157.59 63.7766 157.648 64.1121 157.648 64.4708C157.648 65.7667 156.942 67.3056 155.554 69.0643C152.719 72.6396 151.134 73.0677 150.451 73.0098Z" fill="black"/>
<path d="M81.5372 109.017C73.9354 113.946 71.7601 116.052 71.8527 118.401C71.9221 120.345 73.5767 121.247 74.6759 121.849C75.3701 122.231 76.0875 122.624 76.3767 123.11C77.3834 124.776 72.2345 133.929 60.7566 141.542C50.0307 148.669 40.2999 145.071 38.4602 144.273C35.8337 143.15 34.2485 142.468 33.0799 144.088C32.7559 144.55 32.6055 144.967 32.6055 145.395C32.6055 146.448 33.4965 147.443 34.6188 148.681L38.761 153.587C39.0272 153.922 39.2123 154.189 39.3858 154.443C38.7263 154.339 38.0437 154.189 37.5461 154.084L35.7064 153.726C33.4617 153.344 32.4551 154.235 31.9923 155.033C31.7377 155.473 31.622 155.924 31.622 156.387C31.622 158.099 33.265 160.043 35.8106 163.04L39.4321 167.553C40.1611 168.582 40.566 169.219 40.8206 169.635C40.4735 169.797 40.1264 169.971 40.1264 169.971L38.0205 170.931C36.204 171.834 35.5791 173.13 35.5791 174.287C35.5791 174.749 35.6833 175.201 35.8453 175.582C37.2453 178.799 44.5926 180.5 49.3828 178.695C50.3778 178.325 51.0721 178.116 51.5927 177.989C51.5233 178.209 51.4423 178.452 51.3729 178.637C50.9795 179.759 50.5282 181.055 50.5282 182.317C50.5282 183.057 50.6902 183.798 51.1183 184.469C51.2456 184.665 51.5117 184.862 51.7084 185.059C48.9546 186.32 44.4884 187.986 40.5082 189.282C39.571 189.583 38.9809 190.451 38.9809 191.388C38.9809 191.608 39.0156 191.827 39.0734 192.036C39.4206 193.193 40.647 193.852 41.8041 193.517C42.4057 193.343 44.1876 193.077 45.2289 193.864C46.1662 194.57 46.3513 196.132 46.3513 197.312C46.3513 206.267 32.7097 209.137 32.5708 209.16C31.46 209.391 30.6964 210.421 30.8005 211.544C30.9047 212.677 31.8534 213.534 32.9874 213.545C34.2485 213.545 37.847 214.031 39.3627 216.045C40.2305 217.213 40.3578 218.902 39.733 221.078C39.3858 222.269 38.4718 225.44 40.5197 227.094C42.7413 228.899 45.8306 227.245 50.1117 224.965C52.9002 223.473 56.7185 221.436 58.5697 221.702C59.3681 221.818 59.6227 222.142 59.7962 222.478C60.6177 224.167 59.6921 228.217 57.6788 231.699C56.6027 233.562 57.3548 234.673 57.8986 235.159C59.4722 236.582 60.8838 235.587 64.6442 232.903C66.8658 231.318 73.4957 226.597 75.4742 226.828C75.509 226.944 75.5552 227.141 75.5552 227.557C75.5552 228.078 75.4742 228.888 75.1965 230.103C75.0924 230.554 75.0461 230.97 75.0461 231.352C75.0461 232.822 75.7404 233.713 76.2148 234.152C78.6561 236.397 83.4232 235.032 91.0019 232.613C93.4432 231.838 96.9491 230.485 99.1128 230.785C99.8302 231.503 98.8351 232.995 97.5739 234.476C91.8234 241.245 93.154 242.668 93.4664 243.305C94.1375 244.67 95.8152 245.538 100.143 245.353C108.67 244.971 124.047 240.424 131.95 224.838L133.211 221.714C152.788 173.592 157.613 139.54 147.558 120.495C143.046 111.956 135.583 106.507 125.366 104.297L125.285 104.273C102.653 99.3907 89.0002 104.123 81.5372 108.959V109.017ZM83.7934 111.493C90.6895 107.027 103.44 102.688 125.019 107.34L125.1 107.363C134.287 109.341 140.697 113.993 144.701 121.583C154.316 139.783 149.329 173.245 129.867 221.055L128.56 224.317C125.505 232.185 113.345 239.324 103.845 241.43C99.7492 242.344 98.0714 241.812 97.7706 241.592C97.7706 241.326 97.9442 240.238 99.9459 237.855C102.353 234.974 103.972 232.556 103.972 230.542C103.972 229.871 103.787 229.246 103.405 228.668C101.473 225.798 96.764 227.303 89.6365 229.582C86.4199 230.612 81.2826 232.243 79.3504 232.116C79.5239 231.364 79.79 230.149 79.79 228.807C79.79 227.106 79.3619 225.278 77.7768 224.213C74.5602 222.061 69.5501 224.908 63.3946 229.2C63.7418 227.87 63.9963 226.516 63.9963 225.243C63.9963 223.97 63.7765 222.663 63.2442 221.575C62.3417 219.724 60.7334 218.59 58.5697 218.278C55.2143 217.792 51.1183 219.978 47.1612 222.096C45.8538 222.802 44.0603 223.75 42.8686 224.213C42.9148 223.97 42.9611 223.739 43.0653 223.38C43.4587 222.026 43.6438 220.754 43.6438 219.574C43.6438 217.549 43.0768 215.778 41.9429 214.263C41.2024 213.279 40.2768 212.527 39.3164 211.937C44.2686 209.6 49.9844 205.342 49.9844 197.867C49.9844 195.125 49.2439 193.031 47.8554 191.538C56.5796 188.252 57.6557 186.54 57.6557 185.244C57.6557 185.059 57.6325 184.885 57.621 184.712C57.5052 183.693 56.7879 182.467 54.3118 182.12C54.4159 181.588 54.6589 180.847 54.844 180.303C55.2143 179.239 55.6308 178.035 55.6308 176.89C55.6308 175.999 55.3763 175.154 54.6473 174.437C53.0043 172.829 50.3894 173.349 46.953 174.634C44.6967 175.478 41.8504 175.062 40.1495 174.449C40.5429 174.263 40.89 174.101 40.89 174.101C42.5099 173.396 44.0256 172.736 44.5 171.035C44.581 170.734 44.6273 170.434 44.6273 170.133C44.6273 168.582 43.5859 166.974 42.0702 164.857L38.1362 159.951C37.7313 159.476 37.2916 158.956 36.8635 158.423C39.4784 158.933 41.9892 159.152 43.2157 157.197C43.5512 156.653 43.7016 156.086 43.7016 155.496C43.7016 153.841 42.533 152.048 41.2834 150.44C41.2834 150.44 40.89 149.965 40.3462 149.329C46.6521 150.613 54.8093 149.896 62.6426 144.689C72.2229 138.325 80.6694 128.733 80.6694 122.532C80.6694 121.513 80.4496 120.588 79.9636 119.789C79.038 118.227 77.5801 117.441 76.504 116.851C77.3371 116.041 79.2462 114.49 83.7934 111.54V111.493Z" fill="black"/>
<path d="M492.892 81.1902C490.89 83.4927 486.713 83.7589 482.675 84.0018C478.649 84.2448 474.483 84.5109 471.706 86.8135C443.035 110.66 431.082 131.059 436.173 147.454C443.868 172.227 487.246 181.275 522.27 184.503L524.329 184.712C525.683 184.989 528.217 187.731 529.05 188.634C529.848 189.502 531.179 190.948 532.833 189.745C533.505 189.247 533.759 188.703 533.759 188.102C533.759 187.211 533.192 186.216 532.567 185.14C532.174 184.445 532.128 184.075 532.128 183.948C532.128 183.902 532.128 183.89 532.128 183.89C532.255 183.497 533.805 182.837 534.546 182.525C535.668 182.05 536.791 181.506 537.716 180.731C537.901 180.882 538.11 181.032 538.11 181.032C538.596 181.46 539.868 182.583 541.372 181.749C542.379 181.194 542.634 180.245 542.634 179.32C542.634 178.776 542.541 178.232 542.472 177.769C541.708 173.164 537.207 170.688 534.233 169.045C534.233 169.045 532.81 168.224 532.706 168.166C533.377 167.853 534.592 167.425 536.987 166.986C539.857 166.465 543.039 167.298 545.364 167.888C547.887 168.536 550.073 169.103 551.323 167.344C551.682 166.835 551.844 166.291 551.844 165.713C551.844 164.255 550.837 162.577 549.553 160.645C544.554 153.112 538.862 150.903 534.696 149.283L531.711 148.021C530.566 147.443 530.508 147.061 530.415 145.372C530.323 143.602 530.195 141.172 527.847 138.811C526.967 137.932 526.18 137.4 525.463 136.995C526.458 136.451 527.951 135.919 528.587 135.699C530.253 135.12 531.966 134.53 531.966 132.76C531.966 132.679 531.966 132.598 531.966 132.517C531.804 130.562 529.767 130.214 528.888 130.076L525.59 130.029C524.873 130.133 524.306 130.203 518.764 126.037C518.463 125.818 518.116 125.667 517.803 125.471C520.222 125.123 522.709 124.695 525.347 124.07C536.872 121.34 543.374 114.293 544.311 110.151C544.392 109.781 544.427 109.457 544.427 109.156C544.427 107.906 543.814 107.201 543.386 106.854C542.969 106.518 541.847 105.847 540.181 106.622C533.481 109.758 528.182 105.697 526.724 104.366C525.428 103.197 525 101.728 524.618 100.432C524.213 99.0551 523.762 97.5046 522.177 96.8451C520.708 96.2319 519.238 96.8682 518.266 97.4005L518.058 97.5162C516.623 98.2914 514.645 99.3559 513.441 99.7609C513.569 99.2633 513.731 98.7311 513.858 98.3724C514.089 97.7013 514.367 96.8914 514.367 96.1162C514.367 95.3872 514.124 94.693 513.372 94.1492C511.775 92.9921 510.063 94.2764 509.137 94.9591C507.83 95.931 506.372 96.1046 505.527 95.9426C505.238 95.8963 505.215 95.8385 505.099 95.769C505.307 95.4798 505.562 95.1558 505.77 94.9128C506.453 94.0913 507.344 93.0268 507.344 91.8004C507.344 91.4417 507.263 91.0714 507.089 90.678C506.279 88.954 504.22 88.9424 503.444 88.9424C500.077 88.9424 498.666 88.7689 498.053 88.5953C498.11 88.2251 498.214 87.5656 498.214 87.5656L498.319 87.0912C498.92 84.4299 499.325 82.6018 499.325 81.3175C499.325 80.0332 498.92 79.2926 497.902 78.772C495.889 77.7538 494.165 79.7439 492.892 81.1902ZM482.733 87.4961C486.598 87.2531 490.832 86.906 494.061 84.858C494.038 84.9506 493.887 85.6333 493.887 85.6333C493.737 86.2812 493.563 87.0796 493.563 87.9242C493.563 88.7689 493.76 89.7177 494.396 90.516C495.576 91.9971 497.74 92.4136 501.57 92.5062C501.015 93.3045 500.54 94.1839 500.54 95.2137C500.54 95.5608 500.598 95.9195 500.714 96.2781C501.2 97.7592 502.403 98.8699 504.081 99.4022C505.666 99.8997 507.506 99.8187 509.241 99.2518C509.23 99.4253 509.172 99.5989 509.172 99.784C509.172 100.258 509.23 100.744 509.392 101.207C509.75 102.295 510.514 103.116 511.509 103.51C513.869 104.447 516.727 102.885 520.708 100.733C520.708 100.733 520.754 100.71 520.8 100.687C520.846 100.814 520.904 100.999 520.904 100.999C521.379 102.607 522.096 105.049 524.364 107.108C528.68 111.007 534.037 112.488 539.243 111.389C537.034 114.027 532.533 117.649 524.942 119.442C518.729 120.912 513.256 121.432 508.408 121.548C505.434 121.051 502.449 120.981 499.638 121.259C495.195 120.796 491.804 119.998 489.895 119.419C487.327 118.644 474.217 114.988 467.819 119.014C465.91 120.218 464.718 122.011 464.371 124.209C463.364 130.654 468.339 134.947 473.778 135.849C479.112 136.752 487.292 132.76 491.596 128.456C492.765 127.287 495.796 126.211 499.51 125.771C502.148 126.037 505.099 126.176 508.42 126.095C511.324 126.662 514.17 127.669 516.542 129.462C519.643 131.788 521.517 133.038 522.987 133.732C522.235 134.287 521.564 134.9 521.159 135.699C520.696 136.613 520.326 137.353 520.326 138.106C520.326 138.464 520.407 138.823 520.615 139.205C521.205 140.339 522.339 140.501 522.767 140.558C523.23 140.628 523.994 140.732 525.347 142.086C526.528 143.266 526.574 144.33 526.655 145.811C526.759 147.697 526.898 150.544 530.461 152.326L533.898 153.784C537.982 155.369 542.61 157.162 546.915 163.665C547.03 163.838 547.088 163.942 547.192 164.104C544.45 163.399 540.829 162.508 537.068 163.179C531.538 164.174 528.969 165.62 528.483 168.004C528.286 168.964 528.332 170.838 530.936 172.562L532.868 173.696C534.488 174.587 536.443 175.721 537.716 177.121C536.976 177.306 536.328 177.665 535.842 178.139C535.448 178.533 534.465 178.949 533.597 179.331C531.919 180.049 529.918 180.986 528.957 182.837C527.939 182.097 526.886 181.495 525.822 181.287L523.265 181.009C474.68 176.543 444.874 164.243 439.321 146.378C438.673 144.284 438.349 142.109 438.349 139.853C438.349 126.084 450.347 109.121 474.148 89.3243C475.849 87.9127 479.355 87.6928 482.733 87.4846V87.4961ZM474.518 131.395C471.371 130.862 468.258 128.618 468.837 124.915C468.976 124.001 469.404 123.365 470.225 122.844C473.65 120.692 482.143 121.803 488.588 123.747C488.97 123.862 489.537 124.001 490.011 124.117C489.432 124.487 488.808 124.834 488.391 125.262C484.723 128.919 477.862 131.962 474.53 131.395H474.518Z" fill="black"/>
<path d="M483.855 188.368C497.416 188.391 508.419 177.422 508.443 163.861C508.454 150.312 497.497 139.309 483.948 139.286C470.387 139.263 459.384 150.231 459.349 163.792C459.349 177.353 470.306 188.345 483.855 188.379V188.368Z" fill="#CA509D"/>
<path d="M465.343 145.221C460.379 150.174 457.637 156.769 457.637 163.78C457.613 170.792 460.344 177.387 465.285 182.363C470.237 187.326 476.832 190.08 483.855 190.092C490.867 190.103 497.474 187.384 502.449 182.432C507.425 177.48 510.155 170.885 510.167 163.873C510.19 149.387 498.423 137.585 483.948 137.562C476.925 137.562 470.318 140.281 465.343 145.233V145.221ZM468.119 179.54C463.919 175.328 461.617 169.728 461.628 163.78C461.628 157.833 463.954 152.245 468.166 148.045C472.389 143.833 477.989 141.519 483.948 141.53C496.224 141.554 506.198 151.574 506.186 163.85C506.186 169.797 503.849 175.386 499.638 179.586C495.426 183.786 489.826 186.1 483.879 186.088C477.92 186.088 472.331 183.751 468.131 179.54H468.119Z" fill="black"/>
<path d="M382.208 53.9879C396.66 54.0111 408.381 42.3249 408.404 27.8849C408.416 13.4449 396.741 1.72397 382.301 1.70083C367.861 1.67769 356.129 13.3639 356.094 27.8039C356.094 42.2439 367.769 53.9648 382.197 53.9995L382.208 53.9879Z" fill="#CA509D"/>
<path d="M354.405 27.7924C354.381 43.1464 366.854 55.6541 382.208 55.6773C397.551 55.7004 410.059 43.2274 410.093 27.8849C410.116 12.5309 397.655 0.0231427 382.301 1.66014e-06C366.959 -0.0231393 354.451 12.4383 354.416 27.7924H354.405ZM382.22 51.7202C369.041 51.697 358.35 40.9596 358.362 27.7924C358.385 14.6251 369.122 3.93397 382.289 3.95711C395.457 3.98026 406.159 14.7061 406.136 27.8733C406.113 41.0406 395.376 51.7317 382.22 51.7202Z" fill="black"/>
<path d="M413.854 75.4744C428.895 75.4976 441.091 63.3369 441.125 48.3069C441.137 33.2768 428.988 21.0815 413.958 21.0468C398.928 21.0236 386.721 33.1842 386.686 48.2143C386.686 63.2444 398.835 75.4397 413.854 75.4744Z" fill="#CA509D"/>
<path d="M393.501 27.8271C388.04 33.2652 385.031 40.5199 385.031 48.2143C385.008 64.1353 397.944 77.1174 413.865 77.1521C429.786 77.1753 442.768 64.2395 442.803 48.3184C442.814 32.3974 429.879 19.4153 413.969 19.3806C406.24 19.369 398.974 22.3658 393.501 27.8271ZM413.877 73.2182C400.119 73.195 388.954 61.9832 388.965 48.2259C388.965 41.5728 391.569 35.3248 396.289 30.6271C401.01 25.9179 407.293 23.3262 413.969 23.3377C427.715 23.3609 438.892 34.5727 438.88 48.33C438.846 62.0758 427.634 73.2529 413.888 73.2297L413.877 73.2182Z" fill="black"/>
<path d="M442.456 121.953C458.967 121.976 472.366 108.624 472.389 92.1128C472.401 75.6132 459.06 62.2146 442.56 62.1914C426.061 62.1683 412.65 75.5207 412.616 92.0202C412.616 108.52 425.957 121.918 442.445 121.953H442.456Z" fill="#CA509D"/>
<path d="M420.264 69.7701C414.305 75.7058 411.03 83.6085 411.019 92.0202C410.996 100.42 414.259 108.323 420.183 114.282C426.118 120.252 434.044 123.55 442.468 123.561C450.879 123.573 458.794 120.31 464.752 114.374C470.711 108.439 474.009 100.525 474.02 92.1128C474.032 74.7339 459.927 60.5832 442.572 60.5716C434.148 60.56 426.234 63.8229 420.275 69.7701H420.264ZM442.479 119.685C435.086 119.674 428.155 116.781 422.936 111.551C417.73 106.321 414.883 99.3906 414.907 92.0318C414.907 84.6614 417.788 77.7307 423.006 72.5239C428.236 67.3172 435.178 64.4477 442.56 64.4593C457.775 64.4824 470.144 76.886 470.133 92.1128C470.121 99.4948 467.228 106.426 462.01 111.632C456.78 116.839 449.85 119.697 442.479 119.685Z" fill="black"/>
<path d="M424.51 142.352C433.489 142.352 440.767 135.097 440.79 126.13C440.79 117.163 433.547 109.874 424.568 109.862C415.589 109.85 408.311 117.117 408.288 126.084C408.288 135.063 415.543 142.34 424.51 142.352Z" fill="#CA509D"/>
<path d="M411.725 113.264C408.3 116.689 406.402 121.236 406.402 126.084C406.402 130.932 408.277 135.491 411.702 138.927C415.127 142.352 419.674 144.238 424.51 144.249C434.496 144.273 442.653 136.15 442.688 126.153C442.688 116.133 434.553 107.988 424.568 107.976C419.72 107.976 415.161 109.85 411.736 113.264H411.725ZM414.641 135.988C412.003 133.339 410.545 129.821 410.556 126.084C410.556 122.347 412.014 118.841 414.652 116.203C417.302 113.565 420.808 112.118 424.545 112.13C432.251 112.13 438.522 118.424 438.522 126.13C438.487 133.836 432.205 140.096 424.51 140.084C420.785 140.084 417.279 138.626 414.641 135.988Z" fill="black"/>
<path d="M367.051 89.3822C383.562 89.4053 396.961 76.053 396.984 59.5419C396.995 43.0423 383.655 29.6437 367.155 29.6206C350.656 29.5974 337.245 42.9498 337.211 59.4493C337.211 75.9488 350.551 89.3475 367.039 89.3822H367.051Z" fill="#CA509D"/>
<path d="M344.859 37.2108C338.911 43.1465 335.625 51.0491 335.614 59.4493C335.591 67.8611 338.854 75.7637 344.789 81.7225C350.736 87.6813 358.639 90.9789 367.062 90.9905C384.418 91.0136 398.581 76.9092 398.615 59.5419C398.627 42.1745 384.522 28.0122 367.167 27.9891C358.743 27.9775 350.817 31.2404 344.859 37.1992V37.2108ZM367.074 87.1144C359.692 87.1144 352.761 84.2102 347.543 78.9803C342.336 73.762 339.478 66.8197 339.502 59.4493C339.502 52.0789 342.383 45.1597 347.601 39.953C352.831 34.7347 359.773 31.8768 367.155 31.8884C382.37 31.9115 394.739 44.3151 394.728 59.5534C394.693 74.7802 382.289 87.1491 367.062 87.1259L367.074 87.1144Z" fill="black"/>
<path d="M415.312 117.533C432.401 117.556 446.263 103.741 446.297 86.6515C446.309 69.5734 432.505 55.712 415.427 55.6888C398.349 55.6657 384.476 69.4809 384.442 86.5589C384.442 103.637 398.245 117.498 415.312 117.533Z" fill="#CA509D"/>
<path d="M382.845 86.5589C382.822 104.482 397.389 119.095 415.323 119.13C424.013 119.141 432.193 115.763 438.348 109.63C444.492 103.498 447.883 95.3409 447.883 86.663C447.906 77.9852 444.539 69.8164 438.418 63.6609C432.286 57.5054 424.117 54.1036 415.427 54.0921C397.505 54.0689 382.891 68.6362 382.856 86.5589H382.845ZM415.323 115.277C399.518 115.242 386.686 102.364 386.709 86.5705C386.744 70.7652 399.622 57.9335 415.416 57.9566C423.064 57.9566 430.272 60.9649 435.676 66.3915C441.079 71.8181 444.041 79.0149 444.018 86.663C444.018 94.3111 441.033 101.496 435.618 106.9C430.191 112.315 422.983 115.288 415.323 115.277Z" fill="black"/>
<path d="M389.625 133.281C407.015 133.304 421.131 119.234 421.166 101.844C421.178 84.4647 407.12 70.3371 389.741 70.314C372.35 70.2908 358.223 84.3606 358.188 101.739C358.188 119.13 372.246 133.234 389.625 133.269V133.281Z" fill="#CA509D"/>
<path d="M356.603 101.739C356.603 119.975 371.402 134.831 389.625 134.866C407.86 134.889 422.728 120.079 422.763 101.844C422.775 83.6084 407.964 68.7519 389.752 68.7288C371.517 68.6941 356.649 83.5043 356.614 101.739H356.603ZM389.625 131.013C373.531 130.978 360.444 117.846 360.456 101.739C360.491 85.6333 373.623 72.547 389.741 72.5702C405.835 72.5933 418.922 85.7258 418.91 101.832C418.875 117.938 405.743 131.024 389.625 131.013Z" fill="black"/>
<path d="M482.27 251.959C499.66 251.982 513.776 237.913 513.811 220.522C513.823 203.143 499.765 189.027 482.386 188.993C464.995 188.97 450.879 203.039 450.833 220.418C450.833 237.809 464.891 251.913 482.27 251.948V251.959Z" fill="#CA509D"/>
<path d="M449.26 220.43C449.237 229.258 452.662 237.566 458.898 243.825C465.135 250.085 473.442 253.544 482.27 253.556C491.099 253.568 499.418 250.143 505.678 243.906C511.926 237.67 515.374 229.374 515.385 220.545C515.397 211.706 511.972 203.398 505.735 197.15C499.499 190.89 491.203 187.442 482.363 187.431C464.14 187.407 449.283 202.206 449.248 220.441L449.26 220.43ZM461.629 241.106C456.121 235.575 453.101 228.24 453.113 220.441C453.147 204.335 466.268 191.249 482.375 191.272C490.185 191.284 497.509 194.338 503.028 199.857C508.536 205.376 511.567 212.724 511.555 220.534C511.555 228.332 508.501 235.656 502.982 241.164C497.451 246.672 490.104 249.703 482.305 249.692C474.495 249.692 467.159 246.625 461.652 241.106H461.629Z" fill="black"/>
<path d="M514.251 222.362C527.222 222.385 537.751 211.891 537.774 198.92C537.785 185.961 527.303 175.432 514.344 175.409C501.373 175.386 490.844 185.88 490.821 198.839C490.821 211.81 501.304 222.327 514.263 222.35L514.251 222.362Z" fill="#CA509D"/>
<path d="M489.062 198.839C489.05 212.747 500.343 224.086 514.251 224.109C528.159 224.132 539.486 212.828 539.509 198.92C539.521 192.198 536.918 185.857 532.162 181.09C527.407 176.311 521.078 173.673 514.332 173.65C500.447 173.627 489.108 184.931 489.062 198.839ZM514.251 220.094C502.565 220.071 493.065 210.537 493.077 198.839C493.112 187.141 502.646 177.63 514.32 177.653C519.99 177.653 525.324 179.887 529.316 183.902C533.308 187.917 535.506 193.239 535.494 198.897C535.471 210.595 525.937 220.106 514.251 220.083V220.094Z" fill="black"/>
<path d="M469.762 219.377C485.984 219.4 499.14 206.279 499.163 190.069C499.175 173.858 486.077 160.703 469.867 160.68C453.656 160.657 440.489 173.777 440.454 189.976C440.454 206.186 453.564 219.342 469.751 219.377H469.762Z" fill="#CA509D"/>
<path d="M447.94 168.085C442.086 173.928 438.846 181.703 438.834 189.976C438.811 198.249 442.028 206.024 447.859 211.891C453.703 217.757 461.478 220.985 469.751 220.997C486.829 221.02 500.748 207.147 500.783 190.069C500.806 172.991 486.933 159.071 469.855 159.037C461.582 159.025 453.795 162.23 447.929 168.073L447.94 168.085ZM450.625 209.137C445.522 204.011 442.711 197.208 442.734 189.988C442.734 182.756 445.569 175.953 450.694 170.85C455.82 165.747 462.623 162.936 469.855 162.947C484.793 162.971 496.918 175.143 496.895 190.069C496.872 204.995 484.7 217.132 469.762 217.109C462.531 217.109 455.727 214.274 450.625 209.148V209.137Z" fill="black"/>
<path d="M427.495 262.141C444.296 262.164 457.937 248.581 457.972 231.78C457.983 214.992 444.411 201.35 427.611 201.315C410.81 201.292 397.169 214.876 397.134 231.676C397.134 248.477 410.706 262.107 427.495 262.141Z" fill="#CA509D"/>
<path d="M395.005 231.676C394.982 240.366 398.361 248.534 404.493 254.69C410.637 260.857 418.806 264.259 427.507 264.27C445.441 264.293 460.078 249.726 460.113 231.78C460.147 213.835 445.569 199.209 427.611 199.186C409.665 199.163 395.04 213.73 395.005 231.676ZM427.507 260.406C419.836 260.394 412.627 257.397 407.224 251.959C401.82 246.533 398.847 239.336 398.87 231.676C398.893 215.859 411.783 203.016 427.599 203.039C443.416 203.062 456.271 215.952 456.248 231.769C456.213 247.586 443.324 260.429 427.518 260.406H427.507Z" fill="black"/>
<path d="M366.067 229.281C381.109 229.304 393.304 217.144 393.328 202.114C393.339 187.083 381.19 174.888 366.172 174.865C351.142 174.842 338.935 187.002 338.9 202.033C338.9 217.063 351.049 229.258 366.067 229.293V229.281Z" fill="#CA509D"/>
<path d="M337.245 202.009C337.222 209.727 340.207 216.982 345.657 222.443C351.107 227.916 358.361 230.936 366.079 230.936C373.785 230.947 381.051 227.95 386.513 222.512C391.974 217.063 394.994 209.819 395.005 202.102C395.028 186.181 382.093 173.199 366.183 173.176C350.262 173.153 337.28 186.088 337.245 202.009ZM348.446 219.666C343.748 214.945 341.168 208.674 341.179 202.021C341.202 188.264 352.426 177.087 366.172 177.11C379.917 177.133 391.083 188.345 391.06 202.102C391.06 208.767 388.445 215.026 383.724 219.735C379.003 224.445 372.732 227.025 366.079 227.013C359.414 227.013 353.143 224.398 348.446 219.678V219.666Z" fill="black"/>
<path d="M412.095 230.878C429.196 230.901 443.069 217.074 443.104 199.973C443.116 182.883 429.3 169.01 412.211 168.976C395.121 168.952 381.237 182.779 381.19 199.869C381.19 216.959 395.005 230.832 412.095 230.866V230.878Z" fill="#CA509D"/>
<path d="M379.605 199.869C379.582 208.558 382.961 216.727 389.093 222.883C395.237 229.05 403.406 232.451 412.107 232.463C430.041 232.486 444.678 217.919 444.712 199.973C444.747 182.027 430.168 167.402 412.211 167.379C394.265 167.356 379.64 181.923 379.605 199.869ZM412.107 228.598C404.435 228.587 397.227 225.59 391.824 220.152C386.42 214.725 383.447 207.529 383.47 199.869C383.493 184.052 396.382 171.209 412.199 171.232C428.016 171.255 440.871 184.145 440.848 199.961C440.813 215.778 427.924 228.622 412.118 228.598H412.107Z" fill="black"/>
<path d="M431.788 185.012C447.709 185.036 460.622 172.158 460.656 156.237C460.668 140.327 447.802 127.403 431.892 127.38C415.983 127.357 403.047 140.235 403.012 156.144C403.012 172.053 415.879 184.978 431.776 185.001L431.788 185.012Z" fill="#CA509D"/>
<path d="M401.381 156.144C401.369 172.933 414.999 186.621 431.777 186.644C439.922 186.655 447.57 183.497 453.344 177.758C459.095 172.019 462.277 164.382 462.288 156.248C462.311 148.114 459.153 140.454 453.414 134.692C447.675 128.93 440.026 125.748 431.892 125.737C415.115 125.714 401.427 139.355 401.381 156.144ZM431.788 182.745C417.163 182.721 405.269 170.792 405.28 156.156C405.315 141.519 417.256 129.624 431.892 129.648C438.985 129.659 445.638 132.436 450.648 137.458C455.647 142.479 458.4 149.155 458.389 156.237C458.389 163.329 455.612 169.982 450.59 174.992C445.557 180.002 438.893 182.756 431.788 182.745Z" fill="black"/>
<path d="M396.752 185.429C412.674 185.452 425.598 172.574 425.621 156.665C425.632 140.755 412.766 127.831 396.857 127.808C380.947 127.785 368.011 140.663 367.977 156.572C367.977 172.482 380.843 185.406 396.741 185.44L396.752 185.429Z" fill="#CA509D"/>
<path d="M366.357 156.572C366.345 164.706 369.493 172.354 375.243 178.116C380.982 183.878 388.63 187.06 396.764 187.072C404.898 187.072 412.558 183.925 418.32 178.186C424.082 172.447 427.264 164.799 427.276 156.665C427.299 139.876 413.657 126.188 396.868 126.165C380.08 126.13 366.403 139.772 366.368 156.572H366.357ZM377.997 175.363C372.998 170.341 370.245 163.665 370.256 156.584C370.291 141.935 382.22 130.052 396.845 130.076C411.482 130.099 423.376 142.028 423.365 156.665C423.353 163.757 420.576 170.422 415.555 175.42C410.522 180.43 403.857 183.184 396.764 183.173C389.671 183.173 383.018 180.396 378.008 175.374L377.997 175.363Z" fill="black"/>
<path d="M349.996 38.5645C375.162 56.0244 390.4 86.1771 390.354 119.153C390.261 174.553 345.275 219.377 289.887 219.296C234.476 219.215 189.652 174.229 189.745 118.818C189.791 89.6714 203.178 64.413 222.154 45.1597C228.309 38.9 253.232 21.5906 278.143 19.369C303.043 17.1475 323.083 19.8781 349.996 38.5645Z" fill="#ED1C2E"/>
<path d="M274.013 18.3046C245.908 22.6898 228.193 37.5926 221.494 43.806C208.2 56.1401 189.224 80.9357 186.644 118.818C184.781 146.159 198.064 172.505 217.41 191.908C236.756 211.312 262.222 222.813 289.61 221.957C345.322 220.233 393.027 176.473 393.119 119.917C393.119 119.87 393.073 119.639 393.073 119.593C392.275 82.1159 377.8 56.8691 352.125 36.9331C326.173 17.4137 297.327 14.0582 274.013 18.3046ZM290.235 216.808C264.039 216.773 239.44 206.522 220.95 187.986C202.461 169.439 192.765 144.585 192.811 118.389C192.857 85.4019 209.391 61.3006 224.236 47.0226C230.184 41.2952 250.166 25.2469 278.213 21.66C301.354 18.698 327.26 23.9047 349.047 40.2076C373.75 57.355 388.48 86.7904 388.433 118.933C388.341 172.991 344.28 216.901 290.235 216.82V216.808Z" fill="black"/>
<path d="M114.108 197.208C124.128 197.219 132.262 189.12 132.286 179.1C132.286 169.08 124.198 160.946 114.178 160.934C104.158 160.923 96.012 169.022 96.0005 179.042C96.0005 189.062 104.1 197.196 114.108 197.219V197.208Z" fill="#D5E6A0"/>
<path d="M100.027 164.903C96.2434 168.675 94.1491 173.696 94.1491 179.042C94.1491 184.376 96.2087 189.409 99.9807 193.193C103.753 196.976 108.763 199.059 114.108 199.071C125.135 199.094 134.125 190.138 134.148 179.111C134.16 168.085 125.204 159.094 114.178 159.071C108.832 159.071 103.822 161.131 100.039 164.903H100.027ZM102.896 190.277C99.8997 187.269 98.2567 183.288 98.2682 179.042C98.2682 174.796 99.9344 170.804 102.931 167.807C105.928 164.822 109.92 163.179 114.155 163.179C122.913 163.202 130.018 170.329 130.006 179.088C129.995 187.847 122.856 194.951 114.097 194.928C109.862 194.928 105.882 193.262 102.885 190.265L102.896 190.277Z" fill="black"/>
<path d="M209.403 288.001C218.833 288.013 226.492 280.388 226.504 270.958C226.504 261.528 218.891 253.88 209.461 253.857C200.031 253.845 192.371 261.47 192.348 270.9C192.348 280.33 199.973 287.978 209.391 288.001H209.403Z" fill="#D5E6A0"/>
<path d="M190.474 269.373C190.474 274.429 192.429 279.196 196.004 282.783C199.58 286.37 204.335 288.349 209.403 288.36C219.828 288.383 228.344 279.902 228.39 269.454C228.39 258.994 219.897 250.478 209.461 250.455C199.013 250.455 190.485 258.936 190.474 269.373ZM198.943 280.365C196.143 277.565 194.616 273.839 194.616 269.882C194.627 261.713 201.292 255.083 209.461 255.095C217.618 255.106 224.259 261.771 224.259 269.94C224.225 278.109 217.572 284.739 209.415 284.715C205.457 284.715 201.743 283.165 198.943 280.365Z" fill="black"/>
<path d="M225.764 210.144C239.914 210.167 251.404 198.723 251.427 184.573C251.439 170.434 240.007 158.944 225.868 158.921C211.717 158.898 200.228 170.341 200.193 184.492C200.193 198.642 211.624 210.12 225.764 210.144Z" fill="#D5E6A0"/>
<path d="M206.534 165.18C201.362 170.329 198.515 177.191 198.504 184.48C198.492 191.77 201.315 198.631 206.464 203.803C211.613 208.975 218.463 211.821 225.764 211.833C240.817 211.856 253.105 199.626 253.151 184.561C253.151 169.496 240.921 157.22 225.868 157.197C218.567 157.185 211.706 160.008 206.534 165.169V165.18ZM225.764 207.876C219.527 207.876 213.661 205.423 209.264 201.003C204.867 196.594 202.449 190.728 202.472 184.492C202.472 178.255 204.914 172.389 209.334 167.992C213.754 163.584 219.62 161.166 225.856 161.177C238.723 161.2 249.182 171.683 249.171 184.561C249.136 197.427 238.63 207.887 225.764 207.864V207.876Z" fill="black"/>
<path d="M247.956 238.133C258.566 238.144 267.186 229.57 267.198 218.96C267.198 208.35 258.635 199.742 248.025 199.718C237.415 199.707 228.795 208.281 228.772 218.891C228.772 229.501 237.346 238.109 247.944 238.133H247.956Z" fill="#D5E6A0"/>
<path d="M226.944 218.891C226.921 230.484 236.351 239.938 247.944 239.972C253.568 239.984 258.855 237.809 262.836 233.84C266.816 229.871 269.003 224.595 269.014 218.96C269.026 213.349 266.862 208.072 262.893 204.081C258.925 200.089 253.637 197.89 248.014 197.879C236.42 197.856 226.967 207.286 226.944 218.891ZM247.956 235.865C238.619 235.842 231.028 228.24 231.04 218.891C231.063 209.542 238.665 201.952 248.002 201.975C252.538 201.975 256.796 203.757 259.989 206.962C263.183 210.167 264.93 214.413 264.907 218.937C264.907 223.473 263.136 227.731 259.931 230.924C256.726 234.118 252.468 235.876 247.944 235.865H247.956Z" fill="black"/>
<path d="M211.902 223.38C224.988 223.403 235.61 212.816 235.633 199.73C235.645 186.655 225.069 176.022 211.983 176.011C198.897 175.987 188.275 186.574 188.24 199.661C188.24 212.747 198.816 223.369 211.891 223.392L211.902 223.38Z" fill="#D5E6A0"/>
<path d="M195.009 182.189C190.196 186.991 187.546 193.366 187.535 200.158C187.512 214.182 198.897 225.613 212.92 225.636C219.712 225.636 226.099 223.01 230.913 218.208C235.726 213.418 238.376 207.031 238.387 200.251C238.399 186.216 227.013 174.796 213.013 174.772C206.221 174.761 199.823 177.399 195.009 182.189ZM212.932 221.621C201.119 221.598 191.527 211.972 191.538 200.158C191.538 194.431 193.783 189.062 197.832 185.024C201.894 180.974 207.274 178.753 213.001 178.764C224.803 178.787 234.395 188.414 234.384 200.228C234.384 205.943 232.139 211.312 228.089 215.362C224.04 219.4 218.648 221.621 212.932 221.61V221.621Z" fill="black"/>
<path d="M217.745 257.328C228.656 257.34 237.508 248.523 237.519 237.612C237.519 226.712 228.714 217.861 217.815 217.838C206.915 217.826 198.052 226.643 198.029 237.542C198.029 248.442 206.846 257.293 217.734 257.316L217.745 257.328Z" fill="#D5E6A0"/>
<path d="M196.213 237.554C196.201 243.305 198.423 248.72 202.495 252.804C206.568 256.888 211.983 259.145 217.757 259.156C223.519 259.156 228.934 256.923 233.007 252.862C237.08 248.789 239.336 243.386 239.336 237.635C239.347 231.873 237.114 226.446 233.053 222.374C228.992 218.301 223.577 216.044 217.826 216.044C205.932 216.044 196.247 225.694 196.224 237.577L196.213 237.554ZM205.388 249.923C202.09 246.614 200.285 242.229 200.297 237.566C200.32 227.927 208.177 220.094 217.815 220.117C222.478 220.117 226.863 221.945 230.149 225.255C233.447 228.564 235.252 232.949 235.24 237.623C235.24 242.286 233.412 246.672 230.114 249.969C226.805 253.267 222.42 255.072 217.757 255.072C213.082 255.072 208.686 253.244 205.388 249.923Z" fill="black"/>
<path d="M180.384 276.269C192.475 276.281 202.287 266.503 202.31 254.424C202.31 242.344 192.556 232.532 180.477 232.509C168.397 232.486 158.574 242.275 158.55 254.354C158.55 266.434 168.316 276.246 180.396 276.269H180.384Z" fill="#D5E6A0"/>
<path d="M164.741 237.126C160.263 241.592 157.798 247.516 157.787 253.834C157.764 266.874 168.351 277.507 181.402 277.53C187.731 277.53 193.679 275.089 198.156 270.623C202.634 266.168 205.099 260.221 205.099 253.915C205.11 240.863 194.523 230.241 181.483 230.218C175.166 230.218 169.219 232.66 164.741 237.126ZM181.402 273.492C170.595 273.469 161.802 264.652 161.825 253.845C161.825 248.615 163.873 243.686 167.587 239.995C171.301 236.293 176.23 234.268 181.472 234.268C192.279 234.291 201.061 243.108 201.049 253.915C201.049 259.156 199.001 264.074 195.287 267.765C191.573 271.467 186.644 273.504 181.391 273.492H181.402Z" fill="black"/>
<path d="M138.036 268.852C151.007 268.875 161.536 258.381 161.559 245.41C161.57 232.451 151.088 221.922 138.129 221.899C125.158 221.876 114.629 232.37 114.594 245.341C114.594 258.312 125.077 268.829 138.036 268.864V268.852Z" fill="#D5E6A0"/>
<path d="M112.847 245.329C112.836 259.249 124.14 270.576 138.048 270.599C144.782 270.599 151.122 267.996 155.889 263.241C160.656 258.485 163.295 252.156 163.306 245.422C163.318 231.514 152.025 220.187 138.129 220.152C124.221 220.129 112.882 231.433 112.847 245.341V245.329ZM116.862 245.329C116.885 233.632 126.431 224.132 138.129 224.155C149.815 224.179 159.314 233.701 159.291 245.399C159.291 251.068 157.07 256.391 153.055 260.383C149.04 264.386 143.717 266.584 138.048 266.573C126.35 266.561 116.839 257.027 116.851 245.329H116.862Z" fill="black"/>
<path d="M178.915 251.971C194.546 251.994 207.216 239.359 207.251 223.727C207.262 208.107 194.639 195.426 179.019 195.403C163.399 195.38 150.706 208.015 150.683 223.635C150.683 239.255 163.306 251.936 178.915 251.959V251.971Z" fill="#D5E6A0"/>
<path d="M157.822 202.507C152.164 208.153 149.04 215.663 149.04 223.646C149.017 231.642 152.117 239.162 157.764 244.82C163.41 250.478 170.919 253.614 178.915 253.625C186.921 253.637 194.442 250.536 200.112 244.89C205.77 239.243 208.894 231.734 208.905 223.75C208.929 207.251 195.518 193.806 179.019 193.771C171.024 193.76 163.491 196.861 157.833 202.519L157.822 202.507ZM160.529 242.067C155.623 237.149 152.939 230.612 152.95 223.658C152.95 216.716 155.658 210.19 160.587 205.284C165.516 200.366 172.053 197.671 178.996 197.682C193.332 197.705 204.983 209.403 204.971 223.739C204.971 230.681 202.252 237.207 197.335 242.113C192.406 247.019 185.869 249.726 178.915 249.703C171.961 249.703 165.435 246.984 160.541 242.055L160.529 242.067Z" fill="black"/>
<path d="M139.702 233.134C156.213 233.157 169.612 219.805 169.647 203.294C169.658 186.794 156.317 173.396 139.818 173.361C123.318 173.338 109.908 186.69 109.873 203.19C109.873 219.689 123.214 233.088 139.714 233.123L139.702 233.134Z" fill="#D5E6A0"/>
<path d="M108.254 203.201C108.242 211.613 111.505 219.527 117.441 225.486C123.376 231.445 131.291 234.731 139.702 234.742C148.102 234.754 156.017 231.503 161.976 225.567C167.934 219.631 171.232 211.717 171.243 203.305C171.278 185.938 157.162 171.787 139.795 171.753C122.428 171.729 108.277 185.834 108.242 203.201H108.254ZM120.194 222.744C114.988 217.525 112.13 210.583 112.13 203.201C112.153 187.974 124.568 175.606 139.795 175.629C147.177 175.64 154.108 178.533 159.314 183.751C164.521 188.969 167.379 195.912 167.367 203.294C167.356 210.676 164.463 217.606 159.233 222.825C154.015 228.02 147.073 230.878 139.702 230.866C132.32 230.866 125.39 227.974 120.183 222.755L120.194 222.744Z" fill="black"/>
<path d="M133.061 146.217C145.441 146.228 155.496 136.22 155.519 123.839C155.519 111.459 145.522 101.416 133.153 101.392C120.773 101.369 110.718 111.389 110.695 123.77C110.695 136.15 120.703 146.193 133.072 146.217H133.061Z" fill="#D5E6A0"/>
<path d="M116.017 106.68C111.447 111.239 108.925 117.313 108.913 123.758C108.901 130.203 111.389 136.277 115.948 140.848C120.507 145.43 126.593 147.964 133.061 147.975C146.378 147.998 157.231 137.168 157.278 123.839C157.301 110.51 146.471 99.6452 133.13 99.6221C126.674 99.6221 120.588 102.121 116.017 106.68ZM133.072 143.949C127.68 143.937 122.613 141.82 118.806 138.001C115.011 134.195 112.928 129.138 112.951 123.77C112.951 118.389 115.057 113.345 118.864 109.538C122.682 105.731 127.738 103.649 133.13 103.649C144.238 103.672 153.263 112.72 153.251 123.828C153.217 134.935 144.168 143.96 133.084 143.949H133.072Z" fill="black"/>
<path d="M144.041 178.128C159.21 178.151 171.521 165.886 171.544 150.717C171.556 135.56 159.303 123.249 144.145 123.226C128.988 123.203 116.665 135.468 116.631 150.636C116.631 165.794 128.884 178.105 144.041 178.14V178.128Z" fill="#D5E6A0"/>
<path d="M123.538 130.053C118.031 135.548 114.988 142.849 114.976 150.625C114.965 158.4 117.973 165.724 123.469 171.232C128.965 176.739 136.277 179.783 144.053 179.794C151.828 179.794 159.152 176.786 164.66 171.29C170.156 165.805 173.199 158.493 173.199 150.717C173.222 142.954 170.202 135.641 164.718 130.122C159.222 124.603 151.909 121.56 144.134 121.548C136.358 121.548 129.046 124.557 123.527 130.053H123.538ZM144.064 175.86C137.33 175.86 131.013 173.222 126.257 168.455C121.513 163.688 118.898 157.359 118.91 150.625C118.91 143.902 121.548 137.573 126.315 132.829C131.082 128.074 137.411 125.471 144.134 125.482C150.868 125.482 157.185 128.132 161.941 132.899C166.685 137.666 169.288 143.995 169.276 150.717C169.276 157.44 166.65 163.757 161.883 168.513C157.116 173.268 150.787 175.883 144.053 175.872L144.064 175.86Z" fill="black"/>
<path d="M170.653 130.469C184.943 130.492 196.537 118.933 196.56 104.644C196.571 90.3656 185.024 78.772 170.746 78.7488C156.456 78.7257 144.863 90.2846 144.828 104.574C144.828 118.864 156.375 130.446 170.653 130.481V130.469Z" fill="#D5E6A0"/>
<path d="M151.238 85.1011C146.031 90.2963 143.162 97.2154 143.162 104.563C143.139 111.922 145.997 118.841 151.192 124.059C156.387 129.277 163.306 132.158 170.665 132.17C178.024 132.182 184.966 129.335 190.173 124.128C195.391 118.922 198.272 112.014 198.272 104.644C198.284 89.4401 185.938 77.0596 170.746 77.0365C163.376 77.0249 156.456 79.8828 151.238 85.0895V85.1011ZM153.992 121.259C149.537 116.793 147.107 110.869 147.119 104.563C147.119 98.2684 149.584 92.3443 154.038 87.9012C158.504 83.4465 164.44 80.9936 170.734 81.0052C183.74 81.0283 194.315 91.6269 194.303 104.644C194.303 110.95 191.827 116.874 187.361 121.317C182.895 125.771 176.959 128.213 170.653 128.201C164.359 128.201 158.435 125.725 153.992 121.259Z" fill="black"/>
<path d="M188.113 170.11C203.676 170.133 216.311 157.544 216.334 141.982C216.345 126.431 203.768 113.796 188.217 113.773C172.655 113.75 160.02 126.338 159.985 141.901C159.985 157.463 172.562 170.086 188.113 170.121V170.11Z" fill="#D5E6A0"/>
<path d="M158.342 141.889C158.319 149.85 161.397 157.336 167.02 162.982C172.643 168.629 180.141 171.753 188.113 171.764C204.555 171.787 217.954 158.435 218 141.982C218 125.54 204.647 112.13 188.217 112.107C171.776 112.083 158.377 125.436 158.342 141.889ZM169.797 160.217C164.914 155.311 162.242 148.808 162.253 141.901C162.276 127.611 173.916 116.006 188.206 116.029C202.484 116.052 214.089 127.692 214.077 141.982C214.043 156.26 202.403 167.876 188.125 167.842C181.194 167.83 174.68 165.123 169.797 160.217Z" fill="black"/>
<path d="M181.842 202.276C198.353 202.299 211.752 188.946 211.786 172.435C211.798 155.936 198.457 142.537 181.958 142.502C165.458 142.479 152.048 155.832 152.013 172.331C152.013 188.831 165.354 202.229 181.842 202.264V202.276Z" fill="#D5E6A0"/>
<path d="M159.661 150.081C153.703 156.017 150.416 163.919 150.405 172.343C150.393 180.754 153.656 188.669 159.592 194.627C165.528 200.586 173.43 203.872 181.854 203.895C199.209 203.919 213.36 189.814 213.406 172.447C213.441 155.079 199.337 140.929 181.958 140.894C173.534 140.882 165.62 144.145 159.661 150.093V150.081ZM162.346 191.885C157.139 186.667 154.281 179.725 154.293 172.343C154.293 164.961 157.185 158.03 162.404 152.835C167.622 147.628 174.564 144.759 181.946 144.77C197.184 144.805 209.553 157.208 209.519 172.435C209.484 187.662 197.069 200.031 181.854 200.008C174.472 200.008 167.541 197.115 162.334 191.885H162.346Z" fill="black"/>
<path d="M330.859 238.642C339.675 238.642 346.826 231.526 346.838 222.709C346.838 213.904 339.722 206.742 330.917 206.73C322.1 206.719 314.949 213.846 314.926 222.663C314.926 231.479 322.054 238.63 330.859 238.642Z" fill="#FDB927"/>
<path d="M313.04 222.663C313.04 232.509 321.047 240.516 330.87 240.528C340.693 240.551 348.712 232.567 348.735 222.721C348.735 217.954 346.895 213.464 343.528 210.086C340.161 206.707 335.683 204.844 330.905 204.844C321.07 204.844 313.051 212.828 313.028 222.663H313.04ZM317.194 222.663C317.194 215.119 323.361 208.986 330.905 208.998C334.572 208.998 338.009 210.433 340.589 213.025C343.169 215.616 344.581 219.053 344.581 222.721C344.558 230.276 338.414 236.409 330.882 236.385C323.338 236.385 317.194 230.218 317.194 222.663Z" fill="black"/>
<path d="M299.988 238.78C309.476 238.78 317.182 231.109 317.194 221.621C317.194 212.134 309.534 204.428 300.046 204.416C290.558 204.404 282.852 212.087 282.829 221.575C282.829 231.063 290.5 238.769 299.988 238.78Z" fill="#FDB927"/>
<path d="M286.567 208.119C282.968 211.717 280.99 216.496 280.99 221.575C280.978 226.655 282.945 231.445 286.543 235.043C290.13 238.653 294.909 240.643 300 240.643C310.506 240.643 319.057 232.127 319.068 221.633C319.08 216.554 317.113 211.763 313.514 208.165C309.927 204.555 305.137 202.565 300.046 202.553C294.955 202.553 290.165 204.52 286.567 208.13V208.119ZM289.459 232.127C286.648 229.304 285.097 225.555 285.109 221.575C285.109 217.583 286.659 213.846 289.482 211.034C292.306 208.223 296.054 206.672 300.046 206.672C304.038 206.672 307.787 208.246 310.599 211.069C313.41 213.892 314.949 217.641 314.937 221.621C314.937 229.848 308.227 236.524 299.988 236.524C296.008 236.524 292.259 234.962 289.448 232.139L289.459 232.127Z" fill="black"/>
<path d="M278.398 246.336C287.214 246.348 294.365 239.22 294.388 230.403C294.388 221.598 287.272 214.436 278.467 214.425C269.65 214.413 262.5 221.54 262.477 230.357C262.477 239.174 269.604 246.324 278.409 246.336H278.398Z" fill="#FDB927"/>
<path d="M260.579 230.357C260.568 240.204 268.563 248.222 278.398 248.234C283.165 248.245 287.654 246.394 291.033 243.038C294.412 239.671 296.274 235.194 296.286 230.427C296.286 220.58 288.302 212.562 278.467 212.55C268.632 212.539 260.614 220.522 260.591 230.369L260.579 230.357ZM264.722 230.357C264.733 222.813 270.889 216.669 278.433 216.692C285.988 216.692 292.121 222.859 292.109 230.415C292.109 234.071 290.674 237.508 288.082 240.088C285.491 242.668 282.054 244.091 278.386 244.08C270.842 244.08 264.698 237.913 264.71 230.357H264.722Z" fill="black"/>
<path d="M236.304 285.861C245.457 285.861 252.896 278.988 252.92 269.836C252.92 260.684 245.526 253.244 236.374 253.244C227.221 253.232 219.805 260.626 219.782 269.778C219.758 278.93 227.164 285.838 236.304 285.849V285.861Z" fill="#FDB927"/>
<path d="M217.907 267.753C217.907 272.682 219.805 277.31 223.287 280.805C226.77 284.299 231.398 286.22 236.327 286.231C246.486 286.243 254.782 277.981 254.806 267.811C254.806 257.629 246.544 249.344 236.385 249.333C226.215 249.321 217.93 257.583 217.919 267.753H217.907ZM226.215 277.877C223.519 275.17 222.038 271.571 222.038 267.753C222.038 259.862 228.483 253.452 236.362 253.463C244.242 253.463 250.652 259.897 250.652 267.799C250.629 275.679 244.207 282.077 236.327 282.077H236.304C232.486 282.077 228.899 280.573 226.192 277.866L226.215 277.877Z" fill="black"/>
<path d="M237.242 256.773C243.686 256.773 248.916 251.577 248.928 245.133C248.928 238.7 243.733 233.47 237.288 233.458C230.843 233.458 225.613 238.653 225.602 245.098C225.602 251.543 230.808 256.761 237.242 256.773Z" fill="#FDB927"/>
<path d="M227.129 234.441C224.549 237.01 223.137 240.435 223.137 244.08C223.137 247.713 224.537 251.149 227.117 253.73C229.686 256.31 233.111 257.733 236.756 257.733C240.4 257.733 243.825 256.333 246.405 253.753C248.986 251.172 250.409 247.759 250.409 244.114C250.409 240.481 249.009 237.068 246.44 234.476C243.871 231.896 240.435 230.461 236.79 230.461C233.146 230.461 229.721 231.873 227.14 234.453L227.129 234.441ZM230.103 250.733C228.332 248.962 227.36 246.591 227.36 244.08C227.36 241.569 228.344 239.22 230.114 237.438C231.896 235.668 234.256 234.684 236.767 234.696C239.29 234.696 241.65 235.68 243.432 237.473C245.202 239.255 246.174 241.615 246.162 244.114C246.162 246.625 245.179 248.986 243.409 250.756C241.627 252.526 239.266 253.51 236.756 253.498C234.245 253.498 231.884 252.515 230.114 250.733H230.103Z" fill="black"/>
<path d="M260.313 268.494C270.148 268.505 278.12 260.556 278.143 250.721C278.143 240.898 270.206 232.914 260.383 232.903C250.559 232.891 242.576 240.84 242.553 250.663C242.553 260.487 250.501 268.47 260.313 268.482V268.494Z" fill="#FDB927"/>
<path d="M246.463 236.802C242.749 240.505 240.701 245.434 240.701 250.687C240.678 261.517 249.483 270.345 260.313 270.368C265.566 270.368 270.507 268.332 274.221 264.617C277.935 260.915 279.972 255.986 279.972 250.733C279.983 245.503 277.958 240.574 274.256 236.848C270.553 233.123 265.613 231.063 260.371 231.063C255.107 231.063 250.166 233.088 246.452 236.802H246.463ZM244.82 250.687C244.82 246.544 246.44 242.645 249.379 239.718C252.318 236.779 256.229 235.171 260.394 235.182C264.536 235.182 268.436 236.814 271.375 239.752C274.29 242.68 275.887 246.556 275.887 250.675V250.721C275.887 254.875 274.267 258.774 271.34 261.702C268.401 264.629 264.513 266.237 260.36 266.237H260.348C251.774 266.226 244.82 259.237 244.832 250.675L244.82 250.687Z" fill="black"/>
<path d="M294.782 275.355C305.288 275.366 313.815 266.874 313.838 256.368C313.838 245.862 305.357 237.334 294.851 237.323C284.345 237.311 275.806 245.804 275.783 256.31C275.783 266.816 284.276 275.343 294.77 275.366L294.782 275.355Z" fill="#FDB927"/>
<path d="M273.966 255.789C273.966 267.29 283.304 276.662 294.793 276.674C306.271 276.697 315.655 267.36 315.69 255.87C315.69 244.369 306.352 234.997 294.874 234.974C283.362 234.974 273.99 244.3 273.966 255.789ZM278.051 255.789C278.062 246.556 285.606 239.047 294.863 239.047C304.096 239.058 311.605 246.602 311.605 255.847C311.571 265.08 304.038 272.59 294.805 272.566C285.56 272.566 278.051 265.022 278.062 255.778L278.051 255.789Z" fill="black"/>
<path d="M324.309 264.652C335.498 264.664 344.581 255.616 344.604 244.427C344.604 233.25 335.568 224.167 324.39 224.144C313.202 224.132 304.119 233.18 304.096 244.357C304.096 255.546 313.132 264.617 324.309 264.641V264.652Z" fill="#FDB927"/>
<path d="M308.782 228.784C304.605 232.937 302.303 238.48 302.303 244.369C302.291 256.53 312.172 266.434 324.321 266.457C330.211 266.469 335.753 264.189 339.918 260.024C344.095 255.859 346.398 250.328 346.409 244.438C346.432 232.289 336.551 222.374 324.391 222.35C318.49 222.35 312.959 224.63 308.782 228.784ZM324.333 262.396C314.417 262.373 306.352 254.297 306.364 244.381C306.364 239.579 308.25 235.055 311.652 231.665C315.053 228.274 319.577 226.412 324.379 226.412C334.307 226.435 342.36 234.523 342.348 244.438C342.348 249.252 340.462 253.764 337.049 257.154C333.647 260.545 329.123 262.407 324.321 262.407L324.333 262.396Z" fill="black"/>
<path d="M331.275 47.4854C336.389 45.6341 339.722 41.8737 338.726 39.1083C337.72 36.3314 332.756 35.5909 327.63 37.4537C322.505 39.3166 319.161 43.0654 320.179 45.8308C321.162 48.6077 326.149 49.3482 331.275 47.4854Z" fill="#FDB927"/>
<path d="M327.087 35.8685C323.257 37.257 320.249 39.6405 319.034 42.2323C318.409 43.5861 318.305 44.9398 318.756 46.1547C319.172 47.3465 320.11 48.3184 321.452 48.9548C324.009 50.1697 327.954 50.0655 331.738 48.6887C337.708 46.525 341.376 42.0125 340.069 38.4141C339.629 37.1991 338.68 36.2272 337.327 35.5908C334.735 34.3759 330.905 34.4801 327.087 35.8685ZM322.725 46.2704C322.1 45.9696 321.706 45.5993 321.533 45.1365C321.359 44.6621 321.429 44.1067 321.718 43.4704C322.574 41.6307 325.073 39.7331 328.093 38.6455C331.102 37.5578 334.226 37.4074 336.077 38.2636C336.713 38.5645 337.13 38.9463 337.292 39.4091C337.35 39.5711 337.373 39.7562 337.373 39.9414C337.373 41.7116 334.793 44.4191 330.72 45.9002C327.7 46.9994 324.553 47.1498 322.713 46.2704H322.725Z" fill="black"/>
<path d="M325.768 50.3664C324.044 50.3664 322.47 50.0656 321.209 49.4755C319.716 48.7697 318.686 47.6936 318.212 46.3514C317.714 45.0093 317.819 43.5051 318.513 42.0009C319.786 39.2703 322.921 36.7826 326.89 35.3363C330.847 33.9016 334.85 33.809 337.581 35.0818C339.074 35.776 340.127 36.8636 340.624 38.2289C342.036 42.1282 338.217 46.9647 331.946 49.2441C329.863 49.9961 327.723 50.378 325.779 50.378L325.768 50.3664ZM333.057 35.3247C331.264 35.3247 329.285 35.6834 327.295 36.4124C323.604 37.7546 320.711 40.0224 319.566 42.4753C318.999 43.6902 318.906 44.8936 319.3 45.9465C319.67 46.9994 320.503 47.8556 321.706 48.4226C324.125 49.568 327.897 49.4639 331.541 48.1333C337.211 46.0737 340.717 41.8852 339.525 38.5992C339.143 37.5347 338.298 36.6669 337.083 36.1C335.95 35.5677 334.573 35.3132 333.045 35.3132L333.057 35.3247ZM325.744 47.4159C324.483 47.4159 323.349 47.2077 322.481 46.8027C321.718 46.4324 321.22 45.9465 321 45.3448C320.769 44.7316 320.838 44.0142 321.209 43.239C322.123 41.2604 324.749 39.2471 327.908 38.1132C331.044 36.9793 334.353 36.8289 336.331 37.7546C337.118 38.1248 337.627 38.6108 337.847 39.224C337.928 39.467 337.963 39.71 337.963 39.9529C337.963 42.1976 334.943 44.9977 330.928 46.4556C329.158 47.0919 327.341 47.4159 325.744 47.4159ZM322.967 45.7498C324.68 46.5597 327.642 46.3977 330.523 45.3564C334.619 43.8753 336.794 41.2604 336.794 39.9414C336.794 39.8257 336.771 39.6984 336.736 39.5943C336.621 39.2934 336.32 39.0157 335.822 38.7843C334.11 37.986 331.148 38.1364 328.29 39.1777C325.409 40.2191 323.037 42.0009 322.239 43.7018C322.007 44.1878 321.949 44.6043 322.065 44.9283C322.181 45.2407 322.47 45.5068 322.956 45.7382L322.967 45.7498Z" fill="black"/>
<path d="M338.715 37.6389C337.986 37.8124 337.755 38.3678 337.593 39.1083V39.0852C337.593 39.0852 337.593 39.1315 337.593 39.1431C337.535 39.4207 337.454 39.629 337.396 39.9993C336.956 42.8456 333.312 45.7845 329.1 46.6755C323.268 47.9366 321.163 45.0324 321.139 44.9977C321.139 44.9862 321.105 44.9977 321.093 44.9746C320.7 44.4539 320.225 44.3151 319.334 44.4076C317.9 44.5465 319.161 47.2424 319.161 47.2424C319.439 47.8094 319.438 48.7813 319.438 49.9615C319.438 53.4789 318.536 59.6344 316.835 63.7419C314.579 69.2379 308.47 79.9638 298.426 84.1986C298.207 84.2912 294.955 88.1326 299.109 90.2037C301.666 91.488 303.737 90.6434 305.357 90.2268C315.169 87.7392 324.263 80.3803 331.391 67.7569C336.216 59.2063 340.208 45.2291 340.3 39.791C340.346 39.5364 339.282 37.5 338.703 37.6389H338.715Z" fill="black"/>
<path d="M301.932 91.4532C300.995 91.4532 299.965 91.2681 298.866 90.7127C296.807 89.683 296.413 88.2366 296.448 87.1953C296.506 85.4944 297.802 83.8167 298.218 83.6432C309.511 78.8877 315.273 66.0328 316.314 63.4989C317.911 59.6112 318.872 53.5483 318.872 49.9383C318.872 48.8275 318.872 47.925 318.652 47.4738C318.49 47.1266 317.738 45.3911 318.281 44.4307C318.49 44.072 318.848 43.8522 319.288 43.8059C320.04 43.7249 320.815 43.7596 321.429 44.4423H321.452L321.591 44.6158C321.625 44.6621 323.592 47.2539 328.973 46.0853C332.895 45.2522 336.412 42.4637 336.817 39.8835C336.852 39.6174 336.91 39.4323 336.956 39.2471L337.026 38.9232C337.153 38.3446 337.407 37.338 338.565 37.0603C338.9 36.9793 339.236 37.095 339.571 37.4074C340.103 37.905 340.96 39.3281 340.867 39.8604C340.775 45.5068 336.609 59.6575 331.888 68.0114C324.969 80.2646 315.84 88.1325 305.496 90.759C305.299 90.8053 305.103 90.8631 304.906 90.921C304.073 91.1524 303.066 91.4301 301.921 91.4301L301.932 91.4532ZM298.739 84.6845C298.496 84.939 297.455 86.3044 297.617 87.6118C297.721 88.4449 298.311 89.1391 299.375 89.6714C301.435 90.7012 303.113 90.2268 304.605 89.8218C304.813 89.7639 305.022 89.7061 305.218 89.6598C315.25 87.1143 324.125 79.4431 330.893 67.4676C335.533 59.2525 339.629 45.3795 339.722 39.7794C339.652 39.5133 339.051 38.4719 338.738 38.2289C338.46 38.3215 338.31 38.5298 338.148 39.2356C338.125 39.3744 338.102 39.467 338.067 39.5595C338.021 39.71 337.986 39.8604 337.951 40.0802C337.477 43.1464 333.635 46.2936 329.204 47.2424C323.905 48.3878 321.429 46.201 320.804 45.5068H320.769L320.63 45.3332C320.422 45.0671 320.237 44.9051 319.381 44.9745C319.288 44.9745 319.277 45.0092 319.265 45.0208C319.103 45.3101 319.346 46.2936 319.67 46.9994C320.005 47.6705 320.005 48.654 320.005 49.9036C320.005 53.6293 319.08 59.7963 317.356 63.9617C316.291 66.5535 310.379 79.7323 298.716 84.6961L298.739 84.6845Z" fill="black"/>
<path d="M301.932 87.8317C301.435 87.8317 300.972 87.716 300.486 87.473C300.116 87.2879 300.012 87.149 300.012 87.149C300.046 87.1374 300.174 86.906 300.312 86.6862C312.462 81.1555 318.548 67.5949 319.658 64.8874C321.498 60.4327 322.493 53.8607 322.493 49.9498C322.493 49.7647 322.493 49.5912 322.493 49.4176C323.569 49.7879 324.842 50.0424 326.335 50.0424C327.422 50.0424 328.568 49.9151 329.748 49.6606C332.12 49.1515 334.307 48.1564 336.065 46.849C334.596 52.8425 331.9 60.6757 328.753 66.2643C322.331 77.6381 313.989 84.9043 304.628 87.2763L303.957 87.4614C303.251 87.6581 302.58 87.8432 301.932 87.8432V87.8317Z" fill="#FDB927"/>
<path d="M290.767 52.4376C289.425 59.0559 288.21 69.3074 293.231 81.7804C297.466 92.2285 310.761 103.996 334.272 102.769C335.093 102.723 335.718 102.029 335.672 101.219C335.626 100.397 334.931 99.7725 334.121 99.8188C312.161 100.964 299.85 90.2269 295.974 80.6812C291.299 69.0875 292.283 59.8196 293.659 53.0392C293.821 52.2409 293.312 51.4541 292.502 51.2921C291.704 51.1301 290.917 51.6508 290.755 52.4492L290.767 52.4376Z" fill="black"/>
<path d="M330.928 103.429C309.21 103.429 296.795 92.1012 292.699 81.9886C287.608 69.3768 288.835 59.0096 290.2 52.3218C290.431 51.2111 291.519 50.4937 292.63 50.7135C293.74 50.9449 294.458 52.0326 294.238 53.1433C292.873 59.8427 291.901 68.9949 296.517 80.4497C300.313 89.8218 312.427 100.363 334.098 99.2287C334.642 99.2055 335.174 99.3906 335.579 99.7609C335.984 100.131 336.227 100.629 336.25 101.184C336.285 101.728 336.1 102.26 335.73 102.665C335.36 103.07 334.85 103.313 334.307 103.348C333.161 103.406 332.027 103.44 330.928 103.44V103.429ZM291.334 52.5532C290.003 59.1021 288.8 69.2379 293.775 81.5605C297.941 91.8351 311.038 103.406 334.249 102.191C334.492 102.179 334.712 102.075 334.874 101.89C335.036 101.716 335.117 101.485 335.105 101.242C335.093 100.999 334.989 100.779 334.804 100.617C334.619 100.455 334.388 100.374 334.156 100.386C311.906 101.531 299.387 90.6086 295.441 80.8778C290.709 69.1338 291.704 59.7617 293.093 52.9119C293.197 52.426 292.873 51.9516 292.387 51.8474C291.901 51.7549 291.426 52.0673 291.322 52.5532H291.334Z" fill="black"/>
<path d="M354.844 250.258C354.844 245.248 358.917 241.557 363.719 241.557C368.521 241.557 372.535 245.248 372.535 250.258C372.535 255.268 368.474 259.017 363.719 259.017C358.963 259.017 354.844 255.326 354.844 250.258ZM363.719 257.559C367.664 257.559 370.777 254.47 370.777 250.258C370.777 246.047 367.664 243.015 363.719 243.015C359.773 243.015 356.603 246.128 356.603 250.258C356.603 254.389 359.727 257.559 363.719 257.559ZM361.867 255.326H360.34V245.26H364.17C366.554 245.26 367.734 246.139 367.734 248.118C367.734 249.923 366.6 250.71 365.119 250.895L367.988 255.326H366.276L363.626 250.964H361.867V255.326ZM363.696 249.668C364.98 249.668 366.137 249.576 366.137 248.037C366.137 246.787 365.003 246.556 363.95 246.556H361.867V249.668H363.696Z" fill="black"/>
<path d="M470.318 104.424C469.496 104.516 468.906 105.257 468.999 106.078C469.091 106.9 469.832 107.49 470.653 107.397C477.816 106.587 486.898 106.807 490.937 109.816C491.596 110.313 492.533 110.174 493.031 109.515C493.528 108.855 493.39 107.918 492.73 107.421C486.783 102.977 474.078 104.007 470.329 104.435L470.318 104.424Z" fill="black"/>
<path d="M497.763 109.584C497.45 110.313 497.705 111.135 498.411 111.493C499.279 111.921 500.598 111.91 502.09 111.864H502.692C503.513 111.829 504.219 111.146 504.196 110.313C504.173 109.492 503.548 108.844 502.715 108.855L501.974 108.878C501.454 108.902 500.077 108.936 499.695 108.797C498.955 108.52 498.064 108.855 497.74 109.584H497.763Z" fill="black"/>
<path d="M508.304 110.788C508.119 111.586 508.674 112.408 509.484 112.593L510.028 112.72C513.696 113.611 518.949 114.606 522.223 113.067C522.964 112.72 523.288 111.829 522.941 111.077C522.582 110.325 521.702 110.012 520.95 110.36C519.157 111.204 515.721 111.019 510.734 109.816L510.051 109.654C509.253 109.469 508.512 109.978 508.315 110.788H508.304Z" fill="black"/>
<path d="M87.4844 186.482L84.8695 187.882C85.5984 187.488 86.5588 187.731 86.9522 188.46C87.3456 189.189 87.1373 190.057 86.4084 190.451L88.7456 189.189C89.4746 188.796 89.8217 187.859 89.4283 187.13C89.0349 186.401 88.2018 186.088 87.4844 186.482Z" fill="black"/>
<path d="M80.9703 192.475L79.4314 194.477C76.1454 198.943 67.4212 210.803 60.6988 212.249C59.8888 212.423 59.3797 213.221 59.5533 214.031C59.7268 214.841 60.5252 215.35 61.3351 215.177C69.1684 213.487 78.0545 201.408 81.8496 196.247L83.0993 194.593C83.5968 193.933 83.5968 192.857 82.9488 192.348C82.2893 191.851 81.491 191.816 80.9934 192.464L80.9703 192.475Z" fill="black"/>
<path d="M57.5285 195.947C57.1583 196.687 57.4475 197.578 58.188 197.96C60.8955 199.325 64.6212 201.2 71.7718 198.966C72.5586 198.723 72.9983 197.879 72.7553 197.092C72.5123 196.305 71.6677 195.866 70.8809 196.109C64.8874 197.983 62.041 196.548 59.5418 195.287C58.8013 194.917 57.9103 195.206 57.5285 195.947Z" fill="black"/>
<path d="M57.1699 155.033C56.6955 155.658 56.7418 156.503 57.3319 157.023C58.755 158.261 70.7421 161.675 79.9522 160.309C78.1125 162.89 76.2381 166.673 75.486 172.111C75.486 172.181 75.4744 172.25 75.4744 172.32C75.4744 173.048 76.0182 173.696 76.7587 173.801C77.5687 173.916 78.3323 173.349 78.448 172.528C79.7439 163.19 84.7308 159.268 85.7143 158.574C86.3623 158.123 86.5243 157.255 86.1193 156.584C85.7143 155.913 84.8465 155.67 84.1523 156.017L83.9556 156.121C76.2959 159.939 60.722 155.693 59.2526 154.721C58.5931 154.293 57.6674 154.397 57.1815 155.022L57.1699 155.033Z" fill="black"/>
<path d="M91.5805 151.898C91.5805 151.898 91.5342 151.921 91.4763 151.932C90.9556 151.979 90.5044 152.291 90.2614 152.476C89.868 152.765 89.6713 153.217 89.6713 153.668C89.6713 153.98 89.7755 154.293 89.9722 154.57C90.4697 155.23 91.4069 155.369 92.0664 154.871C92.0664 154.871 92.1127 154.837 92.1474 154.813C92.3325 154.756 92.564 154.732 92.6912 154.686C93.2698 154.455 93.6169 153.911 93.6169 153.321C93.6169 153.136 93.5822 152.962 93.5127 152.777C93.2235 152.013 92.3557 151.631 91.592 151.909L91.5805 151.898ZM92.564 152.303C92.2515 152.025 91.9391 151.921 91.6383 151.921C91.997 151.863 92.2284 152.002 92.564 152.303ZM90.5623 154.524C90.8978 154.825 91.2565 154.918 91.6036 154.929C91.2449 154.952 90.8747 154.813 90.5623 154.524Z" fill="black"/>
<path d="M114.363 144.238C102.63 146.98 100.779 148.091 99.8881 148.623L99.7262 148.716C99.0088 149.132 98.6964 150.069 99.1013 150.787C99.5063 151.504 100.339 151.793 101.057 151.388L101.427 151.18C102.063 150.798 103.764 149.78 115.034 147.142C115.832 146.957 116.341 146.147 116.145 145.349C115.96 144.55 115.15 144.053 114.351 144.238H114.363Z" fill="black"/>
<path d="M49.4755 151.574C48.9895 152.233 49.1978 153.217 49.8573 153.703L50.4127 154.119L51.373 154.767C52.0441 155.218 52.7499 154.917 53.2128 154.246C53.6756 153.575 53.3053 152.534 52.6574 152.06L51.5003 151.203C50.8292 150.717 49.973 150.903 49.4755 151.574Z" fill="black"/>
<path d="M119.905 83.8977L114.386 85.587C108.554 87.2185 103.232 86.0383 100.571 85.1936C99.7839 84.9391 98.9392 85.3788 98.6963 86.1655C98.4417 86.9523 98.8814 87.797 99.6682 88.04C102.642 88.9887 108.624 90.2962 115.196 88.4681L120.831 86.7441C124.221 85.6564 127.148 84.7192 129.104 84.7308C129.925 84.7308 130.596 84.0597 130.596 83.2382C130.596 82.4167 129.925 81.734 129.104 81.734C126.674 81.734 123.689 82.6828 119.905 83.8977Z" fill="black"/>
<path d="M134.415 82.5787C134.044 83.3192 134.345 84.2101 135.086 84.5803C136.046 85.0547 144.886 90.4697 145.835 91.2681C146.471 91.8003 147.408 91.7193 147.94 91.083C148.473 90.4582 148.392 89.5094 147.755 88.9771C146.448 87.8779 137.11 82.2431 136.405 81.896C135.664 81.5257 134.773 81.8381 134.415 82.5787Z" fill="black"/>
<path d="M117.163 65.2808C116.735 65.9866 116.966 66.9007 117.672 67.3288C121.074 69.3883 124.198 75.8216 125.066 77.7423C125.413 78.4943 126.292 78.8299 127.044 78.4828C127.796 78.1472 128.132 77.2563 127.785 76.5042C126.547 73.7851 123.237 67.2131 119.211 64.7717C118.505 64.3436 117.591 64.575 117.151 65.2808H117.163Z" fill="black"/>
<path d="M86.8019 82.2431C86.397 82.9605 86.559 83.8283 87.2763 84.2332L88.0978 84.7076L89.1045 85.3208C89.8103 85.7605 90.8401 85.6217 91.2797 84.9159C91.7078 84.2101 91.6153 83.377 90.9095 82.9373L89.5095 82.0695L88.9309 81.734C88.2136 81.3175 87.2185 81.5257 86.8135 82.2315L86.8019 82.2431Z" fill="black"/>
<path d="M174.229 63.6493C173.87 64.3898 174.171 65.2808 174.911 65.651C177.769 67.0511 187.488 72.5586 192.718 84.8812C193.042 85.6449 193.922 85.992 194.685 85.668C195.449 85.344 195.796 84.4647 195.472 83.7126C189.837 70.4296 179.32 64.4824 176.23 62.9667C175.49 62.608 174.599 62.9088 174.229 63.6609V63.6493Z" fill="black"/>
<path d="M109.307 58.0145C108.902 58.7318 109.064 59.5996 109.781 60.0046L110.602 60.479L111.609 61.0922C112.315 61.5203 113.345 61.3815 113.784 60.6873C114.212 59.993 114.12 59.1484 113.414 58.7087L112.014 57.8409L111.436 57.5054C110.718 57.0888 109.735 57.2971 109.318 58.0145H109.307Z" fill="black"/>
<path d="M85.7143 187.512C85.7143 187.512 85.668 187.535 85.6217 187.546C85.1011 187.604 84.6498 187.905 84.3953 188.09C84.0019 188.379 83.8052 188.831 83.8052 189.282C83.8052 189.594 83.8977 189.907 84.106 190.173C84.592 190.832 85.5407 190.96 86.2003 190.474C86.2003 190.474 86.2465 190.439 86.2812 190.416C86.4664 190.369 86.6978 190.335 86.8251 190.288C87.4036 190.057 87.7507 189.502 87.7507 188.923C87.7507 188.738 87.716 188.553 87.6466 188.379C87.3573 187.616 86.4895 187.234 85.7259 187.512H85.7143Z" fill="black"/>
<path d="M166.951 58.998C166.546 59.7154 166.708 60.5832 167.425 60.9882L168.247 61.4626L169.253 62.0758C169.959 62.5039 170.989 62.3651 171.417 61.6593C171.857 60.965 171.753 60.1204 171.047 59.6807L169.647 58.8129L169.068 58.4774C168.351 58.0724 167.367 58.2691 166.951 58.9865V58.998Z" fill="black"/>
</svg>
