<svg id="Layer_1" data-name="Layer 1" xmlns="http://www.w3.org/2000/svg" viewBox="0 0 595.28 841.89"><defs><style>.cls-1{fill:#fff;}</style></defs><path class="cls-1" d="M523.2,333c-3.57,10.56-11.06,14.23-22,14.21q-204.18-.27-408.35-.15a31.22,31.22,0,0,1-8.26-.85A17.36,17.36,0,0,1,72.16,327.7a17.7,17.7,0,0,1,16.31-15.79c1.75-.12,3.52-.06,5.28-.06q203.73,0,407.47-.11c10.92,0,18.43,3.62,22,14.21Z"/><path class="cls-1" d="M523.2,474c-3.57,10.56-11.06,14.23-22,14.22Q297,487.92,92.86,488a31.22,31.22,0,0,1-8.26-.86,17.34,17.34,0,0,1-12.44-18.5,17.7,17.7,0,0,1,16.31-15.8c1.75-.12,3.52-.05,5.28-.05q203.73,0,407.47-.12c10.92,0,18.43,3.63,22,14.21Z"/><path class="cls-1" d="M523.2,615c-3.57,10.56-11.06,14.23-22,14.21Q297,628.89,92.86,629a31.22,31.22,0,0,1-8.26-.85,17.36,17.36,0,0,1-12.44-18.51,17.69,17.69,0,0,1,16.31-15.79c1.75-.12,3.52-.06,5.28-.06q203.73,0,407.47-.12c10.92,0,18.43,3.63,22,14.22Z"/></svg>