<?xml version="1.0" encoding="UTF-8"?><svg id="Layer_1" xmlns="http://www.w3.org/2000/svg" viewBox="0 0 832.55 888.51"><defs><style>.cls-1{stroke-width:0px;}</style></defs><path class="cls-1" d="m287.44,726.13c-10.24-1.87-20.6-3.22-30.68-5.71-15.24-3.77-29.5-9.92-41.63-20.28-22.62-19.32-23.01-46.8-.8-66.63,12.92-11.54,28.58-17.58,45.06-21.84,2.27-.59,4.56-1.09,7.26-1.73v-7.24c0-134.3,0-268.61,0-402.91,0-19.25,10.33-32.94,27.54-36.66,19.59-4.23,39.03,10.08,40.77,30.07.33,3.8.39,7.62.6,12.01,2.48,0,4.62,0,6.77,0,42.02,0,84.03,0,126.05,0,12.14,0,16.46,4.35,16.5,16.61.03,10.09,0,20.18.02,30.27,0,1.79.17,3.57.29,5.91,2.56,0,4.71,0,6.86,0,42.57,0,85.13-.03,127.7.02,9.81.01,16.13,6.26,14.41,14.96-.67,3.42-3.18,7.04-5.86,9.42-25.28,22.37-50.78,44.49-76.2,66.69-2.33,2.04-4.61,4.14-7.11,6.39,18.52,16.15,36.77,32.06,55.01,47.96,9.4,8.2,18.83,16.36,28.22,24.58,6.04,5.29,7.8,10.62,5.37,16.47-2.7,6.5-8.01,8.48-14.62,8.48-48.25-.05-96.51,0-144.76-.04-10.5,0-15.61-5-15.71-15.45-.12-12.25-.03-24.5-.03-37.07h-122.84v209.31c6.27,1.78,12.65,3.29,18.82,5.4,15.27,5.23,29.42,12.41,39.84,25.29,13.49,16.69,13.14,36.97-.96,53.21-11.74,13.53-27.21,21.02-44.03,25.64-10.02,2.75-20.46,3.96-30.7,5.89-1.23.23-2.42.63-3.63.95h-27.53Zm48.71-494.2v141.34h122.01v-141.34h-122.01Zm249.63,52.85h-100.4v141.25h100.28c-1.99-1.78-3.19-2.88-4.42-3.96-20.88-18.21-41.76-36.41-62.63-54.64-9.37-8.18-9.42-15.82-.17-23.91,22.1-19.31,44.23-38.59,67.34-58.75Zm-276.93,141.35c-.11,0-.22,0-.32,0,0-13.75,0-27.51,0-41.26,0-54.85,0-109.7,0-164.54,0-8.07.31-16.14.1-24.2-.11-4.5-3.05-7.11-7.47-7.23-4.48-.12-7.09,2.61-7.92,6.91-.31,1.6-.16,3.29-.16,4.94,0,150.05,0,300.11,0,450.16,0,1.65-.13,3.33.15,4.94.76,4.35,3.44,7.05,7.87,6.95,4.38-.09,7.14-2.66,7.58-7.19.21-2.18.15-4.4.15-6.6,0-74.29,0-148.59,0-222.88Zm26.43,210.91c0,5.19.13,9.73-.04,14.25-.15,4.01-.13,8.14-1.08,12-4.05,16.5-19.75,27.61-36.06,25.87-17.7-1.9-30.64-15.52-31.36-33.26-.25-6.13-.04-12.27-.04-18.87-14.29,3.69-27.2,8.2-37.13,18.47-6.94,7.17-7.18,14.92-.02,21.79,4.54,4.36,9.95,8.25,15.63,10.93,25.01,11.79,51.49,13.54,78.47,9.81,16.11-2.23,31.63-6.53,44.74-16.78,12.43-9.72,12.32-19.93-.13-29.69-9.41-7.37-20.34-11.45-32.98-14.49Z"/></svg>