<svg width="80" height="80" viewBox="0 0 80 80" fill="none" xmlns="http://www.w3.org/2000/svg">
<mask id="mask0_2851_29464" style="mask-type:alpha" maskUnits="userSpaceOnUse" x="0" y="0" width="80" height="80">
<rect width="80" height="80" fill="#D9D9D9"/>
</mask>
<g mask="url(#mask0_2851_29464)">
<path fill-rule="evenodd" clip-rule="evenodd" d="M16.6059 5H62.5805C69.5508 5 75.1864 10.6356 75.1864 17.6059V61.8008C75.1864 68.7712 69.5508 74.4068 62.5805 74.4068H16.6059C9.63559 74.4068 4 68.7712 4 61.8008V17.6059C4 10.6356 9.63559 5 16.6059 5ZM20.0156 54.7119V24.1908C20.0156 23.9831 20.1046 23.8645 20.3122 23.8645C20.8165 23.8645 21.291 23.8645 21.9733 23.8348C22.3398 23.8196 22.7143 23.8121 23.1006 23.8045H23.1007L23.1009 23.8045C23.4647 23.7973 23.8391 23.7899 24.2275 23.7755C24.6416 23.7602 25.0716 23.7528 25.5175 23.7451L25.5177 23.7451C25.934 23.7379 26.3641 23.7305 26.808 23.7162C27.7275 23.6865 28.6173 23.6865 29.5071 23.6865C31.9394 23.6865 33.9563 23.9831 35.6173 24.606C37.1004 25.1103 38.4648 25.9408 39.5919 27.0382C40.541 27.9874 41.2826 29.1441 41.7571 30.4196C42.2021 31.6653 42.4394 32.9408 42.4394 34.2755C42.4394 36.8264 41.8461 38.9323 40.6597 40.5933C39.4733 42.2543 37.8122 43.5001 35.8843 44.2119C33.8673 44.9535 31.6427 45.2204 29.2105 45.2204C28.4987 45.2204 28.0241 45.2204 27.7275 45.1908C27.4309 45.1611 27.0156 45.1611 26.4521 45.1611V54.6823C26.4817 54.8899 26.3334 55.0679 26.1258 55.0975H26.0071H20.3716C20.1343 55.0975 20.0156 54.9789 20.0156 54.7119ZM26.4817 29.5891V39.5552L26.5709 39.5616C26.9523 39.5889 27.3082 39.6145 27.6385 39.6145H29.2105C30.3673 39.6145 31.5241 39.4365 32.6216 39.0806C33.5707 38.8136 34.4012 38.2501 35.0538 37.5086C35.6766 36.767 35.9733 35.7586 35.9733 34.4535C36.0029 33.534 35.7656 32.6145 35.291 31.8136C34.7868 31.0425 34.0749 30.4492 33.2148 30.123C32.1173 29.678 30.9309 29.5001 29.7148 29.5297C28.9436 29.5297 28.2614 29.5297 27.6978 29.5594C27.1046 29.5297 26.6894 29.5594 26.4817 29.5891ZM58.1082 35.61C59.1167 35.8176 60.0659 36.1439 60.9557 36.6184C61.0744 36.6778 61.2227 36.6778 61.4896 36.6184C61.5786 36.5591 61.6379 36.4405 61.6379 36.3218V31.4871C61.6379 31.3684 61.6083 31.2498 61.5786 31.1311C61.5193 31.0125 61.4006 30.8939 61.282 30.8642C60.4811 30.5379 59.621 30.3006 58.7311 30.182C57.515 30.004 56.2693 29.915 55.0532 29.915C52.9472 29.915 51.1972 30.2413 49.8032 30.9532C48.5277 31.5464 47.4303 32.4955 46.6888 33.682C46.0362 34.7794 45.6803 35.9955 45.6803 37.271C45.6506 38.3091 45.8879 39.3472 46.3625 40.2964C46.9261 41.3049 47.6972 42.165 48.6167 42.8176C49.9218 43.7074 51.3159 44.4193 52.8286 44.9532C54.282 45.5167 55.2608 45.9616 55.7354 46.3472C56.2099 46.7328 56.4472 47.1184 56.4472 47.5337C56.4472 48.0676 56.121 48.5718 55.6464 48.7794C55.1125 49.0464 54.3116 49.1947 53.1845 49.1947C51.9981 49.1947 50.8116 49.0464 49.6845 48.7498C48.3794 48.4532 47.1633 47.9786 46.0066 47.2964C45.9176 47.2371 45.8286 47.2074 45.7396 47.2667C45.6506 47.3261 45.621 47.4447 45.621 47.5337V52.6947C45.5913 52.932 45.7396 53.1396 45.9472 53.2583C46.8964 53.7032 47.9345 54.0294 48.9727 54.2074C50.3074 54.4744 51.6422 54.593 53.0066 54.593C55.1422 54.593 56.9218 54.2667 58.3752 53.6439C59.7099 53.11 60.8667 52.1905 61.6972 51.004C62.4684 49.8472 62.8837 48.4532 62.854 47.0591C62.8837 45.9913 62.6464 44.9532 62.1718 44.004C61.6083 42.9955 60.8074 42.165 59.8286 41.5422C58.4049 40.6523 56.8625 39.9108 55.2608 39.3769C54.5489 39.0803 53.8371 38.754 53.1549 38.3981C52.7693 38.1905 52.4133 37.9235 52.1464 37.5972C51.9684 37.36 51.8498 37.093 51.8498 36.8261C51.8498 36.5591 51.9388 36.2625 52.0871 36.0252C52.2947 35.7286 52.621 35.521 53.0066 35.432C53.5701 35.2837 54.193 35.1947 54.7862 35.2244C55.9133 35.2244 57.0108 35.3727 58.1082 35.61Z" fill="url(#paint0_linear_2851_29464)"/>
</g>
<defs>
<linearGradient id="paint0_linear_2851_29464" x1="-36.8828" y1="-37.0297" x2="30.1219" y2="78.1508" gradientUnits="userSpaceOnUse">
<stop offset="0.0001" stop-color="#26D0F5"/>
<stop offset="1" stop-color="#2682F5"/>
</linearGradient>
</defs>
</svg>
