<svg xmlns="http://www.w3.org/2000/svg" xmlns:xlink="http://www.w3.org/1999/xlink" viewBox="0 0 863 776"><defs><clipPath id="clip-path"><path d="M745.8,676.26H92.2a15.83,15.83,0,0,1-15.8-15.8V116.06a15.83,15.83,0,0,1,15.8-15.8H745.8a15.83,15.83,0,0,1,15.8,15.8v544.4A15.83,15.83,0,0,1,745.8,676.26Z" style="fill:none"/></clipPath><clipPath id="clip-path-2"><path d="M775.4,318H600.8a13,13,0,0,1-13-13V62.16a13,13,0,0,1,13-13H775.4a13,13,0,0,1,13,13V305A13,13,0,0,1,775.4,318Z" style="fill:#fff"/></clipPath><clipPath id="clip-path-3"><path d="M222.9,754.56H48.3a13,13,0,0,1-13-13V498.76a13,13,0,0,1,13-13H222.9a13,13,0,0,1,13,13v242.8A13,13,0,0,1,222.9,754.56Z" style="fill:#fff"/></clipPath><linearGradient id="linear-gradient" x1="757.17" y1="493.81" x2="757.17" y2="452.51" gradientUnits="userSpaceOnUse"><stop offset="0" stop-color="#e8d086"/><stop offset="0.29" stop-color="#e6ce83"/><stop offset="0.49" stop-color="#e2c67a"/><stop offset="0.66" stop-color="#d9b96b"/><stop offset="0.81" stop-color="#cda755"/><stop offset="0.95" stop-color="#be8f3a"/><stop offset="1" stop-color="#b8862f"/></linearGradient><linearGradient id="linear-gradient-2" x1="757.53" y1="454.33" x2="757.53" y2="432.71" gradientUnits="userSpaceOnUse"><stop offset="0" stop-color="#e8d086"/><stop offset="0.28" stop-color="#e8cb7f"/><stop offset="0.69" stop-color="#e8bf6a"/><stop offset="1" stop-color="#e8b356"/></linearGradient><linearGradient id="linear-gradient-3" x1="757.53" y1="494.42" x2="757.53" y2="432.21" gradientUnits="userSpaceOnUse"><stop offset="0" stop-color="#9f1c12"/><stop offset="0.39" stop-color="#c21c12"/><stop offset="0.78" stop-color="#df1c12"/><stop offset="1" stop-color="#ea1c12"/></linearGradient><linearGradient id="linear-gradient-4" x1="757.53" y1="432.21" x2="757.53" y2="424.91" gradientUnits="userSpaceOnUse"><stop offset="0" stop-color="#d61c12"/><stop offset="0.32" stop-color="#bd1c12"/><stop offset="0.75" stop-color="#a01c12"/><stop offset="1" stop-color="#951c12"/></linearGradient></defs><g style="isolation:isolate"><g id="Layer_1" data-name="Layer 1"><path d="M28.5,491c-.4-2-.8-3.9-1.1-5.9" style="fill:none;stroke:#fff;stroke-miterlimit:10;stroke-width:1.5px"/><path d="M25.4,473.16a397.2,397.2,0,0,1-4.4-59.1c0-182.2,122.7-335.8,289.9-382.7" style="fill:none;stroke:#fff;stroke-miterlimit:10;stroke-width:1.5px;stroke-dasharray:12.100500106811523,12.100500106811523"/><path d="M316.8,29.76l5.8-1.5" style="fill:none;stroke:#fff;stroke-miterlimit:10;stroke-width:1.5px"/><path d="M307.7,15.26c.3.1.7.3,1,.4,5.5,3.4,11,6.9,16.5,10.4.1.1.2.1.4.2a1.1,1.1,0,0,1,.3,1.5c0,.1-.1.2-.2.3-3.5,5.6-7.1,11.2-10.6,16.8a1.21,1.21,0,0,1-1.2.7,1.18,1.18,0,0,1-1-1.6c.1-.1.1-.3.2-.4,3.3-5.2,6.5-10.4,9.8-15.5.1-.1.1-.2.2-.4-.1,0-.2-.1-.3-.1-5.2-3.3-10.4-6.5-15.6-9.8a1.27,1.27,0,0,1-.7-1.4,1.8,1.8,0,0,1,.6-.9A1.42,1.42,0,0,1,307.7,15.26Z" style="fill:#fff"/><path d="M461.6,39.36c2,.1,4,.1,6,.2" style="fill:none;stroke:#fff;stroke-miterlimit:10;stroke-width:1.5px"/><path d="M479.7,40.36a409.76,409.76,0,0,1,58.5,8.9C715.8,90,838.1,243.86,846.4,417.36" style="fill:none;stroke:#fff;stroke-miterlimit:10;stroke-width:1.5px;stroke-dasharray:12.100500106811523,12.100500106811523"/><path d="M846.7,423.46c.1,2,.1,4,.1,6" style="fill:none;stroke:#fff;stroke-miterlimit:10;stroke-width:1.5px"/><path d="M862.9,417.76a5.5,5.5,0,0,1-.7.9l-13.8,13.8-.3.3a1.09,1.09,0,0,1-1.5,0c-.1-.1-.2-.1-.2-.2-4.7-4.7-9.3-9.4-14-14.1a1.18,1.18,0,0,1,1.4-1.9,1.38,1.38,0,0,0,.4.3c4.3,4.3,8.6,8.7,12.9,13a1.38,1.38,0,0,0,.4.3c.1-.1.1-.2.2-.3,4.3-4.4,8.7-8.7,13.1-13.1a1.31,1.31,0,0,1,1.5-.4c.4.2.5.5.7.8A1.49,1.49,0,0,0,862.9,417.76Z" style="fill:#fff"/><path d="M760.51,548C685,682.66,526,763.66,372.3,744.56" style="fill:none;stroke:#fff;stroke-miterlimit:10;stroke-width:1.5px;stroke-dasharray:12.100500106811523,12.100500106811523"/><path d="M366.3,743.76c-2-.3-4-.5-5.9-.8" style="fill:none;stroke:#fff;stroke-miterlimit:10;stroke-width:1.5px"/><path d="M369.4,760.66a6,6,0,0,1-.8-.8c-3.8-5.3-7.6-10.5-11.5-15.8a.52.52,0,0,1-.2-.4,1.21,1.21,0,0,1,.2-1.5c.1-.1.2-.1.3-.2l16.1-11.6a1.21,1.21,0,0,1,1.4-.2,1.18,1.18,0,0,1,.3,1.9,1.38,1.38,0,0,1-.4.3c-5,3.6-9.9,7.2-14.9,10.7-.1.1-.2.1-.4.3.1.1.2.1.3.2l10.8,15c.4.6.5,1.1.2,1.5a1.8,1.8,0,0,1-.9.6A.45.45,0,0,1,369.4,760.66Z" style="fill:#fff"/><g style="clip-path:url(#clip-path)"><image width="5472" height="3648" transform="translate(-146.47 97.2) scale(0.17)" xlink:href="../../../OneDrive_2021-06-10/Marketing%20Collaterals/Downloaded%20Images/shutterstock_753589216.jpg"/></g><path d="M775.4,318H600.8a13,13,0,0,1-13-13V62.16a13,13,0,0,1,13-13H775.4a13,13,0,0,1,13,13V305A13,13,0,0,1,775.4,318Z" style="fill:#fff"/><g style="clip-path:url(#clip-path-2)"><image width="8192" height="5464" transform="translate(565.66 45.56) scale(0.04)" xlink:href="../../../OneDrive_2021-06-10/Marketing%20Collaterals/Downloaded%20Images/AdobeStock_516259089.jpeg"/></g><path d="M222.9,754.56H48.3a13,13,0,0,1-13-13V498.76a13,13,0,0,1,13-13H222.9a13,13,0,0,1,13,13v242.8A13,13,0,0,1,222.9,754.56Z" style="fill:#fff"/><g style="clip-path:url(#clip-path-3)"><image width="7720" height="5147" transform="translate(0.33 482.5) scale(0.04)" xlink:href="../../../OneDrive_2021-06-10/Marketing%20Collaterals/Downloaded%20Images/AdobeStock_498101490.jpeg"/></g><text transform="translate(623.06 295.04)" style="font-size:20px;font-family:Poppins-SemiBold, Poppins;font-weight:600">Drive Loyalty</text><text transform="translate(48.97 728.44)" style="font-size:20px;font-family:Poppins-SemiBold, Poppins;font-weight:600">Happy Customer</text><rect x="721.7" y="452.51" width="70.93" height="41.3" style="fill:url(#linear-gradient)"/><g style="mix-blend-mode:multiply"><polygon points="783.27 476.52 785.63 481.3 790.91 482.07 787.09 485.79 787.99 491.04 783.27 488.56 778.55 491.04 779.45 485.79 775.64 482.07 780.91 481.3 783.27 476.52" style="fill:#d8984a"/><polygon points="766.29 461.08 769.2 463.26 772.64 462.1 771.47 465.54 773.64 468.46 770.01 468.41 767.9 471.38 766.83 467.9 763.36 466.82 766.33 464.72 766.29 461.08" style="fill:#d8984a"/><polygon points="737.63 487.96 735.18 482.5 732.34 487.77 726.39 488.42 730.52 492.75 730.3 493.81 739.19 493.81 739.09 493.06 743.52 489.03 737.63 487.96" style="fill:#d8984a"/><polygon points="727.46 466.1 724.01 467.26 721.7 465.53 721.7 472.08 722.72 475.38 724.82 472.41 728.46 472.46 726.29 469.54 727.46 466.1" style="fill:#d8984a"/><polygon points="792.63 458.55 789.72 461.14 784.71 459.91 786.78 464.64 784.07 469.02 789.2 468.51 792.53 472.45 792.63 471.97 792.63 458.55" style="fill:#d8984a"/><polygon points="743.72 449.19 746.75 453.37 751.91 453.24 748.87 457.41 750.59 462.27 745.68 460.68 741.58 463.81 741.59 458.65 737.34 455.72 742.25 454.13 743.72 449.19" style="fill:#d8984a"/><polygon points="768.31 486.9 766.3 488.69 763.69 488.05 764.77 490.51 763.35 492.8 766.03 492.53 767.11 493.81 767.94 493.81 768.34 491.96 770.83 490.94 768.51 489.58 768.31 486.9" style="fill:#d8984a"/><polygon points="743.41 469.32 743.61 472 745.93 473.36 743.44 474.38 742.87 477 741.13 474.95 738.45 475.21 739.87 472.93 738.79 470.46 741.4 471.11 743.41 469.32" style="fill:#d8984a"/><polygon points="780.6 451.68 780.79 454.36 783.12 455.72 780.62 456.74 780.05 459.36 778.31 457.31 775.64 457.57 777.05 455.29 775.97 452.82 778.59 453.46 780.6 451.68" style="fill:#d8984a"/></g><rect x="719.27" y="432.71" width="76.52" height="21.62" style="fill:url(#linear-gradient-2)"/><polygon points="777.49 435.44 781.35 439.11 786.57 438.01 784.27 442.82 786.93 447.45 781.64 446.74 778.07 450.7 777.1 445.46 772.23 443.28 776.92 440.74 777.49 435.44" style="fill:#c68238"/><polygon points="726.84 435.27 721.62 436.37 719.27 434.14 719.27 446.92 721.91 444 727.2 444.71 724.54 440.08 726.84 435.27" style="fill:#c68238"/><polygon points="795.79 444.5 795.09 445.13 790.88 444.1 792.62 448.06 790.34 451.74 794.64 451.31 795.79 452.67 795.79 444.5" style="fill:#c68238"/><polygon points="740.69 446.73 736.62 448.18 733.11 445.64 733.23 449.97 729.74 452.52 733.88 453.74 734.08 454.33 737.64 454.33 737.67 454.28 742 454.27 739.36 450.85 740.69 446.73" style="fill:#c68238"/><polygon points="768.31 433.21 768.51 435.9 770.83 437.26 768.34 438.27 767.77 440.9 766.03 438.85 763.35 439.11 764.77 436.82 763.69 434.36 766.3 435 768.31 433.21" style="fill:#c68238"/><polygon points="743.41 433.21 743.61 435.9 745.93 437.26 743.44 438.27 742.87 440.9 741.13 438.85 738.45 439.11 739.87 436.82 738.79 434.36 741.4 435 743.41 433.21" style="fill:#c68238"/><polygon points="786.08 425.34 728.99 425.34 719.27 432.71 795.79 432.71 786.08 425.34" style="fill:#e8d086"/><polygon points="777.64 425.93 780 427.85 785.28 428.16 781.46 429.65 782.36 431.76 777.64 430.77 772.92 431.76 773.83 429.65 770.01 428.16 775.28 427.85 777.64 425.93" style="fill:#c68238"/><polygon points="733.05 426.47 735.41 428.39 740.69 428.7 736.87 430.2 737.77 432.31 733.05 431.31 728.33 432.31 729.24 430.2 725.42 428.7 730.69 428.39 733.05 426.47" style="fill:#c68238"/><rect x="748.9" y="432.21" width="17.25" height="62.21" style="fill:url(#linear-gradient-3)"/><polygon points="763.43 424.91 751.57 424.91 748.9 432.21 766.16 432.21 763.43 424.91" style="fill:url(#linear-gradient-4)"/><image width="31" height="33" transform="translate(726 394)" xlink:href="Popin%20New-Banner1.png"/><image width="30" height="31" transform="translate(759 394)" xlink:href="Popin%20New-Banner2.png"/><image width="39" height="19" transform="translate(717 409)" xlink:href="Popin%20New-Banner3.png"/><image width="38" height="17" transform="translate(758 412)" xlink:href="Popin%20New-Banner4.png"/><image width="40" height="22" transform="translate(716 409)" xlink:href="Popin%20New-Banner5.png"/><image width="9" height="9" transform="translate(753 421)" xlink:href="Popin%20New-Banner6.png"/></g></g></svg>