<svg width="80" height="80" viewBox="0 0 80 80" fill="none" xmlns="http://www.w3.org/2000/svg">
<mask id="mask0_2851_29456" style="mask-type:alpha" maskUnits="userSpaceOnUse" x="0" y="0" width="80" height="80">
<rect width="80" height="80" fill="#D9D9D9"/>
</mask>
<g mask="url(#mask0_2851_29456)">
<mask id="mask1_2851_29456" style="mask-type:alpha" maskUnits="userSpaceOnUse" x="4" y="4" width="72" height="72">
<rect x="4" y="4" width="71.1864" height="71.1864" fill="url(#paint0_linear_2851_29456)"/>
</mask>
<g mask="url(#mask1_2851_29456)">
<path fill-rule="evenodd" clip-rule="evenodd" d="M25.1568 71.758C23.9708 71.7853 22.7988 71.4975 21.7602 70.9241C18.1196 68.8241 16.8585 62.7682 18.3865 54.7216C18.5752 53.8591 18.7794 53.0006 18.9989 52.1465C18.336 51.9671 17.6752 51.7782 17.017 51.5797C13.6372 50.5083 10.485 48.8206 7.71953 46.6018C6.66427 45.8438 5.78548 44.8665 5.14345 43.7369C4.50143 42.6073 4.11137 41.3522 4.00004 40.0577C4.00004 35.8552 8.61699 31.7365 16.3509 29.0416C17.2421 28.7583 18.1381 28.4923 19.0383 28.2437C18.8333 27.4513 18.6416 26.655 18.4633 25.8552C17.7293 22.5157 17.5933 19.0726 18.0616 15.6857C18.1698 14.4292 18.5524 13.2119 19.1824 12.1194C19.8123 11.0269 20.6742 10.0859 21.7073 9.36279C25.4879 7.17381 31.9023 9.42381 38.4489 15.2357C38.8456 15.6105 39.238 15.9895 39.626 16.3728C40.2083 15.8013 40.8006 15.2392 41.4026 14.6869C43.9276 12.3853 46.8404 10.5492 50.006 9.26397C51.151 8.72738 52.4 8.44922 53.6645 8.44922C54.929 8.44922 56.178 8.72738 57.323 9.26397C61.1085 11.4453 62.3619 18.1267 60.595 26.7021C60.4685 27.2323 60.3362 27.761 60.1981 28.2878C60.9789 28.5056 61.7565 28.7366 62.5306 28.9806C65.7855 30.0183 68.8309 31.6244 71.5255 33.7246C72.5627 34.4473 73.4283 35.3892 74.061 36.4836C74.6936 37.5781 75.0779 38.7982 75.1865 40.0577C75.1865 44.4255 70.0255 48.8518 61.7119 51.6026C61.2545 51.7387 60.796 51.8702 60.3363 51.9972C60.507 52.6399 60.6688 53.2853 60.8218 53.9331C61.5873 57.3951 61.7054 60.9689 61.1701 64.4738C61.0427 65.7664 60.6373 67.0161 59.9817 68.1373C59.3261 69.2585 58.4358 70.2247 57.3718 70.9696C56.3501 71.5358 55.1963 71.8201 54.0285 71.7933C50.5836 71.7933 46.2082 69.7086 41.6523 65.7908C40.9994 65.1967 40.3577 64.5912 39.7275 63.9746C39.2397 64.4607 38.7446 64.9399 38.2424 65.4123C35.6258 67.8041 32.5891 69.691 29.2857 70.9775C27.9632 71.4684 26.5673 71.7323 25.1568 71.758ZM37.5957 61.8002C37.153 62.2414 36.7042 62.6769 36.2492 63.1063C30.2543 68.3436 25.317 69.4597 23.2831 68.2826C21.3204 67.1487 19.9704 62.6919 21.3763 55.2809C21.5551 54.4767 21.7478 53.6762 21.9542 52.8796C25.0932 53.5884 28.275 54.0861 31.4783 54.37C33.3515 56.9777 35.395 59.4599 37.5957 61.8002ZM41.8428 61.7765C42.43 62.3534 43.0276 62.9204 43.6353 63.4772C49.3531 68.3967 53.8887 69.4543 55.8387 68.3077C57.8726 67.1255 59.3726 62.3001 57.8268 54.4925C57.6875 53.9083 57.5407 53.3263 57.3864 52.7465C54.2498 53.4743 51.0699 53.994 47.8676 54.3029C46.0281 56.9241 44.0155 59.421 41.8428 61.7765ZM59.4951 49.078C59.9172 48.9617 60.3384 48.8413 60.7585 48.717C68.5763 46.1263 72.1356 42.4119 72.1356 40.0577C72.0074 39.2498 71.7129 38.4773 71.271 37.7889C70.829 37.1006 70.2491 36.5114 69.5678 36.0585C67.157 34.1954 64.4366 32.7719 61.5314 31.8535C60.8127 31.6278 60.0909 31.414 59.3662 31.212C58.4391 34.2311 57.318 37.1859 56.0105 40.058C57.3719 42.9823 58.5362 45.9957 59.4951 49.078ZM54.2655 43.6305C55.1211 45.6568 55.88 47.7236 56.5393 49.8242C54.3967 50.3157 52.2333 50.7061 50.0563 50.9943C50.7932 49.811 51.4962 48.6055 52.1645 47.3792C52.902 46.1494 53.6026 44.8992 54.2655 43.6305ZM54.2389 36.5107C55.0581 34.5291 55.7865 32.51 56.4215 30.4598C54.3078 29.9686 52.1733 29.5764 50.0249 29.2843C50.7672 30.4562 51.4766 31.6501 52.1523 32.8645C52.8837 34.0605 53.5795 35.2765 54.2389 36.5107ZM46.1089 28.8639C47.3257 30.6469 48.461 32.4874 49.5107 34.3797C50.6461 36.2315 51.6922 38.1333 52.6461 40.0784C51.7016 42.045 50.6647 43.969 49.5382 45.8436C48.5021 47.7496 47.3782 49.6032 46.171 51.3989C43.9853 51.5652 41.7904 51.6292 39.5933 51.5899C37.4447 51.6432 35.2977 51.5963 33.1591 51.4501C31.9128 49.6443 30.7492 47.7795 29.6726 45.8611L29.6751 45.8662C28.5583 44.0012 27.5307 42.0875 26.5949 40.1317C27.5285 38.1728 28.5525 36.2552 29.6645 34.3852L29.6823 34.4004C30.7407 32.5002 31.8859 30.653 33.1135 28.8643C35.2663 28.6963 37.4285 28.6262 39.5933 28.6552C41.7701 28.6232 43.9443 28.6931 46.1089 28.8639ZM47.7911 25.9617C50.9771 26.277 54.1398 26.802 57.2587 27.5335C57.3861 27.0486 57.5084 26.5621 57.6255 26.0741C59.2882 18.0021 57.8518 13.0597 55.8128 11.8852C55.0486 11.5923 54.2319 11.4613 53.4145 11.5002C52.597 11.5392 51.7965 11.7473 51.0636 12.1114C48.2459 13.2742 45.6553 14.9249 43.4111 16.9877C42.8495 17.5043 42.2968 18.0297 41.7531 18.5637C43.9254 20.8966 45.9423 23.368 47.7911 25.9617ZM39.6329 20.739C41.0979 22.3209 42.4885 23.9688 43.8006 25.6771C42.4003 25.6158 40.9973 25.5949 39.5933 25.6145C38.2078 25.5937 36.8233 25.6124 35.4415 25.6702C36.7611 23.9633 38.1597 22.3177 39.6329 20.739ZM37.5066 18.541C35.3182 20.8751 33.2866 23.3499 31.4245 25.9493C28.2484 26.258 25.0951 26.7745 21.9849 27.4956C21.7939 26.7581 21.6149 26.0172 21.448 25.273C20.7865 22.2981 20.6548 19.23 21.059 16.2094C21.1096 15.3931 21.3289 14.5961 21.703 13.8689C22.0772 13.1416 22.5981 12.4998 23.2328 11.984C25.2692 10.8043 30.2675 12.0272 36.4302 17.4984C36.7929 17.8422 37.1517 18.1898 37.5066 18.541ZM22.8147 30.4343C24.9164 29.9541 27.038 29.5699 29.1729 29.2828C28.4253 30.4584 27.7108 31.6562 27.0306 32.875C26.3157 34.0725 25.636 35.2891 24.992 36.5231C24.173 34.5291 23.4463 32.4973 22.8147 30.4343ZM19.8623 31.1759C19.021 31.4065 18.1834 31.6527 17.35 31.9145C10.2314 34.3984 7.04072 37.795 7.04072 40.0501C7.04072 42.4094 10.4704 46.1187 18.0009 48.6941C18.6047 48.8753 19.2107 49.048 19.8186 49.2125C20.7554 46.1102 21.8972 43.0745 23.236 40.1254C21.9172 37.2202 20.79 34.2306 19.8623 31.1759ZM24.9975 43.7379C24.1639 45.7704 23.4246 47.8414 22.7823 49.9441C24.9174 50.4215 27.0729 50.7972 29.2416 51.07C28.4731 49.8668 27.7393 48.6402 27.0412 47.3916C26.3245 46.1924 25.6431 44.9739 24.9975 43.7379ZM35.4732 54.6126C36.8448 54.6578 38.2187 54.6638 39.5933 54.6306C41.0309 54.655 42.4677 54.6371 43.9016 54.577C42.5862 56.3134 41.1888 57.9875 39.714 59.5935C38.2241 57.9985 36.809 56.3364 35.4732 54.6126ZM45.9541 40.0576C45.9541 43.5679 43.1084 46.4135 39.5981 46.4135C36.0878 46.4135 33.2422 43.5679 33.2422 40.0576C33.2422 36.5473 36.0878 33.7017 39.5981 33.7017C43.1084 33.7017 45.9541 36.5473 45.9541 40.0576Z" fill="url(#paint1_linear_2851_29456)"/>
</g>
</g>
<defs>
<linearGradient id="paint0_linear_2851_29456" x1="-36.8828" y1="-39.1073" x2="32.6884" y2="77.4952" gradientUnits="userSpaceOnUse">
<stop offset="0.0001" stop-color="#26D0F5"/>
<stop offset="1" stop-color="#2682F5"/>
</linearGradient>
<linearGradient id="paint1_linear_2851_29456" x1="-36.8828" y1="-29.9102" x2="21.3915" y2="79.8474" gradientUnits="userSpaceOnUse">
<stop offset="0.0001" stop-color="#26D0F5"/>
<stop offset="1" stop-color="#2682F5"/>
</linearGradient>
</defs>
</svg>
