<svg xmlns="http://www.w3.org/2000/svg" id="Isolation_Mode" data-name="Isolation Mode" viewBox="0 0 118.47 158.3"><defs fill="#000000"><style>.cls-1{fill:#000000}</style></defs><path class="cls-1" d="M76.24,31.32c.43.51.86,1,1.27,1.62a36,36,0,0,1,4.56,9.34l.07.2v0H99.8V60.07H85.63C83.26,71.42,72.87,87.18,57.8,91.14l39.06,53H67.92c-6.88-9-7-8.65-50.86-67.5,12.62-.67,39-.78,41-16.57H19.51V42.5H56.65A19.75,19.75,0,0,0,55,39.68a20.65,20.65,0,0,0-4.83-4.82A44.91,44.91,0,0,0,42,31.55l-.84-.23H14.12V13.75h91.07V31.32Z" fill="#000000"/></svg>