<svg id="Layer_1" data-name="Layer 1" xmlns="http://www.w3.org/2000/svg" viewBox="0 0 512 512"><path d="M93.94,46.28H417.28c5,1.17,9,3.44,11.75,8.23,23.8,42.09,47.79,84.07,71.57,126.16a17.81,17.81,0,0,1,2.38,9.09c-1.4,27.37-14.05,47.91-38.25,61-3.15,1.7-4.12,3.52-4.11,7q.17,102.27.08,204.53c0,11.34-4.39,15.81-15.66,15.82H67.22c-11.4,0-15.77-4.37-15.78-15.65q0-101.79.1-203.58c0-4.36-1.1-6.81-5.18-8.86-11.91-6-20.88-15.24-27.75-26.69-5.3-8.84-7.53-18.61-9.6-28.48v-9.65c1.46-2.66,2.89-5.34,4.39-8q34.08-60,68.09-120.08C84.45,51.92,87.9,47.76,93.94,46.28Zm24.61,407.45v-6.55q0-60.3,0-120.59c.05-27.56,17.42-44.87,44.86-44.9,10.14,0,20.3-.52,30.39.18,6.59.46,13.61,1.54,19.49,4.33,16.08,7.65,23.43,21.34,23.47,38.92.09,40.83,0,81.67,0,122.51v5.75H436.2V258.89C423.75,259.1,412,257,401,251.57S381,237.92,373.53,227.81c-14.78,20-34,30.89-58.56,30.94s-44-11.06-58.65-30.66c-28.94,41-89.26,40.71-117.82-.05q-23.25,31.59-62.56,30.88V453.73Zm348.91-282c-.65-1.35-1-2.35-1.58-3.28q-26.78-47.13-53.49-94.29c-1.57-2.79-3.55-3.1-6.28-3.1q-150,.08-300.06,0c-3.31,0-5.11,1-6.77,3.93q-26.11,46.38-52.51,92.62c-.69,1.21-1.24,2.5-2.05,4.15ZM212.39,453.52c.1-1.11.26-2,.26-3q0-63.37,0-126.74c0-10.65-7.22-17.77-17.92-17.92-10.28-.14-20.57,0-30.85,0-14.58,0-20.86,6.24-20.86,20.77q0,60.72,0,121.44v5.45Zm-177.87-257a45.83,45.83,0,0,0,46.21,38c22.26-.47,42-17.23,44.48-38Zm117.56,0c2.8,22.56,25.07,39.55,49,37.88s40.87-22.64,41.22-37.88Zm208,.08H269.81c1.1,19.49,21.6,37.17,43.59,37.91C336.27,235.23,357.39,218.25,360.12,196.55Zm117.68.15H387.05c2.54,20.67,22.09,37.26,44.25,37.84A46.17,46.17,0,0,0,477.8,196.7Z"/><path d="M326.53,399.69c-10.29,0-20.58,0-30.87,0-22.15-.1-35.83-13.66-35.94-35.69q-.12-23.39,0-46.78c.14-21.72,14-35.47,35.68-35.51q31.13-.07,62.23,0c21.72,0,35.59,13.81,35.7,35.5q.12,23.63,0,47.26c-.14,21.25-13.76,35-34.95,35.21C347.76,399.79,337.14,399.69,326.53,399.69Zm-.25-24.24c10.6,0,21.2,0,31.81,0,7.66,0,11-3.25,11-10.75q.11-24.09,0-48.18c0-7.17-3.48-10.59-10.74-10.62q-31.82-.11-63.62,0c-7.26,0-10.72,3.45-10.76,10.59q-.12,24.09,0,48.19c0,7.55,3.29,10.73,11,10.77C305.39,375.49,315.83,375.45,326.28,375.45Z"/></svg>