<svg id="Layer_1" data-name="Layer 1" xmlns="http://www.w3.org/2000/svg" viewBox="0 0 512 512"><path d="M506.62,340.57c-.86,3.36-1.54,6.77-2.59,10.06a50.14,50.14,0,0,1-24.42,29.65c-2.92,1.6-3.78,3.33-3.87,6.56-.37,13.26.6,26.87-2.05,39.7-6.86,33.3-35.88,56-69.88,56.61-11,.18-22,.12-32.93,0-2.7,0-4,.8-5.24,3.29-6.9,13.71-18.13,20.81-33.57,20.91-12,.07-23.95.12-35.93,0-20.37-.25-35.85-15.31-36.47-35.31-.62-19.5,14.14-35.8,34.26-36.82,13.6-.7,27.28-.55,40.9,0,14.38.53,24.59,8,31.05,20.82.68,1.34,2.36,3.13,3.57,3.12,13.79,0,27.68.59,41.35-.85,22.45-2.37,40.24-22.69,40.94-45.29.26-8.62,0-17.26,0-26.12-2.24-.53-4.32-.94-6.35-1.52-13.65-3.92-23.66-16.18-23.78-30.5q-.4-48.66,0-97.31c.13-14.94,10.7-27.21,25.28-30.79,1.42-.35,2.83-.77,4.19-1.14-4.14-95.62-85.48-183-194-183.52-109.44-.48-191.62,87.1-196.22,183.49.85.26,1.76.58,2.7.81,17.6,4.46,27,16.31,27,34.52q.1,45.4,0,90.83c-.09,23.48-18.2,38.44-41.46,34.49C24.4,382,6.25,361.47,5.74,336.27c-.41-20.12-.54-40.26,0-60.38.56-19.63,10-34.44,27.19-44.08a6.24,6.24,0,0,0,3.71-5.66C45.22,131.48,93.39,65.42,182,31.27,268.14-1.95,368.32,27,426.45,98.93c30,37.13,46.19,79.54,49.21,127.11.11,1.78,1.25,4.27,2.67,5.06,15.38,8.58,24.75,21.29,27.58,38.75a8.76,8.76,0,0,0,.71,1.83Zm-24.07-34.25c0-9.81.2-19.63,0-29.43-.38-15.15-12.52-27.32-26.9-27.28-6.29,0-10.09,3.4-10.1,9.76q-.15,46.9,0,93.8c0,6.26,4,9.62,10.28,9.55,14.47-.14,26.39-12.26,26.72-27.46C482.73,325.62,482.56,316,482.55,306.32Zm-415.86.31c0-15.47.07-30.93,0-46.4,0-7.45-3.85-10.88-11.27-10.59-13.79.55-25.5,12.42-25.72,26.88q-.47,29.69,0,59.37c.21,13.86,11.16,25.49,24.3,26.7,8.89.81,12.68-2.58,12.71-11.55C66.73,336.23,66.7,321.43,66.69,306.63ZM314.11,483.38c6.16,0,12.31.1,18.47,0,7.43-.15,12.48-5.07,12.57-12s-4.77-12.2-12.21-12.33q-18.46-.31-36.93,0c-7.45.13-12.45,5.34-12.37,12.21.08,7.12,5.26,12,13,12.15C302.46,483.47,308.29,483.39,314.11,483.38Z"/><path d="M179.38,339.45c-11.11-.38-21-3-29.63-9.18-14.76-10.51-22-25-22-43-.07-33.6-.26-67.21.05-100.81.28-30.61,22-51.95,52.54-52q75.6-.16,151.21,0c30.66.05,52.44,21.14,52.79,51.75q.59,50.64,0,101.31c-.34,30.58-22.18,51.79-52.71,51.93-20.3.09-40.59-.09-60.88.15a11.65,11.65,0,0,0-7.29,3c-13.5,13.07-26.74,26.42-40.1,39.64-8.75,8.66-18.91,11.22-28.54,6.94C184,384.27,179.34,375.53,179.37,364,179.39,356,179.38,348,179.38,339.45Zm24,26.79,1.3.54c1.3-1.22,2.63-2.41,3.89-3.66,14.16-14.07,28.38-28.07,42.41-42.26a17.24,17.24,0,0,1,13.27-5.51c22.61.18,45.22.15,67.84,0,16.72-.07,28.21-11,28.34-27.59q.39-51.13,0-102.27c-.14-16.22-11.46-27.14-27.63-27.18q-76.58-.17-153.15,0c-16.27,0-27.64,10.82-27.79,27q-.47,51.38,0,102.77c.14,16.12,11.56,27,27.65,27.27,4,.08,8-.08,12,.07,7.16.27,11.61,4.82,11.9,12,.09,2.33,0,4.66,0,7Z"/><path d="M273.79,238.88a18,18,0,0,1-18,17.57c-9.67-.2-17.73-8.56-17.45-18.11a17.72,17.72,0,0,1,35.44.54Z"/><path d="M215.46,238.62A17.62,17.62,0,1,1,197.63,221,17.72,17.72,0,0,1,215.46,238.62Z"/><path d="M331.91,238.59a17.62,17.62,0,0,1-35.23.54,17.62,17.62,0,1,1,35.23-.54Z"/></svg>