<svg width="80" height="80" viewBox="0 0 80 80" fill="none" xmlns="http://www.w3.org/2000/svg">
<mask id="mask0_2851_29454" style="mask-type:alpha" maskUnits="userSpaceOnUse" x="0" y="0" width="80" height="80">
<rect width="80" height="80" fill="#D9D9D9"/>
</mask>
<g mask="url(#mask0_2851_29454)">
<mask id="mask1_2851_29454" style="mask-type:alpha" maskUnits="userSpaceOnUse" x="4" y="4" width="72" height="72">
<rect x="4" y="4" width="71.1864" height="71.1864" fill="url(#paint0_linear_2851_29454)"/>
</mask>
<g mask="url(#mask1_2851_29454)">
<path d="M60.2025 38.0517C60.2025 34.2789 58.8455 31.6672 57.6843 29.6339L57.3283 29.0556C55.918 26.7865 54.6855 24.7933 54.6855 22.4708C54.6855 19.6678 56.8122 17.0517 59.811 17.0517C59.9 17.0517 59.9845 17.0606 60.069 17.0651L60.2069 17.0784C54.584 11.9136 47.2246 9.05178 39.5896 9.06106C34.5294 9.05846 29.5481 10.3149 25.0945 12.7172C20.641 15.1196 16.8551 18.5922 14.0781 22.8223C14.79 22.8445 15.4707 22.8623 16.0447 22.8623C19.2347 22.8623 24.1777 22.4753 24.1777 22.4753C25.8239 22.3774 26.0197 24.7933 24.3735 24.989C24.3735 24.989 22.7228 25.1848 20.8809 25.2782L32.0038 58.3532L38.6775 38.3053L33.9169 25.2738C32.2752 25.1759 30.718 24.9846 30.718 24.9846C29.0718 24.8867 29.2675 22.3685 30.9093 22.4664C30.9093 22.4664 35.9546 22.8534 38.9533 22.8534C42.1478 22.8534 47.0953 22.4664 47.0953 22.4664C48.7415 22.3685 48.9328 24.7888 47.2866 24.9846C47.2866 24.9846 45.6315 25.1759 43.794 25.2738L54.8279 58.0952L57.8711 47.92L58.1114 47.1503C59.3127 43.324 60.198 40.4988 60.198 38.0473L60.2025 38.0517Z" fill="url(#paint1_linear_2851_29454)"/>
<path d="M9.06253 39.5945C9.06222 45.3283 10.6761 50.9464 13.7196 55.8059C16.763 60.6653 21.113 64.5698 26.2718 67.0725L11.7009 27.1636C9.95605 31.0753 9.05699 35.3113 9.06253 39.5945Z" fill="url(#paint2_linear_2851_29454)"/>
<path d="M30.9688 68.8822L40.134 42.2629L49.5173 67.979C49.5796 68.1259 49.6507 68.2638 49.7353 68.3973C43.6864 70.5283 37.1196 70.698 30.9688 68.8822ZM66.384 24.9424C66.5175 25.9167 66.5931 26.9579 66.5931 28.0835C66.5931 31.1801 66.0147 34.6638 64.2707 39.0195L54.9452 65.9814C61.8268 61.9832 66.8744 55.4551 69.012 47.7888C71.1497 40.1226 70.2083 31.9245 66.3885 24.9424H66.384Z" fill="url(#paint3_linear_2851_29454)"/>
<path fill-rule="evenodd" clip-rule="evenodd" d="M4 39.5932C4 19.968 19.968 4 39.5932 4C59.214 4 75.1864 19.968 75.1864 39.5932C75.1864 59.2184 59.214 75.1864 39.5932 75.1864C19.968 75.1864 4 59.2184 4 39.5932ZM5.63284 39.5932C5.63284 58.3197 20.8667 73.5536 39.5932 73.5536C58.3153 73.5536 73.5491 58.3197 73.5491 39.5932C73.5491 20.8623 58.3153 5.63284 39.5932 5.63284C20.8623 5.63284 5.63284 20.8623 5.63284 39.5932Z" fill="url(#paint4_linear_2851_29454)"/>
</g>
</g>
<defs>
<linearGradient id="paint0_linear_2851_29454" x1="-36.8828" y1="-39.1073" x2="32.6884" y2="77.4952" gradientUnits="userSpaceOnUse">
<stop offset="0.0001" stop-color="#26D0F5"/>
<stop offset="1" stop-color="#2682F5"/>
</linearGradient>
<linearGradient id="paint1_linear_2851_29454" x1="-12.4139" y1="-20.7881" x2="37.2151" y2="57.0529" gradientUnits="userSpaceOnUse">
<stop offset="0.0001" stop-color="#26D0F5"/>
<stop offset="1" stop-color="#2682F5"/>
</linearGradient>
<linearGradient id="paint2_linear_2851_29454" x1="-0.820925" y1="2.99652" x2="41.2616" y2="33.4106" gradientUnits="userSpaceOnUse">
<stop offset="0.0001" stop-color="#26D0F5"/>
<stop offset="1" stop-color="#2682F5"/>
</linearGradient>
<linearGradient id="paint3_linear_2851_29454" x1="8.47614" y1="-2.42121" x2="55.3535" y2="65.6744" gradientUnits="userSpaceOnUse">
<stop offset="0.0001" stop-color="#26D0F5"/>
<stop offset="1" stop-color="#2682F5"/>
</linearGradient>
<linearGradient id="paint4_linear_2851_29454" x1="-36.8828" y1="-39.1073" x2="32.6884" y2="77.4952" gradientUnits="userSpaceOnUse">
<stop offset="0.0001" stop-color="#26D0F5"/>
<stop offset="1" stop-color="#2682F5"/>
</linearGradient>
</defs>
</svg>
