<svg id="Elements" xmlns="http://www.w3.org/2000/svg" viewBox="0 0 97.28 114.13"><defs><style>.cls-1{fill:#fff;}</style></defs><path class="cls-1" d="M38.56,93.59C42.2,96,47.34,94,50,98.9a13.83,13.83,0,0,1-2.64.33C39.5,98.52,31.67,97.81,23.86,97c-1.27-.14-3.08-.72-3.57-1.66-.91-1.73.66-2.82,2.1-3.71C26.87,88.8,31.32,86,35.8,83.12c1.08,3,1.08,3-5.7,8.79C46.48,91.56,57.84,77.64,54.24,62c-1.53.44-3,.93-4.57,1.31A17.75,17.75,0,0,1,36.59,62c-3.09-1.64-5-4.07-4.93-7.63s2.5-5.72,5.63-7.1c6.77-3,13.46-1.05,17.69,5.11.52.76,1.16,1.44,2,2.41,7.12-6.1,11.85-13.4,13-22.51,1.83-14-8.5-20.62-18.33-22-1.21-.17-2.46-.12-4.45-.2,2.42-2,4.65-1.95,6.81-1.9,8.52.19,16.92,6.59,19.45,14.76a24.6,24.6,0,0,1-.26,15.61A41.3,41.3,0,0,1,60.1,57.76c-.62.5-1.21,1-2,1.73,1.18,7.3,1.41,14.55-2.48,21.37S45.05,90.22,38.56,93.59ZM53,57.54c-2.67-7.15-8.64-10-14.44-6.9a6.68,6.68,0,0,0-3.11,3.81c-.51,2.08,1.19,3.41,3.09,4.25C43.47,60.85,48.12,60.11,53,57.54Z"/></svg>