<?xml version="1.0" encoding="UTF-8"?><svg id="Layer_1" xmlns="http://www.w3.org/2000/svg" viewBox="0 0 832.55 888.51"><defs><style>.cls-1{stroke-width:0px;}</style></defs><path class="cls-1" d="m440.36,347.05c14.78,0,28.99.06,43.19-.1,1.42-.02,3.13-1.12,4.17-2.22,8.87-9.31,19.06-11.67,31.04-6.67,5.96,2.49,12.79-.52,14.97-7.06,7.05-21.13,41.65-20.34,50.55-6.76,1.37,2.09,2.73,4.22,3.75,6.49,3.3,7.31,9.15,9.7,16.76,6.73,10.22-3.98,19.39-2.18,27.38,5.29,5.78,5.4,11.92,10.85,12.29,19.42.2,4.7-.62,9.63-1.99,14.15-2.04,6.75.12,13.11,6.57,15.8,11.4,4.75,16.41,13.35,16.6,25.54.15,9.64-1.18,18.47-9.24,24.81-2.33,1.83-5.12,3.11-7.82,4.4-5.73,2.75-8.57,9.24-6.15,15.12,4.67,11.34,2.48,21-5.88,29.94-9.21,9.83-19.39,14.68-32.69,9.08-.59-.25-1.28-.28-2.65-.56v5.5c0,34.53.01,69.05,0,103.58-.01,26.46-16.85,43.22-43.41,43.23-29.15,0-58.3,0-87.45,0h-5.62v32.03h47.72v15.84h-208.47v-15.5h47.51v-32.37h-5.23c-29.49,0-58.97.02-88.46,0-25.5-.02-42.62-17.07-42.63-42.48-.02-64.03,0-128.05,0-192.08,0-2,0-4.01,0-6.81-7.28,0-14.4.12-21.52-.05-3.32-.08-6.75-.26-9.91-1.18-9.82-2.85-16.76-12.11-16.77-22.63-.09-53.8-.11-107.6,0-161.4.03-13.44,10.58-23.87,24.08-23.88,75.06-.08,150.11-.09,225.17,0,13.92.02,24.09,10.64,24.11,24.89.07,37.71.03,75.42.03,113.13,0,2,0,4,0,6.75Zm112.59,225.04c0-15.57.06-30.78-.13-46-.01-1.04-1.72-2.58-2.95-3.01-7.56-2.66-12.85-7.55-15.97-14.95-3.02-7.18-9.15-9.64-16.34-6.9-2.02.77-4.11,1.46-6.22,1.83-11.99,2.08-20.02-4.49-27.29-12.65-7.13-8-8.88-17.02-5.04-27.04,3.02-7.88.66-13.46-7.08-16.98-9.93-4.51-15.04-12.26-15.51-23.23-.44-10.31.51-20.06,10.39-27.82-9.55,0-17.55-.09-25.55.1-1.14.03-2.73,1.13-3.29,2.17-5.33,9.95-13.68,13.92-24.76,13.88-47.91-.15-95.83-.06-143.74-.06h-5.79v160.67h289.28ZM183,282.86v5c0,32.17,0,64.33,0,96.5,0,8.48,2.53,10.97,11.14,10.97,73.01,0,146.02,0,219.03,0,8.56,0,11.09-2.51,11.09-11.03.01-32.17,0-64.33,0-96.5,0-1.61-.14-3.22-.23-4.94h-241.04Zm241.27-16.43c0-12.53,0-24.57,0-36.61,0-9.18-2.35-11.5-11.62-11.5-68.48,0-136.97,0-205.45,0-4.86,0-9.71-.05-14.57.01-6.62.08-9.52,2.93-9.62,9.45-.07,4.35-.01,8.71-.01,13.07,0,8.48,0,16.95,0,25.58h241.28Zm-193.02,145.23v5.83c0,64.02,0,128.04,0,192.06,0,17.46,9.61,27.15,26.95,27.15,46.24,0,92.47,0,138.71,0h4.74c-10.52-4.68-17.28-11.99-17.47-23.68-.2-12.12,6.61-19.76,17.45-24.6h-5.33c-43.22,0-86.44,0-129.66,0-13.39,0-19.3-5.92-19.3-19.31,0-50.44,0-100.89,0-151.33v-6.12h-16.08Zm368.92,71.8c2.83.75,6.24,1.15,9.2,2.54,6.01,2.82,10.03.38,14.18-3.8,4.09-4.13,6.57-7.95,4.02-14.14-5.88-14.24.64-29.93,14.82-35.82,5.86-2.43,7.19-6.56,7.18-12.31-.02-5.94-.75-10.65-7.2-13.3-14.18-5.82-20.63-21.54-14.78-35.82,2.42-5.91.33-9.75-3.72-13.76-4.06-4.02-7.8-6.86-14.06-4.29-14.6,5.98-30.09-.46-36.14-14.97-2.48-5.95-6.8-6.94-12.45-6.93-5.75,0-10.35.74-12.93,6.97-5.96,14.35-21.52,20.97-35.68,15.08-6.42-2.67-10.3-.04-14.52,4.19-4.04,4.05-6.09,7.85-3.66,13.76,5.86,14.22-.66,29.96-14.84,35.81-6.17,2.55-7.16,6.98-7.16,12.82,0,5.85,1.06,10.26,7.2,12.8,13.95,5.75,20.64,21.53,14.92,35.35-2.5,6.04-.69,10.02,3.56,14.23,4.26,4.22,8.16,6.78,14.55,4.12,13.88-5.79,29.76.81,35.45,14.68,2.5,6.09,6.72,7.42,12.66,7.42,6.04,0,10.68-1.01,13.13-7.46,4.45-11.69,14.48-15.34,26.28-17.17Zm-185.29,153.25c48.06,0,96.12.02,144.18,0,16.02,0,26.02-10.01,26.04-26.03.03-30.49.01-60.99,0-91.48,0-1.38-.19-2.76-.25-3.56-4.13,2.45-7.9,5.36-12.15,6.99-2.97,1.14-3.75,2.38-3.72,5.3.13,13.91.07,27.81.05,41.72-.01,12.67-6.13,18.79-18.8,18.8-43.38,0-86.75,0-130.13,0h-5.37c10.84,4.79,17.63,12.45,17.45,24.55-.17,11.68-6.88,19.04-17.31,23.73Zm33.09,48.18v-31.75h-79.61v31.75h79.61Zm-7.4-305.97h39.08c-1.11-5.3-2.16-10.29-3.25-15.5h-35.83v15.5Zm-24.39,233.89c.14-4.35-3.4-8.11-7.76-8.25-4.35-.14-8.1,3.39-8.24,7.76-.14,4.35,3.4,8.11,7.75,8.25,4.33.14,8.11-3.42,8.25-7.76Z"/><path class="cls-1" d="m440.14,427.87v15.46h-160.39v-15.46h160.39Z"/><path class="cls-1" d="m279.74,475.43v-15.47h160.39v15.47h-160.39Z"/><path class="cls-1" d="m274.02,549.54c8.52-8.28,17.22-16.74,26.3-25.57-9-8.81-17.68-17.31-26.58-26.02,4.27-3.95,8.01-7.41,11.43-10.57,12.11,12.11,24.49,24.49,36.63,36.63-12.1,11.98-24.63,24.38-37.31,36.93-2.87-3.12-6.24-6.79-10.48-11.4Z"/><path class="cls-1" d="m327.99,555.89v-15.47h63.7v15.47h-63.7Z"/><path class="cls-1" d="m344.2,299.01h63.73v79.83h-63.73v-79.83Zm47.53,63.93v-47.82h-31.51v47.82h31.51Z"/><path class="cls-1" d="m199.5,331.14h127.94v15.65h-127.94v-15.65Z"/><path class="cls-1" d="m327.53,299.12v15.5h-79.79v-15.5h79.79Z"/><path class="cls-1" d="m199.19,378.92v-15.37h47.78v15.37h-47.78Z"/><path class="cls-1" d="m199.38,299.02h31.5v15.53h-31.5v-15.53Z"/><path class="cls-1" d="m296.02,363.25h31.36v15.65h-31.36v-15.65Z"/><path class="cls-1" d="m263.75,363.25h15.35v15.62h-15.35v-15.62Z"/><path class="cls-1" d="m214.96,234.67v15.5h-15.58v-15.5h15.58Z"/><path class="cls-1" d="m231.52,234.63h15.47v15.56h-15.47v-15.56Z"/><path class="cls-1" d="m263.68,234.62h15.49v15.59h-15.49v-15.59Z"/><path class="cls-1" d="m617.28,419.56c-.05,30.96-25.42,56.26-56.38,56.21-30.93-.05-56.23-25.45-56.18-56.41.05-30.95,25.44-56.25,56.38-56.2,30.96.05,56.23,25.41,56.18,56.4Zm-96.48-.26c-.07,22.19,18.01,40.36,40.16,40.38,21.96.02,40.06-17.9,40.23-39.81.17-22.24-17.77-40.5-39.91-40.62-22.21-.12-40.41,17.89-40.48,40.05Z"/><path class="cls-1" d="m561.11,443.59c-13.34.05-24.28-10.92-24.22-24.27.06-13.13,10.87-23.93,24-23.98,13.35-.05,24.28,10.9,24.22,24.26-.06,13.13-10.87,23.93-24,23.99Zm-.13-16.12c4.35.01,8.01-3.63,8.03-7.98.01-4.36-3.62-8.02-7.98-8.03-4.36-.01-8.01,3.61-8.02,7.98-.02,4.36,3.62,8.02,7.97,8.03Z"/></svg>