<?xml version="1.0" encoding="utf-8"?>
<!-- Generator: Adobe Illustrator 26.0.0, SVG Export Plug-In . SVG Version: 6.00 Build 0)  -->
<svg version="1.1" id="Layer_1" xmlns="http://www.w3.org/2000/svg" xmlns:xlink="http://www.w3.org/1999/xlink" x="0px" y="0px"
	 viewBox="0 0 595.3 841.9" style="enable-background:new 0 0 595.3 841.9;" xml:space="preserve">
<style type="text/css">
	.st0{fill:#FFFFFF;}
</style>
<path class="st0" d="M58.3,625c3.6-7.8,9.8-10.8,18.3-10c3.1,0.3,6.3,0,9.8,0v-5.3c0-26.3,0-52.6,0-78.9c0-15.2,9.4-24.6,24.5-24.6
	c11.1,0,22.1,0,33.1,0c14.3,0,24,9.6,24,23.8c0,26.5,0,52.9,0,79.4v5.3h27.2v-5.2c0-36.9,0-73.8,0-110.7c0-16.1,9.1-25.3,25.3-25.3
	c10.9,0,21.8,0,32.7,0c14,0.1,23.7,9.6,23.7,23.7c0,37.3,0,74.7,0,112.1v5.6h27.2v-5.2c0-53.5,0-107.1,0-160.6
	c0-16.4,9.1-25.5,25.6-25.5c10.7,0,21.5,0,32.2,0c14.3,0.1,23.9,9.6,23.9,23.9c0,53.8,0,107.7,0,161.5v5.7h27.2v-5.4
	c0-83.6,0-167.2,0-250.9c0-16.7,9-25.6,25.8-25.6c10.6,0,21.2,0,31.8,0c14.6,0.1,24.1,9.5,24.1,24.2c0,84.1,0,168.2,0,252.2v5.7
	h12.1c8.7,0,14,3.7,15.7,10.8c1.5,6.4-1.7,12-9.1,15.8c-0.2,0.1-0.4,0.4-0.5,0.7H68.3c-4.4-2.1-7.9-5.6-10-10L58.3,625z
	 M467.3,614.8V360.4h-26.7v254.4L467.3,614.8z M358.4,614.8V451.1h-26.7v163.7L358.4,614.8z M249.6,500.9h-26.7v113.8h26.7V500.9z
	 M114,533.5v81.1h26.7v-81.1H114z"/>
<path class="st0" d="M58.3,453.5c3-8.1,9-10.8,17.4-10.8c53.2-0.4,103.9-12.8,152.6-33.5c75.6-32.1,140.1-79.3,193.6-141.7
	c14.5-16.9,27.5-35.2,38.7-54.5c-1.3,0.1-2.5,0.3-3.8,0.5c-16,4.3-32.1,8.6-48.1,12.9c-10.5,2.7-19.2-4.2-18.2-14.4
	c0.5-5.6,4.4-10.1,10.5-11.7c24.8-6.7,49.6-13.3,74.4-19.9c3.8-1,7.6-2.3,11.4-2.6c6.3-0.6,12.1,3.6,13.6,9.7
	c7.5,27.8,14.9,55.7,22.3,83.6c1.9,7.2-2.3,14.5-9.5,16.4c-0.1,0-0.2,0-0.3,0.1c-7.4,1.9-14.5-2.2-16.7-10.1c-4.2-15-8.1-30-12.1-45
	c-0.2-0.9-0.6-1.7-1-3c-0.6,0.6-1.1,1.2-1.5,1.9c-29.6,48.8-68.1,89.6-112.4,125.2c-53.9,43.1-113.4,75.7-179.7,95.6
	c-36.8,11.2-74.9,17.3-113.3,18c-8.4,0.1-14.3-2.4-17.7-10.3L58.3,453.5z"/>
</svg>
