<?xml version="1.0" encoding="UTF-8"?><svg id="Layer_1" xmlns="http://www.w3.org/2000/svg" viewBox="0 0 832.55 888.51"><defs><style>.cls-1{stroke-width:0px;}</style></defs><path class="cls-1" d="m314.56,692.43c-3.23-2.3-6.23-4.8-5.55-9.35.67-4.45,3.98-6.35,7.81-7.71,13.35-4.75,26.54-10.01,40.09-14.07,6.19-1.85,13.09-1.81,19.68-1.83,47.98-.14,95.95-.12,143.93-.03,8.26.02,14.96-2.77,20.74-8.67,33.33-34.06,66.74-68.03,100.18-101.99,4.44-4.51,7.18-9.57,6.03-16.05-2.34-13.27-16.91-18.45-27.58-9.64-17.43,14.4-34.7,29-52.04,43.51-2.72,2.28-5.42,4.6-8.18,6.84-6.19,5.01-11.31,9.69-12.54,19.05-1.95,14.92-15.59,25.18-30.6,25.29-30.37.23-60.74.12-91.1.08-5.75,0-9.23-3.37-9.12-8.38.11-4.91,3.68-8.08,9.51-8.09,29.56-.05,59.12,0,88.68-.04,9.63-.02,16.62-6.06,17.34-14.74.85-10.13-7.08-18.24-18.05-18.26-26.65-.05-53.31-.16-79.96.07-8.13.07-15.08-1.95-21.52-7.02-12.57-9.88-27.3-10.48-42.43-9.11-38.88,3.51-71.43,21.28-100.71,45.61-17.25,14.33-33.22,30.18-50.06,45.01-11.39,10.03-23.27,19.5-34.98,29.16-6.9,5.69-10.73,5.17-15.94-1.96,0-1.62,0-3.23,0-4.85,1.2-1.49,2.21-3.19,3.63-4.44,27.03-23.78,53.94-47.7,81.23-71.18,24.55-21.13,51.48-38.39,82.91-47.64,20.35-5.98,41.03-8.56,62.23-5.36,3.53-6.88,2.74-12.73-2.69-18.27-12.1-12.34-24.32-24.56-36.37-36.96-11.86-12.2-11.97-30.48.35-40.84,4.09-3.44,9.78-5.81,15.09-6.8,16.65-3.1,33.45-5.42,50.22-7.77,5.2-.73,8.49-3.19,10.67-7.86,7.65-16.36,15.32-32.72,23.21-48.97,8.01-16.5,27.07-21.29,40.36-9.93,3.43,2.93,6.1,7.12,8.13,11.22,7.72,15.61,15.13,31.38,22.43,47.2,2.33,5.04,5.69,7.63,11.31,8.4,16.79,2.28,33.52,4.96,50.26,7.59,10.57,1.66,18.18,7.31,21.92,17.48,3.85,10.46,2.22,20.32-5.36,28.41-11.91,12.74-24.2,25.13-36.64,37.36-4.96,4.88-7.31,9.98-5.46,16.88.91,3.4,1.25,6.96,1.96,11.08,1.5-1.1,2.63-1.84,3.66-2.7,13.02-10.86,25.87-21.94,39.09-32.56,10.81-8.69,23.06-10.02,35.45-3.98,12.44,6.06,18.6,16.65,18.6,30.47,0,8.57-3.24,16.14-9.25,22.27-34.6,35.3-69.21,70.59-103.93,105.77-8.11,8.22-18.28,11.77-29.8,11.76-47.65-.04-95.31.1-142.96-.09-12.66-.05-24.67,2.12-36.25,7.16-7.53,3.28-15.17,6.29-22.76,9.43h-4.85Zm227.99-126.23c2.45-2.02,4.32-3.84,6.46-5.25,3.06-2.03,4.06-4.38,3.16-8.1-1.25-5.16-1.65-10.52-2.79-15.72-2.73-12.45.58-22.73,9.78-31.64,11.95-11.57,23.44-23.61,35.11-35.47,3.54-3.6,5.16-7.71,3.42-12.77-1.71-4.97-5.52-6.61-10.36-7.32-16.29-2.36-32.51-5.15-48.81-7.36-11.46-1.56-19.17-7.46-23.97-17.86-7.3-15.81-14.96-31.46-22.3-47.25-1.99-4.27-4.55-7.6-9.57-7.63-5.02-.03-7.63,3.26-9.62,7.54-7.43,15.93-15.15,31.72-22.55,47.67-4.75,10.25-12.44,15.96-23.69,17.5-16.78,2.3-33.5,5.05-50.25,7.58-4.15.63-7.26,2.55-8.81,6.59-2.05,5.35-.41,9.7,3.47,13.6,12.18,12.26,24.27,24.61,36.45,36.87,6.11,6.16,9.48,13.42,9.04,22.16-.19,3.69-.99,7.35-1.41,11.04-.12,1.07-.26,2.93.21,3.15,5.54,2.65,9.24,8.47,16.44,8.4,25.36-.24,50.72.21,76.07-.22,13.71-.23,25.58,2.8,34.54,14.49Z"/><path class="cls-1" d="m266.79,385.04c1.96-12.01,3.91-26.08,6.68-40,1.41-7.06.2-12.19-5.26-17.19-8.92-8.17-17.1-17.15-25.65-25.73-7.39-7.41-10.07-16.02-6.65-26.08,3.4-10,10.98-14.57,21.09-15.96,12.46-1.71,24.87-3.89,37.34-5.5,4.6-.59,7.1-2.77,8.97-6.84,6-13.04,12.05-26.06,18.52-38.87,7.57-15,27.13-17.23,37.46-4.45,1.7,2.1,2.98,4.6,4.16,7.06,5.79,12.07,11.57,24.14,17.17,36.3,1.85,4.02,4.36,6.19,9.02,6.77,12.8,1.6,25.53,3.78,38.3,5.67,9.76,1.44,16.94,6.33,20.15,15.83,3.24,9.57,1.04,18.19-6.01,25.42-9.47,9.71-18.96,19.41-28.63,28.92-3.36,3.3-4.27,6.73-3.43,11.32,2.54,13.96,4.86,27.98,6.98,42.01,1.45,9.6-1.84,17.63-9.77,23.26-7.7,5.47-15.95,5.45-24.2.95-12.04-6.57-24.11-13.07-36.06-19.79-3.48-1.96-6.41-2-9.91-.02-12.09,6.81-24.22,13.55-36.51,19.96-16.16,8.44-34.13-2.84-33.74-23.04Zm16.6.93c-.25,7.26,4.36,10.23,10.13,7.13,11.79-6.34,23.62-12.62,35.21-19.3,9-5.19,17.57-5.16,26.54-.03,11.48,6.56,23.09,12.9,34.83,19,2.09,1.09,6.04,1.62,7.37.43,1.88-1.68,3.24-5.34,2.9-7.9-1.86-13.74-4.09-27.44-6.66-41.07-1.9-10.1.68-18.33,7.99-25.5,9.57-9.38,19.05-18.87,28.14-28.71,1.84-1.99,3-6.1,2.25-8.54-.66-2.13-4.28-4.24-6.9-4.71-12.53-2.28-25.13-4.29-37.77-5.83-10.29-1.26-17.2-6.3-21.47-15.68-5.67-12.47-11.55-24.86-17.69-37.11-1.14-2.27-3.74-4.67-6.1-5.25-3.47-.86-5.15,2.36-6.52,5.28-6.04,12.84-12.18,25.63-18.24,38.46-3.73,7.91-9.88,12.62-18.48,13.97-13.07,2.05-26.15,4-39.24,5.89-3.47.5-6.81,1.01-8.14,4.89-1.34,3.92.44,6.78,3.13,9.48,8.67,8.68,16.98,17.76,25.96,26.1,9.09,8.45,11.8,18.1,9.25,30.16-2.76,13.08-4.46,26.39-6.49,38.84Z"/><path class="cls-1" d="m501.57,325.65c1.05-6.32,2.26-14.29,3.76-22.2.69-3.65.07-6.35-2.83-8.97-5.02-4.54-9.64-9.53-14.39-14.36-5.09-5.17-6.84-11.32-4.55-18.21,2.29-6.91,7.34-10.71,14.61-11.68,6.71-.89,13.39-2.06,20.1-2.96,2.81-.38,4.54-1.54,5.74-4.27,2.98-6.78,6.35-13.4,9.51-20.11,3.03-6.43,8.02-10.13,15.14-10.21,7.35-.08,12.46,3.74,15.58,10.31,3.18,6.7,6.18,13.49,9.64,20.04.86,1.63,3.03,3.18,4.85,3.57,7.09,1.5,14.28,2.55,21.45,3.7,6.84,1.1,11.51,4.88,13.8,11.36,2.3,6.5.97,12.51-3.66,17.53-5.04,5.45-10.26,10.74-15.62,15.87-2.34,2.24-3.13,4.37-2.47,7.64,1.47,7.26,2.46,14.62,3.62,21.95,1.13,7.2-1.13,13.18-7.11,17.33-6.06,4.2-12.4,3.7-18.69.14-5.89-3.33-11.96-6.37-17.77-9.84-2.6-1.55-4.57-1.36-7.06.09-6.27,3.64-12.61,7.2-19.08,10.47-11.88,6-24.78-2.22-24.55-17.19Zm-3.75-58.62c6.08,5.9,11.06,11.16,16.49,15.9,7.38,6.46,9.36,14.14,7.21,23.55-1.59,6.96-2.34,14.11-3.62,22.1,6.44-3.51,12.21-6.1,17.38-9.59,9.13-6.18,17.77-6.28,26.96-.13,5.22,3.49,11.05,6.07,17.45,9.51-1.31-8.28-2.06-15.52-3.67-22.56-2.09-9.13.16-16.38,7.11-22.65,5.35-4.82,10.18-10.21,16.16-16.28-7.41-1.13-13.53-2.5-19.7-2.91-10.81-.73-18.07-5.5-21.88-15.93-2.28-6.24-5.66-12.09-8.89-18.83-3.91,8.2-7.48,15.43-10.82,22.76-3.01,6.61-7.96,10.24-15.17,11.19-7.92,1.04-15.79,2.43-25,3.87Z"/></svg>