<svg id="Layer_1" data-name="Layer 1" xmlns="http://www.w3.org/2000/svg" viewBox="0 0 595.28 841.89"><path d="M385,173.49l30.63,68.58H441c25.52,0,51-.19,76.57.07,20.39.2,35.32,14.85,35.39,34.09s-14.82,34.17-35.15,34.33c-34.65.28-69.3.08-104.74.08-1.32,4.51-2.58,8.77-3.81,13A171.92,171.92,0,0,1,245.4,447.76c-21.93.18-43.88,0-68.37,0,19.73,23.27,37.83,44.64,55.95,66q88.75,104.52,177.46,209.07c18.41,21.77,9.68,51.61-16.67,57.72-15,3.48-26.55-2.67-36.17-14q-53.84-63.71-108-127.18Q167.53,542.68,85.4,446c-2.47-2.9-4.86-5.87-7.34-8.75-9.88-11.5-12.41-24.43-6.06-38.21s18.06-19.88,33.17-19.86c46.1.05,92.2.46,138.29-.12,43.15-.55,74.55-20.79,94.14-59.26a33.51,33.51,0,0,0,1.82-4.17,38.24,38.24,0,0,0,.92-4.45c-4.17-.2-8.12-.54-12.07-.54q-112,0-224-.05c-19.19,0-33.07-9.95-36.88-26-5.33-22.46,10.88-42.38,35.13-42.44,65.53-.18,131.06-.07,196.58-.07h42.38c-14.68-36.16-39.42-58-75.86-66.14-8.45-1.88-17.37-2.29-26.07-2.33-46.1-.22-92.2,0-138.3-.19-16.17-.07-29.32-10.06-33.51-24.47-4.06-14,.69-29.59,13.09-37.21,6.16-3.79,14.12-6.51,21.27-6.53Q309.52,104.65,517,105c21.08,0,36.25,14.93,36,34.6s-15.38,33.8-36.79,33.87c-40.38.14-80.76,0-121.15,0Z"/></svg>