<?xml version="1.0" encoding="utf-8"?>
<!-- Generator: Adobe Illustrator 26.0.0, SVG Export Plug-In . SVG Version: 6.00 Build 0)  -->
<svg version="1.1" id="Layer_1" xmlns="http://www.w3.org/2000/svg" xmlns:xlink="http://www.w3.org/1999/xlink" x="0px" y="0px"
	 viewBox="0 0 512 512" style="enable-background:new 0 0 512 512;" xml:space="preserve">
<style type="text/css">
	.st0{fill:#FFFFFF;}
</style>
<path class="st0" d="M93.9,46.3h323.3c5,1.2,9,3.4,11.8,8.2c23.8,42.1,47.8,84.1,71.6,126.2c1.6,2.8,2.4,5.9,2.4,9.1
	c-1.4,27.4-14,47.9-38.2,61c-3.1,1.7-4.1,3.5-4.1,7c0.1,68.2,0.1,136.4,0.1,204.5c0,11.3-4.4,15.8-15.7,15.8H67.2
	c-11.4,0-15.8-4.4-15.8-15.6c0-67.9,0-135.7,0.1-203.6c0-4.4-1.1-6.8-5.2-8.9c-11.9-6-20.9-15.2-27.8-26.7
	c-5.3-8.8-7.5-18.6-9.6-28.5v-9.6c1.5-2.7,2.9-5.3,4.4-8c22.7-40,45.4-80,68.1-120.1C84.4,51.9,87.9,47.8,93.9,46.3z M118.6,453.7
	v-6.5c0-40.2,0-80.4,0-120.6c0.1-27.6,17.4-44.9,44.9-44.9c10.1,0,20.3-0.5,30.4,0.2c6.6,0.5,13.6,1.5,19.5,4.3
	c16.1,7.6,23.4,21.3,23.5,38.9c0.1,40.8,0,81.7,0,122.5v5.8h199.4V258.9c-12.5,0.2-24.2-1.9-35.2-7.3s-20-13.7-27.5-23.8
	c-14.8,20-34,30.9-58.6,30.9s-44-11.1-58.6-30.7c-28.9,41-89.3,40.7-117.8-0.1c-15.5,21.1-36.4,31.4-62.6,30.9v194.8h42.6V453.7z
	 M467.5,171.7c-0.6-1.4-1-2.4-1.6-3.3c-17.9-31.4-35.7-62.9-53.5-94.3c-1.6-2.8-3.5-3.1-6.3-3.1c-100,0.1-200,0.1-300.1,0
	c-3.3,0-5.1,1-6.8,3.9c-17.4,30.9-34.9,61.8-52.5,92.6c-0.7,1.2-1.2,2.5-2,4.1L467.5,171.7z M212.4,453.5c0.1-1.1,0.3-2,0.3-3
	c0-42.2,0-84.5,0-126.7c0-10.6-7.2-17.8-17.9-17.9c-10.3-0.1-20.6,0-30.9,0c-14.6,0-20.9,6.2-20.9,20.8c0,40.5,0,81,0,121.4v5.5
	L212.4,453.5L212.4,453.5z M34.5,196.5c3.9,22.4,23.5,38.5,46.2,38c22.3-0.5,42-17.2,44.5-38H34.5z M152.1,196.5
	c2.8,22.6,25.1,39.6,49,37.9s40.9-22.6,41.2-37.9H152.1z M360.1,196.6h-90.3c1.1,19.5,21.6,37.2,43.6,37.9
	C336.3,235.2,357.4,218.2,360.1,196.6L360.1,196.6z M477.8,196.7H387c2.5,20.7,22.1,37.3,44.2,37.8C454,235.1,473.7,219,477.8,196.7
	L477.8,196.7z"/>
<path class="st0" d="M326.5,399.7c-10.3,0-20.6,0-30.9,0c-22.1-0.1-35.8-13.7-35.9-35.7c-0.1-15.6-0.1-31.2,0-46.8
	c0.1-21.7,14-35.5,35.7-35.5c20.8,0,41.5,0,62.2,0c21.7,0,35.6,13.8,35.7,35.5c0.1,15.8,0.1,31.5,0,47.3c-0.1,21.2-13.8,35-35,35.2
	C347.8,399.8,337.1,399.7,326.5,399.7z M326.3,375.5c10.6,0,21.2,0,31.8,0c7.7,0,11-3.2,11-10.8c0.1-16.1,0.1-32.1,0-48.2
	c0-7.2-3.5-10.6-10.7-10.6c-21.2-0.1-42.4-0.1-63.6,0c-7.3,0-10.7,3.5-10.8,10.6c-0.1,16.1-0.1,32.1,0,48.2c0,7.5,3.3,10.7,11,10.8
	C305.4,375.5,315.8,375.5,326.3,375.5z"/>
</svg>
