<svg width="80" height="80" viewBox="0 0 80 80" fill="none" xmlns="http://www.w3.org/2000/svg">
<mask id="mask0_2851_29460" style="mask-type:alpha" maskUnits="userSpaceOnUse" x="0" y="0" width="80" height="80">
<rect width="80" height="80" fill="#D9D9D9"/>
</mask>
<g mask="url(#mask0_2851_29460)">
<mask id="mask1_2851_29460" style="mask-type:alpha" maskUnits="userSpaceOnUse" x="5" y="4" width="72" height="72">
<rect x="5" y="4" width="71.1864" height="71.1864" fill="#D9D9D9"/>
</mask>
<g mask="url(#mask1_2851_29460)">
<path fill-rule="evenodd" clip-rule="evenodd" d="M40 11.8455V4L73 15.786L67.9667 59.4865L40 75V48.0559H48.4712L52.6356 58.4492H60.3593L40 12V11.881V11.8455ZM40 41.6492V27.7766L45.7661 41.6492H40Z" fill="url(#paint0_linear_2851_29460)"/>
<path fill-rule="evenodd" clip-rule="evenodd" d="M40 11.8455V4L7 15.786L12.0333 59.4865L40 75V48.0559H31.5288L27.3644 58.4492H19.6407L40 12V11.881V11.8455ZM40 41.6492V27.7766L34.2339 41.6492H40Z" fill="url(#paint1_linear_2851_29460)"/>
</g>
</g>
<defs>
<linearGradient id="paint0_linear_2851_29460" x1="39.786" y1="3.51008" x2="83.9232" y2="38.2201" gradientUnits="userSpaceOnUse">
<stop stop-color="#26D0F5"/>
<stop offset="1" stop-color="#2682F5"/>
</linearGradient>
<linearGradient id="paint1_linear_2851_29460" x1="-3.5" y1="3.5" x2="20.4184" y2="47.57" gradientUnits="userSpaceOnUse">
<stop stop-color="#26D0F5"/>
<stop offset="1" stop-color="#2682F5"/>
</linearGradient>
</defs>
</svg>
