<?xml version="1.0" encoding="UTF-8"?>
<svg width="12px" height="15px" viewBox="0 0 12 15" version="1.1" xmlns="http://www.w3.org/2000/svg" xmlns:xlink="http://www.w3.org/1999/xlink">
    <title>E59C8501-3D49-4978-A158-9565D9423DC9</title>
    <g id="Style-guide" stroke="none" stroke-width="1" fill="none" fill-rule="evenodd">
        <g id="Atlantis-Style-Guide" transform="translate(-1170.000000, -829.000000)" fill="#2B2B2B" fill-rule="nonzero">
            <g id="close-copy" transform="translate(1170.000000, 829.000000)">
                <path d="M7.09937954,7.28010794 L11.7719384,1.61044619 C12.0760205,1.2416582 12.0760205,0.645378987 11.7719384,0.276590994 C11.4679985,-0.0921969981 10.9765698,-0.0921969981 10.67263,0.276590994 L5.99992881,5.94625279 L1.32737002,0.276590994 C1.02328783,-0.0921969981 0.532001479,-0.0921969981 0.228061642,0.276590994 C-0.0760205472,0.645378987 -0.0760205472,1.2416582 0.228061642,1.61044619 L4.90062046,7.28010794 L0.228061642,12.9497697 C-0.0760205472,13.3185577 -0.0760205472,13.9148369 0.228061642,14.2836249 C0.379533294,14.4675871 0.578695748,14.56 0.77771585,14.56 C0.976735916,14.56 1.17575602,14.4675871 1.32737002,14.2836249 L5.99992881,8.61396314 L10.67263,14.2836249 C10.824244,14.4675871 11.0232641,14.56 11.2222842,14.56 C11.4213043,14.56 11.6203243,14.4675871 11.7719384,14.2836249 C12.0760205,13.9148369 12.0760205,13.3185577 11.7719384,12.9497697 L7.09937954,7.28010794 Z" id="Path"></path>
            </g>
        </g>
    </g>
</svg>