<?xml version="1.0" encoding="UTF-8"?><svg id="Layer_1" xmlns="http://www.w3.org/2000/svg" viewBox="0 0 832.55 888.51"><defs><style>.cls-1{stroke-width:0px;}</style></defs><path class="cls-1" d="m171.91,399.92c0-29.28,0-58.55,0-87.83.23-.44.53-.85.68-1.31,5.42-16.64,14.99-23.63,32.44-23.64,15.79,0,31.57,0,47.36,0,1.74,0,3.48,0,4.83,0,.89-7.91,1.19-15.1,2.59-22.07,5.32-26.64,14.56-50.43,44.85-57.77h13.97c14.4,2.84,25.25,11.87,36.32,20.62,12.52,9.89,25.29,19.44,37.78,29.36,2.72,2.16,4.43,2.15,7.3.24,3.83-2.54,8.07-4.78,12.44-6.15,24.02-7.52,46.82-5.5,67.99,9.77,15.16-11.72,30.47-23.39,45.59-35.3,10.34-8.14,20.73-16.06,34.1-18.55h13.97c14.12,3.33,24.94,11.16,32.39,23.65,5.77,9.67,9.59,20.1,11.46,31.15,1.37,8.15,2.1,16.41,3.17,25.05,10.72,0,21.5-.15,32.28.03,15.81.26,29.1,12.64,29.33,28.22.41,27.1.2,54.22.1,81.33-.02,6.01-4.09,9.85-10.1,10.12-3.11.14-6.23.02-9.79.02v6.37c0,90.81-.05,181.63.07,272.44.01,9.59-3.62,17.08-10.78,23.04-8.12,6.77-17.54,9.62-28.13,9.61-132.89-.07-265.79-.05-398.68-.05-21.6,0-33.56-12.01-33.56-33.68,0-90.48,0-180.96,0-271.44,0-1.95,0-3.89,0-6.15-7.71-.3-15.84,1.54-19.96-7.1Zm163.65,54.72c-1.55.31-2.67.46-3.75.75-12.67,3.39-25.33,6.81-38.01,10.2-6.93,1.85-11.08.89-13.9-3.18-2.94-4.23-2.4-8.19,1.97-14.09,8.02-10.82,16.06-21.62,24.07-32.44,2.03-2.74,4.02-5.51,6.26-8.6h-100.37c0,1.52,0,2.68,0,3.83,0,91.65,0,183.29,0,274.94,0,8.79,3.57,12.28,12.52,12.29,56.05.01,112.1,0,168.16,0h4.59v-258.46c-5.53,10.91-10.48,20.66-15.42,30.42-5.1,10.08-10.16,20.18-15.27,30.25-2.07,4.07-5.38,6.46-10.02,6.02-4.8-.46-7.82-3.31-9-8.05-.56-2.25-1.23-4.48-1.84-6.73-3.32-12.31-6.62-24.62-10-37.15Zm141.88,243.7h4.29c47.73,0,95.46,0,143.19,0,.83,0,1.66.01,2.49-.04,10.31-.64,15.58-6.17,15.58-16.33,0-89.64,0-179.27,0-268.91v-5.88h-79.92c6.42,8.85,12.42,17.14,18.44,25.42,4.39,6.05,8.87,12.05,13.17,18.17,2.64,3.76,2.86,7.84.15,11.64-2.67,3.74-6.43,5.09-10.97,3.89-2.57-.68-5.13-1.38-7.7-2.07-12.14-3.24-24.29-6.47-36.66-9.77-.55,1.68-1.02,2.9-1.35,4.15-3.4,12.67-6.76,25.34-10.17,38.01-1.75,6.52-4.72,9.67-9.6,9.97-5.68.35-8.64-3.18-10.96-7.81-8.98-17.97-18.07-35.89-27.14-53.82-.69-1.37-1.53-2.67-2.84-4.91v258.29Zm-40.04-338.27c-6.36,12.58-12.23,23.93-17.81,35.42-1.25,2.57-2.07,5.64-2.07,8.48-.1,96.28-.09,192.57-.09,288.86,0,1.75,0,3.51,0,5.28h39.92c0-1.35,0-2.46,0-3.58,0-97.28,0-194.57-.02-291.85,0-1.31.07-2.78-.48-3.89-6.25-12.59-12.61-25.13-19.46-38.72Zm58.42-52.96c-.25.53-.5,1.05-.75,1.58.99.84,1.88,1.85,2.98,2.5,17.59,10.37,35.1,20.9,52.87,30.95,17.46,9.88,32.66,5.57,40.83-12.57,12.61-27.98,12.33-56.64-.35-84.45-9.07-19.9-26.9-23.49-44.25-10.22-15.58,11.9-31.04,23.96-46.54,35.95q-7.82,6.05-4.98,15.26c.09.28.4.49.9,1.05,9.84,0,19.96-.1,30.08.03,6.86.09,11.58,5.52,10.44,11.65-.93,5.03-4.99,8.2-10.9,8.24-10.1.08-20.21.02-30.31.02Zm-112.63-32.06c-17.82-13.78-35.45-27.63-53.32-41.17-15.49-11.74-32.61-7.9-42.05,9.11-1.2,2.17-2.27,4.44-3.19,6.75-5.88,14.8-7.68,30.25-6.62,46,.91,13.53,3.67,26.66,11.01,38.41,5.81,9.3,14.11,14.21,25.12,12.64,4.79-.68,9.66-2.62,13.9-5.02,16.33-9.25,32.45-18.87,48.56-28.52,1.34-.8,1.93-2.86,2.87-4.33-1.51-.6-3-1.69-4.52-1.72-9.14-.17-18.29.05-27.44-.16-5.74-.13-9.84-4.46-9.88-9.83-.04-5.37,4.04-9.64,9.72-10,2.48-.16,4.99-.05,7.48-.05,8.09,0,16.18,0,23.85,0,1.61-4.31,2.94-7.88,4.51-12.1Zm-191.27,111.66c1.25.12,1.9.23,2.54.23,43.2.01,86.4.04,129.61-.1,1.77,0,4.13-1.22,5.22-2.64,7.79-10.14,15.34-20.47,22.93-30.76.67-.91,1.16-1.95,2.11-3.59-8.23,4.55-15.42,9.09-23.07,12.63-20.94,9.68-42.89,4.11-56.49-13.93-6.5-8.62-10.51-18.4-13.08-28.81-1.02-4.14-1.88-8.32-2.85-12.61-19.26,0-38.19-.09-57.13.06-5.51.04-9.69,3.98-9.73,9.39-.17,23.24-.07,46.48-.07,70.14Zm427.41-79.5c-.46,2.26-.85,4.2-1.23,6.14-2.54,12.84-6.79,24.97-14.79,35.53-11.9,15.72-30.41,22.4-49.09,16.01-10.07-3.44-19.23-9.54-28.79-14.46-1.49-.77-2.95-1.61-4.43-2.41,7.96,12.29,16.43,23.78,24.69,35.43,1.83,2.58,3.71,3.59,6.92,3.58,35.22-.13,70.45-.08,105.68-.09,1.44,0,2.88-.17,4.6-.27,0-23.71.1-47.11-.08-70.5-.04-4.73-3.94-8.75-8.61-8.87-11.59-.29-23.2-.1-34.86-.1Zm-57.31,132.51c-26.95-37.05-53.05-72.93-78.28-107.62-10.61,5.23-20.42,10.06-30.51,15.02,20.1,39.78,40.49,80.14,61.45,121.63,2.62-9.67,4.88-18.06,7.19-26.44,2.5-9.1,6.68-11.47,15.82-9.05,7.65,2.03,15.3,4.06,24.33,6.46Zm-140.4-92.71c-10.12-4.86-19.44-9.34-29.34-14.09-25.62,34.56-51.89,70.02-78.17,105.47,9.03-1.38,17.32-3.68,25.68-5.7,5.97-1.45,10.5,1.21,12.45,6.97.58,1.72.93,3.53,1.41,5.29,2.04,7.51,4.09,15.01,6.49,23.79,21.05-41.66,41.43-82.02,61.49-121.73Zm15.82-19.9c9.43-.16,18.67-1.75,26.82-7.24,16.86-11.36,16.84-34.12.02-45.54-14.2-9.64-39.82-9.56-53.99.16-16.69,11.46-16.48,34.39.42,45.55,8.06,5.32,17.13,6.86,26.73,7.06Z"/><path class="cls-1" d="m251.75,635.42c0,10.45.04,20.91-.01,31.36-.04,7.09-4.15,11.69-10.18,11.56-5.85-.13-9.74-4.6-9.75-11.48-.04-20.91-.04-41.82,0-62.73.01-7.1,4.13-11.68,10.17-11.55,5.86.13,9.72,4.58,9.76,11.47.06,10.45.01,20.91.01,31.36Z"/><path class="cls-1" d="m241.63,552.66c5.31-.08,9.87,4.25,10.08,9.55.22,5.48-4.3,10.25-9.81,10.33-5.5.08-10.14-4.54-10.08-10.06.06-5.32,4.48-9.75,9.8-9.83Z"/></svg>