<svg id="Layer_1" data-name="Layer 1" xmlns="http://www.w3.org/2000/svg" viewBox="0 0 595.28 841.89"><defs><style>.cls-1{fill:#9a459a;}</style></defs><path class="cls-1" d="M58.28,625c3.62-7.85,9.84-10.84,18.29-10,3.11.3,6.27.05,9.84.05v-5.29q0-39.47,0-78.94c0-15.23,9.37-24.62,24.54-24.65,11.05,0,22.09,0,33.13,0,14.34,0,24,9.56,24,23.84q.07,39.7,0,79.4v5.3h27.23v-5.23q0-55.35,0-110.7c0-16.14,9.15-25.27,25.29-25.28,10.89,0,21.78,0,32.67,0,14,.06,23.68,9.65,23.7,23.66q.07,56,0,112.06v5.58h27.23v-5.15q0-80.31,0-160.6c0-16.44,9.06-25.46,25.56-25.47,10.74,0,21.47,0,32.21,0,14.3.06,23.88,9.6,23.89,23.94q.06,80.76,0,161.51v5.69h27.22v-5.36q0-125.43,0-250.88c0-16.71,9-25.64,25.83-25.65,10.59,0,21.17,0,31.76,0,14.59.06,24.07,9.55,24.07,24.21q0,126.14,0,252.25V615h12.12c8.65,0,14,3.7,15.69,10.78,1.53,6.43-1.71,12-9.13,15.78-.23.11-.36.44-.53.66H68.26a20.9,20.9,0,0,1-10-10Zm409-10.2V360.36H440.58v254.4Zm-108.91,0V451.1h-26.7V614.76ZM249.57,500.9H222.83V614.65h26.74ZM114,533.51v81.1h26.66v-81.1Z"/><path class="cls-1" d="M58.28,453.47c3-8.09,9-10.75,17.37-10.82,53.2-.42,103.87-12.81,152.58-33.5Q341.57,361,421.88,267.49A362.15,362.15,0,0,0,460.55,213a36.28,36.28,0,0,0-3.79.53c-16,4.28-32.06,8.65-48.13,12.85-10.49,2.74-19.17-4.19-18.23-14.35.52-5.59,4.4-10.07,10.47-11.71q37.15-10,74.36-19.94c3.77-1,7.56-2.31,11.4-2.61a12.74,12.74,0,0,1,13.56,9.71q11.25,41.75,22.26,83.57a13.41,13.41,0,0,1-9.72,16.5c-7.44,1.91-14.47-2.17-16.68-10.12-4.16-15-8.08-30-12.1-45-.23-.85-.57-1.67-1-3a18.26,18.26,0,0,0-1.54,1.85C451.84,280.07,413.32,320.91,369,356.44c-53.87,43.13-113.45,75.71-179.7,95.63a413.32,413.32,0,0,1-113.32,18c-8.4.13-14.33-2.44-17.65-10.26Z"/></svg>