<?xml version="1.0" encoding="utf-8"?>
<!-- Generator: Adobe Illustrator 26.0.0, SVG Export Plug-In . SVG Version: 6.00 Build 0)  -->
<svg version="1.1" id="Layer_1" xmlns="http://www.w3.org/2000/svg" xmlns:xlink="http://www.w3.org/1999/xlink" x="0px" y="0px"
	 viewBox="0 0 700 700" style="enable-background:new 0 0 700 700;" xml:space="preserve">
<style type="text/css">
	.st0{fill:#FFFFFF;}
</style>
<path class="st0" d="M350,231.5c-68.7,0-124.7,55.9-124.7,124.7c0,68.8,55.9,124.7,124.7,124.7c68.8,0,124.7-55.9,124.7-124.7
	C474.7,287.4,418.8,231.5,350,231.5L350,231.5z"/>
<path class="st0" d="M448.9,119.5H251.1c-75.9,0-137.7,61.8-137.7,137.7V455c0,75.9,61.8,137.7,137.7,137.7h197.7
	c75.9,0,137.7-61.8,137.7-137.7V257.3C586.6,181.3,524.8,119.5,448.9,119.5L448.9,119.5z M517.1,356.1
	c0,92.1-74.9,167.1-167.1,167.1c-92.1,0-167.1-74.9-167.1-167.1c0-92.1,74.9-167.1,167.1-167.1c34.5,0,66.5,10.5,93.2,28.5
	c-0.5-2.4-0.7-4.8-0.7-7.3c0-20.6,16.7-37.3,37.3-37.3c20.6,0,37.3,16.7,37.3,37.3c0,20.6-16.7,37.3-37.3,37.3
	c-1.1,0-2.2-0.2-3.3-0.3C501.7,276.5,517.1,314.5,517.1,356.1L517.1,356.1z"/>
</svg>
