<svg id="Layer_1" data-name="Layer 1" xmlns="http://www.w3.org/2000/svg" viewBox="0 0 1056.48 459.55"><defs><style>.cls-1{fill:#fff;}.cls-2{fill:#27a9e1;}.cls-2,.cls-3,.cls-4,.cls-5,.cls-6{stroke:#fff;stroke-miterlimit:10;stroke-width:4px;}.cls-3{fill:#99459a;}.cls-4{fill:#f17623;}.cls-5{fill:#8ec143;}.cls-6{fill:#eb4c5b;}</style></defs><path class="cls-1" d="M449.33,235.18a69.35,69.35,0,0,1-9.93,26.37,70.89,70.89,0,0,1-43.72,31.27,70.67,70.67,0,0,1-28.45,1,53.19,53.19,0,0,1-13.93-4q-6.21-2.82-12.44-6.08v77.06a7.14,7.14,0,0,1-1.93,5,6.07,6.07,0,0,1-4.59,2.08H313.89a7.73,7.73,0,0,1-5.48-2.08,6.6,6.6,0,0,1-2.23-5v-200a6.64,6.64,0,0,1,2.23-5,7.72,7.72,0,0,1,5.48-2.07h20.45a6.06,6.06,0,0,1,4.59,2.07,7.18,7.18,0,0,1,1.93,5v69.35A24.46,24.46,0,0,0,343.38,241a32.63,32.63,0,0,0,6.81,9.33,38.88,38.88,0,0,0,10.08,7,40.33,40.33,0,0,0,12.59,3.7,39,39,0,0,0,15.56-.74,41,41,0,0,0,13.49-6.07,36.2,36.2,0,0,0,9.93-10.52A37,37,0,0,0,417,229.25a38.92,38.92,0,0,0-17.34-38.82,35.45,35.45,0,0,0-14.07-5.34,57.47,57.47,0,0,0-8-.59A21.52,21.52,0,0,0,369.9,186a5.16,5.16,0,0,1-5.19-.44,8,8,0,0,1-3.4-4.6l-6.82-20.15c-.59-2-.59-3.3,0-4a4.23,4.23,0,0,1,1.78-1.33,157.89,157.89,0,0,1,17-3.26,56.94,56.94,0,0,1,17.34.29,69.48,69.48,0,0,1,26.52,10.08,72.83,72.83,0,0,1,20,18.82,71.38,71.38,0,0,1,11.41,25A68.76,68.76,0,0,1,449.33,235.18Z"/><path class="cls-1" d="M592.17,179.76a75.92,75.92,0,0,1,11.56,20.89,71.25,71.25,0,0,1-1.48,51.72A71,71,0,0,1,586.84,275a73.49,73.49,0,0,1-23,15.26,71.42,71.42,0,0,1-28.3,5.63,59.34,59.34,0,0,1-25.2-5.63A69.61,69.61,0,0,1,489,275a73.91,73.91,0,0,1-14.67-22.67,71,71,0,0,1-5.49-27.86q0-20.44,9.34-36.45a70.46,70.46,0,0,1,24-25.05A67.75,67.75,0,0,1,535,153.09q18.07-.9,35.57,8.59c2,1,2.46,2.28,1.48,3.85L560.76,186a8.37,8.37,0,0,1-4,3.41,5,5,0,0,1-4.88-.44,42,42,0,0,0-16.3-3,31.24,31.24,0,0,0-13.64,3,33.44,33.44,0,0,0-10.81,8.15A36.74,36.74,0,0,0,504,209.4a44.91,44.91,0,0,0-2.52,15.11q0,16.61,9.64,27.41t24.45,10.82a42.59,42.59,0,0,0,15.55-2.82,37,37,0,0,0,12.6-8,38.78,38.78,0,0,0,8.45-12.15,37,37,0,0,0,3.11-15.26A35.1,35.1,0,0,0,573.65,214a47.74,47.74,0,0,0-4-9.34c-1.59-3.35-.89-6.22,2.07-8.59l17.78-16Q591,178.58,592.17,179.76Z"/><path class="cls-1" d="M767.91,235.18A69.35,69.35,0,0,1,758,261.55a70.9,70.9,0,0,1-43.71,31.27,70.69,70.69,0,0,1-28.45,1,53.19,53.19,0,0,1-13.93-4q-6.23-2.82-12.45-6.08v77.06a7.1,7.1,0,0,1-1.93,5,6.06,6.06,0,0,1-4.59,2.08H632.47a7.75,7.75,0,0,1-5.48-2.08,6.63,6.63,0,0,1-2.22-5v-200a6.66,6.66,0,0,1,2.22-5,7.74,7.74,0,0,1,5.48-2.07h20.45a6,6,0,0,1,4.59,2.07,7.14,7.14,0,0,1,1.93,5v69.35A24.46,24.46,0,0,0,662,241a32.66,32.66,0,0,0,6.82,9.33,38.83,38.83,0,0,0,10.07,7,40.39,40.39,0,0,0,12.6,3.7,39.06,39.06,0,0,0,15.56-.74,41,41,0,0,0,13.48-6.07,36.2,36.2,0,0,0,9.93-10.52,37,37,0,0,0,5.19-14.38,39.28,39.28,0,0,0-6.67-28.6,39.37,39.37,0,0,0-10.67-10.22,35.44,35.44,0,0,0-14.08-5.34,57.47,57.47,0,0,0-8-.59,21.52,21.52,0,0,0-7.71,1.48,5.14,5.14,0,0,1-5.18-.44,8,8,0,0,1-3.41-4.6l-6.82-20.15c-.59-2-.59-3.3,0-4a4.29,4.29,0,0,1,1.78-1.33,157.89,157.89,0,0,1,17-3.26,56.93,56.93,0,0,1,17.34.29,69.42,69.42,0,0,1,26.52,10.08,72.87,72.87,0,0,1,20,18.82,71.74,71.74,0,0,1,11.41,25A68.59,68.59,0,0,1,767.91,235.18Z"/><path class="cls-1" d="M815.81,153.68a6.76,6.76,0,0,1,5.33,2.37,8.29,8.29,0,0,1,2.08,5.63V286.75a6.86,6.86,0,0,1-2.08,5,7.19,7.19,0,0,1-5.33,2.08H795.36a6.49,6.49,0,0,1-4.74-2.08,6.82,6.82,0,0,1-2.08-5V161.68a8.24,8.24,0,0,1,2.08-5.63,6.17,6.17,0,0,1,4.74-2.37Z"/><path class="cls-1" d="M926.61,152.49a50.2,50.2,0,0,1,21.19,4.3,45.42,45.42,0,0,1,16,12.3,56.53,56.53,0,0,1,10.22,19,78.49,78.49,0,0,1,3.56,24.3v74.39a7.14,7.14,0,0,1-1.93,5,6.74,6.74,0,0,1-5.19,2.08H950.32a7.17,7.17,0,0,1-5.33-2.08,6.82,6.82,0,0,1-2.08-5V211.17a30.17,30.17,0,0,0-1.18-7.85,25.19,25.19,0,0,0-3.86-8,21.54,21.54,0,0,0-7.26-6.23,24.26,24.26,0,0,0-11.7-2.51q-12.45,0-19.71,8.15t-7.26,21.48v70.54a6.6,6.6,0,0,1-2.23,5,7.7,7.7,0,0,1-5.48,2.08H864.67a7.7,7.7,0,0,1-5.48-2.08,6.63,6.63,0,0,1-2.22-5v-123a5.91,5.91,0,0,1,2.22-4.6,8.09,8.09,0,0,1,5.48-1.92h18.08a7,7,0,0,1,5.19,1.92,6.3,6.3,0,0,1,1.92,4.6v1.77a2.26,2.26,0,0,0,1,1.93,3.51,3.51,0,0,0,1.33.74,3.2,3.2,0,0,0,3.86-1.48,32.51,32.51,0,0,1,13.63-10.52A42.47,42.47,0,0,1,926.61,152.49Z"/><polygon class="cls-2" points="79.92 155.61 117.88 155.61 264.06 220.24 264.06 268.96 79.92 192.54 79.92 155.61"/><polygon class="cls-3" points="244.57 156.63 264.06 156.63 264.06 220.24 199.44 192.54 244.57 156.63"/><polygon class="cls-4" points="79.54 203.82 262.53 281.79 262.53 317.69 225.08 318.72 79.41 254.09 79.54 203.82"/><polygon class="cls-5" points="78.9 317.69 97.88 317.69 144.55 282.81 79.41 254.09 78.9 317.69"/><path class="cls-6" d="M171.48,91.6a47.57,47.57,0,0,0-47.54,46.28h12.14a35.42,35.42,0,0,1,70.8,0H219A47.57,47.57,0,0,0,171.48,91.6Z"/></svg>