<?xml version="1.0" encoding="UTF-8"?>
<svg width="16px" height="16px" viewBox="0 0 16 16" version="1.1" xmlns="http://www.w3.org/2000/svg" xmlns:xlink="http://www.w3.org/1999/xlink">
    <title>Shape</title>
    <g id="SYMBOLS" stroke="none" stroke-width="1" fill="none" fill-rule="evenodd">
        <g id="ICON/SEARCH" transform="translate(-10.000000, -12.000000)" fill="#959595" fill-rule="nonzero">
            <path d="M16.4441123,12 C12.8929656,12 10,14.8930703 10,18.4441994 C10,21.9953286 12.8931243,24.8882798 16.4441123,24.8882798 C17.9799611,24.8882798 19.3907292,24.3454199 20.4997086,23.4439074 L24.8604667,27.8046438 C25.1207312,28.0649071 25.5445212,28.0649071 25.8048016,27.8046438 C26.0650661,27.5443806 26.0650661,27.1275769 25.8048016,26.8671391 L21.4440435,22.5064026 C22.3473066,21.3969922 22.8884231,19.9815882 22.8884231,18.4440804 C22.8884231,14.8929512 19.9952988,12 16.4443108,12 L16.4441123,12 Z M16.4441123,13.3333798 C19.274617,13.3333798 21.554878,15.6137485 21.554878,18.4441201 C21.554878,21.2744916 19.2744979,23.5548603 16.4441123,23.5548603 C13.6137268,23.5548603 11.3333467,21.2744916 11.3333467,18.4441201 C11.3333467,15.6137485 13.6137268,13.3333798 16.4441123,13.3333798 L16.4441123,13.3333798 Z" id="Shape"></path>
        </g>
    </g>
</svg>