<?xml version="1.0" encoding="utf-8"?>
<!-- Generator: Adobe Illustrator 26.0.0, SVG Export Plug-In . SVG Version: 6.00 Build 0)  -->
<svg version="1.1" id="Layer_1" xmlns="http://www.w3.org/2000/svg" xmlns:xlink="http://www.w3.org/1999/xlink" x="0px" y="0px"
	 viewBox="0 0 512 512" style="enable-background:new 0 0 512 512;" xml:space="preserve">
<style type="text/css">
	.st0{fill:#FFFFFF;}
</style>
<path class="st0" d="M506.6,340.6c-0.9,3.4-1.5,6.8-2.6,10.1c-3.9,12.7-12.7,23.4-24.4,29.6c-2.9,1.6-3.8,3.3-3.9,6.6
	c-0.4,13.3,0.6,26.9-2,39.7c-6.9,33.3-35.9,56-69.9,56.6c-11,0.2-22,0.1-32.9,0c-2.7,0-4,0.8-5.2,3.3c-6.9,13.7-18.1,20.8-33.6,20.9
	c-12,0.1-24,0.1-35.9,0c-20.4-0.2-35.9-15.3-36.5-35.3c-0.6-19.5,14.1-35.8,34.3-36.8c13.6-0.7,27.3-0.5,40.9,0
	c14.4,0.5,24.6,8,31,20.8c0.7,1.3,2.4,3.1,3.6,3.1c13.8,0,27.7,0.6,41.4-0.9c22.5-2.4,40.2-22.7,40.9-45.3c0.3-8.6,0-17.3,0-26.1
	c-2.2-0.5-4.3-0.9-6.4-1.5c-13.6-3.9-23.7-16.2-23.8-30.5c-0.3-32.4-0.3-64.9,0-97.3c0.1-14.9,10.7-27.2,25.3-30.8
	c1.4-0.4,2.8-0.8,4.2-1.1c-4.1-95.6-85.5-183-194-183.5c-109.5-0.6-191.6,87-196.2,183.4c0.8,0.3,1.8,0.6,2.7,0.8
	c17.6,4.5,27,16.3,27,34.5c0.1,30.3,0.1,60.5,0,90.8c-0.1,23.5-18.2,38.4-41.5,34.5c-24.7-4.3-42.9-24.8-43.4-50
	c-0.4-20.1-0.5-40.3,0-60.4c0.6-19.6,10-34.4,27.2-44.1c2.2-1,3.7-3.2,3.7-5.7C45.2,131.5,93.4,65.4,182,31.3
	C268.1-2,368.3,27,426.5,98.9c30,37.1,46.2,79.5,49.2,127.1c0.1,1.8,1.2,4.3,2.7,5.1c15.4,8.6,24.8,21.3,27.6,38.8
	c0.2,0.6,0.4,1.2,0.7,1.8v68.9H506.6z M482.5,306.3c0-9.8,0.2-19.6,0-29.4c-0.4-15.1-12.5-27.3-26.9-27.3c-6.3,0-10.1,3.4-10.1,9.8
	c-0.1,31.3-0.1,62.5,0,93.8c0,6.3,4,9.6,10.3,9.5c14.5-0.1,26.4-12.3,26.7-27.5C482.7,325.6,482.6,316,482.5,306.3z M66.7,306.6
	c0-15.5,0.1-30.9,0-46.4c0-7.4-3.8-10.9-11.3-10.6c-13.8,0.6-25.5,12.4-25.7,26.9c-0.3,19.8-0.3,39.6,0,59.4
	c0.2,13.9,11.2,25.5,24.3,26.7c8.9,0.8,12.7-2.6,12.7-11.5C66.7,336.2,66.7,321.4,66.7,306.6z M314.1,483.4c6.2,0,12.3,0.1,18.5,0
	c7.4-0.1,12.5-5.1,12.6-12s-4.8-12.2-12.2-12.3c-12.3-0.2-24.6-0.2-36.9,0c-7.5,0.1-12.5,5.3-12.4,12.2c0.1,7.1,5.3,12,13,12.1
	C302.5,483.5,308.3,483.4,314.1,483.4z"/>
<path class="st0" d="M179.4,339.5c-11.1-0.4-21-3-29.6-9.2c-14.8-10.5-22-25-22-43c-0.1-33.6-0.3-67.2,0.1-100.8
	c0.3-30.6,22-51.9,52.5-52c50.4-0.1,100.8-0.1,151.2,0c30.7,0.1,52.4,21.1,52.8,51.8c0.4,33.8,0.4,67.5,0,101.3
	c-0.3,30.6-22.2,51.8-52.7,51.9c-20.3,0.1-40.6-0.1-60.9,0.1c-2.7,0.1-5.3,1.2-7.3,3c-13.5,13.1-26.7,26.4-40.1,39.6
	c-8.8,8.7-18.9,11.2-28.5,6.9c-10.8-4.9-15.5-13.6-15.4-25.2C179.4,356,179.4,348,179.4,339.5z M203.4,366.2l1.3,0.5
	c1.3-1.2,2.6-2.4,3.9-3.7c14.2-14.1,28.4-28.1,42.4-42.3c3.4-3.7,8.3-5.7,13.3-5.5c22.6,0.2,45.2,0.1,67.8,0
	c16.7-0.1,28.2-11,28.3-27.6c0.3-34.1,0.3-68.2,0-102.3c-0.1-16.2-11.5-27.1-27.6-27.2c-51.1-0.1-102.1-0.1-153.1,0
	c-16.3,0-27.6,10.8-27.8,27c-0.3,34.3-0.3,68.5,0,102.8c0.1,16.1,11.6,27,27.6,27.3c4,0.1,8-0.1,12,0.1c7.2,0.3,11.6,4.8,11.9,12
	c0.1,2.3,0,4.7,0,7L203.4,366.2z"/>
<path class="st0" d="M273.8,238.9c-0.2,9.8-8.2,17.6-18,17.6c-9.7-0.2-17.7-8.6-17.4-18.1c0.1-9.8,8.2-17.6,18-17.4
	C266.1,221,273.9,229.1,273.8,238.9L273.8,238.9z"/>
<path class="st0" d="M215.5,238.6c0,9.7-7.9,17.6-17.6,17.6c-9.7,0-17.6-7.9-17.6-17.6c0-9.6,7.8-17.5,17.4-17.6
	C207.4,220.9,215.4,228.8,215.5,238.6L215.5,238.6z"/>
<path class="st0" d="M331.9,238.6c0,9.7-7.9,17.6-17.7,17.6c-9.5,0-17.2-7.6-17.6-17c-0.3-9.7,7.3-17.9,17-18.2s17.9,7.3,18.2,17
	C331.9,238.2,331.9,238.4,331.9,238.6z"/>
</svg>
